<?xml version="1.0" encoding="utf-8"?>
<!-- Generator: Adobe Illustrator 24.3.0, SVG Export Plug-In . SVG Version: 6.00 Build 0)  -->
<svg version="1.1" xmlns="http://www.w3.org/2000/svg" xmlns:xlink="http://www.w3.org/1999/xlink" x="0px" y="0px"
	 viewBox="0 0 570 269" style="enable-background:new 0 0 570 269;" xml:space="preserve">
<style type="text/css">
	.st0{fill:#F7931A;}
	.st1{opacity:0.1;}
	.st2{display:none;clip-path:url(#SVGID_2_);}
	.st3{clip-path:url(#SVGID_2_);}
	.st4{fill:url(#SVGID_3_);}
	.st5{fill:#FFFFFF;}
	.st6{clip-path:url(#SVGID_5_);}
	.st7{fill:none;}
	.st8{opacity:0.1;clip-path:url(#SVGID_5_);}
	.st9{fill:url(#SVGID_6_);}
</style>
<g id="Calque_1">
	<g id="Calque_1_1_">
		<g id="extra_12_">
			<polygon class="st0" points="362.6,0 333.7,0 246.1,0 219.8,0 144.7,0 106.7,0 0,0 0,269 262.2,269 319,269 446.4,269 488.4,269 
				570,269 570,0 			"/>
		</g>
		<g class="st1">
			<defs>
				<polygon id="SVGID_1_" class="st1" points="362.6,0 333.7,0 246.1,0 219.8,0 144.7,0 106.7,0 0,0 0,269 262.2,269 319,269 
					446.4,269 488.4,269 570,269 570,0 				"/>
			</defs>
			<clipPath id="SVGID_2_">
				<use xlink:href="#SVGID_1_"  style="overflow:visible;"/>
			</clipPath>
			<path class="st2" d="M329.6,301.9v-5.3h2.1v-1.1h-5.4v1.1h2.1v5.3H329.6z M340.2,301.9v-6.4h-1.7l-1.9,4.4l-1.9-4.4H333v6.4h1.2
				v-4.8l1.8,4.2h1.2l1.8-4.2v4.8H340.2z M628.5,255.3v-68.7c0-25.9-16.5-43.3-43.1-43.5c-14-0.2-28.4,4.1-38.5,19.5
				c-7.6-12.1-19.5-19.5-36.2-19.5c-11.7,0-23.1,3.4-32.1,16.3v-13.5h-23.8v109.5h24v-60.7c0-19,10.5-29.1,26.8-29.1
				c15.8,0,23.8,10.3,23.8,28.9v60.9h24v-60.7c0-19,11-29.1,26.8-29.1c16.3,0,24,10.3,24,28.9v60.9H628.5z M984.4,145.8h-38.9v-33.2
				h-24v33.2h-22.2v21.8h22.2v49.9c0,25.4,9.8,40.5,38,40.5c10.3,0,22.2-3.2,29.8-8.5l-6.9-20.4c-7.1,4.1-14.9,6.2-21.1,6.2
				c-11.9,0-15.8-7.3-15.8-18.3v-49.5h38.9V145.8z M1187.6,143.1c-13.7,0-22.7,6.4-28.9,16v-13.3h-23.6v109.5h23.8v-61.4
				c0-18.1,7.8-28.2,23.4-28.2c4.8,0,9.8,0.7,14.9,2.7l7.3-22.4C1199.3,144,1192.4,143.1,1187.6,143.1L1187.6,143.1z M880.4,154.6
				c-11.5-7.6-27.3-11.5-44.7-11.5c-27.7,0-45.6,13.3-45.6,35c0,17.9,13.3,28.9,37.8,32.3l11.2,1.6c13.1,1.8,19.2,5.3,19.2,11.5
				c0,8.5-8.7,13.3-25,13.3c-16.5,0-28.4-5.3-36.4-11.5l-11.2,18.6c13.1,9.6,29.5,14.2,47.4,14.2c31.6,0,49.9-14.9,49.9-35.7
				c0-19.2-14.4-29.3-38.2-32.8l-11.2-1.6c-10.3-1.4-18.6-3.4-18.6-10.8c0-8,7.8-12.8,20.8-12.8c14,0,27.5,5.3,34.1,9.4L880.4,154.6
				z M1518.6,143.1c-13.7,0-22.7,6.4-28.9,16v-13.3h-23.6v109.5h23.8v-61.4c0-18.1,7.8-28.2,23.4-28.2c4.8,0,9.9,0.7,14.9,2.7
				l7.3-22.4C1530.2,144,1523.4,143.1,1518.6,143.1L1518.6,143.1z M1211.6,200.6c0,33.2,23.1,57.5,58.4,57.5
				c16.5,0,27.5-3.7,39.4-13.1l-11.5-19.2c-8.9,6.4-18.3,9.8-28.6,9.8c-19-0.2-33-14-33-35c0-21.1,14-34.8,33-35
				c10.3,0,19.7,3.4,28.6,9.8l11.5-19.2c-11.9-9.4-22.9-13.1-39.4-13.1C1234.8,143.1,1211.6,167.4,1211.6,200.6L1211.6,200.6z
				 M1434.7,200.6v-54.7h-23.8v13.3c-7.6-9.8-19-16-34.6-16c-30.7,0-54.7,24.1-54.7,57.5c0,33.4,24,57.5,54.7,57.5
				c15.6,0,27-6.2,34.6-16v13.3h23.8V200.6z M1346.1,200.6c0-19.2,12.6-35,33.2-35c19.7,0,33,15.1,33,35s-13.3,35-33,35
				C1358.7,235.6,1346.1,219.8,1346.1,200.6L1346.1,200.6z M1058.6,143.1c-32.1,0-54.5,23.4-54.5,57.5c0,34.8,23.4,57.5,56.1,57.5
				c16.5,0,31.6-4.1,44.9-15.3l-11.7-17.6c-9.2,7.3-20.8,11.5-31.8,11.5c-15.3,0-29.3-7.1-32.8-26.8h81.3c0.2-3,0.5-6,0.5-9.2
				C1110.4,166.5,1089.3,143.1,1058.6,143.1L1058.6,143.1z M1058.2,164.4c15.3,0,25.2,9.6,27.7,26.6h-56.8
				C1031.6,175.2,1041.2,164.4,1058.2,164.4L1058.2,164.4z M1655.8,200.6v-98.7h-23.8v57.3c-7.6-9.8-19-16-34.6-16
				c-30.7,0-54.7,24.1-54.7,57.5c0,33.4,24,57.5,54.7,57.5c15.6,0,27-6.2,34.6-16v13.3h23.8V200.6z M1683.6,245.2
				c1,0,1.9,0.2,2.8,0.5c0.9,0.4,1.6,0.9,2.2,1.5c0.6,0.6,1.1,1.4,1.5,2.2c0.4,0.8,0.6,1.7,0.6,2.7c0,1-0.2,1.9-0.6,2.7
				c-0.4,0.8-0.9,1.6-1.5,2.2c-0.6,0.6-1.4,1.1-2.2,1.5c-0.9,0.4-1.8,0.6-2.8,0.6c-1,0-1.9-0.2-2.8-0.6c-0.9-0.4-1.6-0.9-2.3-1.5
				c-0.6-0.6-1.1-1.4-1.5-2.2c-0.4-0.8-0.6-1.7-0.6-2.7c0-1,0.2-1.9,0.6-2.7c0.4-0.8,0.9-1.6,1.5-2.2c0.6-0.6,1.4-1.1,2.3-1.5
				S1682.6,245.2,1683.6,245.2z M1683.6,257.6c0.7,0,1.4-0.1,2.1-0.4c0.6-0.3,1.2-0.7,1.7-1.2c0.5-0.5,0.9-1.1,1.2-1.7
				c0.3-0.7,0.4-1.4,0.4-2.1c0-0.7-0.1-1.5-0.4-2.1c-0.3-0.7-0.7-1.2-1.2-1.7c-0.5-0.5-1.1-0.9-1.7-1.1c-0.6-0.3-1.3-0.4-2.1-0.4
				c-0.8,0-1.5,0.1-2.1,0.4c-0.7,0.3-1.2,0.7-1.7,1.1c-0.5,0.5-0.9,1.1-1.1,1.7c-0.3,0.7-0.4,1.4-0.4,2.1c0,0.7,0.1,1.5,0.4,2.1
				c0.3,0.7,0.7,1.2,1.1,1.7c0.5,0.5,1.1,0.9,1.7,1.2C1682.1,257.4,1682.8,257.6,1683.6,257.6z M1684,248.9c0.8,0,1.5,0.2,1.9,0.6
				c0.4,0.4,0.7,0.9,0.7,1.5c0,0.5-0.2,1-0.5,1.3c-0.4,0.3-0.9,0.6-1.5,0.6l2.1,2.4h-1.7l-2-2.4h-0.6v2.4h-1.4v-6.5H1684z
				 M1682.4,250.1v1.7h1.6c0.4,0,0.7-0.1,0.9-0.2c0.2-0.1,0.3-0.4,0.3-0.7c0-0.3-0.1-0.5-0.3-0.6c-0.2-0.1-0.5-0.2-0.9-0.2H1682.4z
				 M1567.1,200.6c0-19.2,12.6-35,33.2-35c19.7,0,33,15.1,33,35s-13.3,35-33,35C1579.7,235.6,1567.1,219.8,1567.1,200.6
				L1567.1,200.6z M762.7,200.6v-54.7h-23.8v13.3c-7.6-9.8-19-16-34.6-16c-30.7,0-54.7,24.1-54.7,57.5c0,33.4,24,57.5,54.7,57.5
				c15.6,0,27-6.2,34.6-16v13.3h23.8V200.6z M674.1,200.6c0-19.2,12.6-35,33.2-35c19.7,0,33,15.1,33,35s-13.3,35-33,35
				C686.7,235.6,674.1,219.8,674.1,200.6z M64.3,333.7c1.3,1.1,2.6,2.2,4,3.3c-26.1,17.4-57.4,27.5-91.1,27.5
				c-90.9,0-164.6-73.7-164.6-164.6S-113.7,35.3-22.8,35.3c33.7,0,65,10.1,91.1,27.5c-1.3,1.1-2.7,2.2-4,3.3
				c-38.8,33.7-61,82.5-61,133.8C3.3,251.2,25.6,300,64.3,333.7z M180.7,35.3c-33.7,0-65,10.1-91.1,27.5c1.3,1.1,2.7,2.2,4,3.3
				c38.8,33.7,61,82.5,61,133.8c0,51.3-22.2,100.1-61,133.8c-1.3,1.1-2.6,2.2-4,3.3c26.1,17.4,57.4,27.5,91.1,27.5
				c90.9,0,164.6-73.7,164.6-164.6C345.3,109,271.6,35.3,180.7,35.3z M78.9,70.5c-2.1,1.7-4.2,3.4-6.2,5.2
				C38,105.9,16.1,150.3,16.1,199.9c0,49.6,22,94,56.6,124.2c2,1.8,4.1,3.5,6.2,5.2c2.1-1.7,4.2-3.4,6.2-5.2
				c34.7-30.2,56.6-74.6,56.6-124.2c0-49.6-22-94-56.6-124.2C83.1,73.9,81.1,72.2,78.9,70.5"/>
			<g class="st3">
				<g transform="translate(-289.60744,-317.50471)">
					<g>
						<path d="M302.6,424.2l-4.8,19.2c5.4,1.4,22.1,6.9,24.8-4C325.4,428.1,308,425.5,302.6,424.2z"/>
						<path d="M324.2,367.1c-46.9-11.7-94.4,16.8-106,63.7c-11.7,46.9,16.8,94.4,63.7,106.1c46.9,11.7,94.4-16.8,106.1-63.7h0
							C399.6,426.3,371,378.8,324.2,367.1z M341.6,439.6L341.6,439.6c-1.3,8.5-6,12.7-12.3,14.1c8.6,4.5,13,11.4,8.8,23.3
							c-5.2,14.8-17.5,16.1-33.9,13l-4,15.9l-9.6-2.4l3.9-15.7c-2.5-0.6-5-1.3-7.7-2l-3.9,15.8l-9.6-2.4l4-16
							c-2.2-0.6-4.5-1.2-6.8-1.8l-12.5-3.1l4.8-11c0,0,7.1,1.9,7,1.7c2.7,0.7,3.9-1.1,4.4-2.3l6.3-25.2c0.4,0.1,0.7,0.2,1,0.3
							c-0.4-0.2-0.7-0.3-1-0.3l4.5-18c0.1-2-0.6-4.6-4.5-5.6c0.2-0.1-7-1.7-7-1.7l2.6-10.3l13.2,3.3l0,0c2,0.5,4,1,6.1,1.4l3.9-15.8
							l9.6,2.4l-3.9,15.5c2.6,0.6,5.2,1.2,7.7,1.8l3.8-15.4l9.6,2.4l-3.9,15.8C334.5,421.7,343.3,427.9,341.6,439.6z"/>
						<path d="M295.4,453l-5.3,21.1c6.5,1.6,26.6,8.1,29.6-3.9v0C322.7,457.9,301.9,454.7,295.4,453z"/>
					</g>
					<path d="M471.9,417.5c7.1,0,13.2,1.3,18.4,3.8c5.2,2.5,9.4,5.9,12.9,10.2c3.4,4.3,5.9,9.3,7.5,15.1c1.6,5.8,2.4,12,2.4,18.6
						c0,10.2-1.9,19.8-5.6,28.9c-3.8,9.1-8.9,17-15.4,23.7c-6.5,6.7-14.2,12-23,15.9c-8.8,3.9-18.5,5.9-28.8,5.9c-1.3,0-3.7,0-7-0.1
						c-3.3-0.1-7.1-0.4-11.4-1c-4.3-0.6-8.8-1.5-13.6-2.7c-4.8-1.2-9.3-2.8-13.6-4.9l38.3-161l34.3-5.3l-13.7,57.1
						c2.9-1.3,5.9-2.3,8.8-3.1C465.4,417.8,468.6,417.5,471.9,417.5L471.9,417.5z M443.2,512.3c5.2,0,10-1.3,14.6-3.8
						c4.6-2.5,8.5-5.9,11.9-10.1c3.3-4.2,5.9-9,7.9-14.3c1.9-5.3,2.9-10.9,2.9-16.6c0-7.1-1.2-12.6-3.5-16.6c-2.4-4-6.7-6-13.1-6
						c-2.1,0-4.8,0.4-8.1,1.1c-3.3,0.8-6.3,2.3-9,4.7l-14.6,60.7c0.9,0.2,1.7,0.3,2.3,0.4c0.7,0.2,1.4,0.3,2.1,0.3
						c0.8,0.1,1.6,0.1,2.7,0.1C440.2,512.3,441.5,512.3,443.2,512.3L443.2,512.3z"/>
					<path d="M548.7,536.4H516l27.7-116.5h33L548.7,536.4z M564.7,405.7c-4.6,0-8.7-1.4-12.4-4.1c-3.7-2.7-5.5-6.9-5.5-12.5
						c0-3.1,0.6-6,1.9-8.7c1.3-2.7,2.9-5.1,5-7.1c2.1-2,4.5-3.6,7.2-4.8c2.7-1.2,5.7-1.8,8.8-1.8c4.6,0,8.7,1.4,12.4,4.1
						c3.7,2.7,5.5,6.9,5.5,12.5c0,3.1-0.6,6-1.9,8.8c-1.2,2.7-2.9,5.1-5,7.1c-2.1,2-4.5,3.6-7.2,4.8
						C570.7,405.2,567.8,405.7,564.7,405.7L564.7,405.7z"/>
					<path d="M605.4,390.9l34.3-5.3l-8.4,34.3h36.8l-6.6,27h-36.6l-9.7,40.7c-0.9,3.4-1.4,6.6-1.5,9.5c-0.2,3,0.2,5.5,1.1,7.6
						c0.9,2.1,2.5,3.8,4.8,5c2.3,1.2,5.6,1.8,9.9,1.8c3.5,0,7-0.3,10.3-1c3.3-0.7,6.7-1.6,10.1-2.8l2.4,25.3
						c-4.4,1.6-9.2,3-14.4,4.2c-5.2,1.2-11.3,1.8-18.4,1.8c-10.2,0-18.1-1.5-23.7-4.5c-5.6-3-9.6-7.2-12-12.4
						c-2.3-5.2-3.4-11.3-3.1-18c0.3-6.8,1.3-14,3.1-21.5L605.4,390.9L605.4,390.9z"/>
					<path d="M666.6,489.9c0-10,1.6-19.5,4.9-28.4c3.2-8.9,7.9-16.6,14-23.3c6-6.6,13.4-11.9,22-15.7c8.6-3.8,18.3-5.8,28.9-5.8
						c6.7,0,12.6,0.6,17.8,1.9c5.3,1.3,10,2.9,14.3,5l-11.3,25.7c-3-1.2-6-2.3-9.2-3.2c-3.2-1-7-1.4-11.6-1.4
						c-10.9,0-19.6,3.8-26,11.3c-6.4,7.5-9.6,17.7-9.6,30.4c0,7.5,1.6,13.6,4.9,18.3c3.2,4.7,9.2,7,17.9,7c4.3,0,8.4-0.4,12.4-1.3
						c4-0.9,7.5-2,10.6-3.3l2.4,26.4c-4.1,1.6-8.7,3.1-13.7,4.3c-5,1.2-11,1.9-17.9,1.9c-9.2,0-16.9-1.3-23.3-4
						c-6.3-2.7-11.6-6.2-15.7-10.7c-4.2-4.5-7.1-9.8-9-15.8C667.6,502.9,666.6,496.5,666.6,489.9L666.6,489.9z"/>
					<path d="M812.2,539.5c-7.8,0-14.6-1.2-20.4-3.6c-5.7-2.4-10.5-5.7-14.3-10c-3.8-4.3-6.6-9.3-8.5-15.2
						c-1.9-5.8-2.9-12.3-2.9-19.4c0-8.9,1.4-17.7,4.3-26.6c2.9-8.9,7.1-16.8,12.7-23.9c5.6-7.1,12.5-12.9,20.6-17.4
						c8.1-4.5,17.4-6.7,27.9-6.7c7.7,0,14.4,1.2,20.3,3.6c5.8,2.4,10.6,5.7,14.4,10c3.7,4.3,6.6,9.3,8.5,15.2
						c1.9,5.8,2.9,12.3,2.9,19.4c0,8.8-1.4,17.7-4.2,26.6c-2.8,8.8-6.9,16.8-12.4,23.9c-5.5,7.1-12.3,12.9-20.5,17.4
						C832.5,537.3,823,539.5,812.2,539.5L812.2,539.5z M828.6,444.7c-4.9,0-9.2,1.4-12.8,4.2c-3.7,2.8-6.8,6.4-9.3,10.6
						c-2.5,4.3-4.4,9-5.7,14.1c-1.3,5.1-1.9,9.9-1.9,14.5c0,7.4,1.2,13.1,3.5,17.3c2.4,4.1,6.6,6.2,12.9,6.2c4.9,0,9.2-1.4,12.9-4.2
						c3.7-2.8,6.8-6.3,9.3-10.6c2.5-4.3,4.4-9,5.7-14.1c1.2-5.1,1.9-9.9,1.9-14.5c0-7.4-1.2-13.1-3.6-17.3
						C839.1,446.8,834.8,444.7,828.6,444.7L828.6,444.7z"/>
					<path d="M913.5,536.4h-32.8l27.7-116.5h33L913.5,536.4z M929.4,405.7c-4.6,0-8.7-1.4-12.4-4.1c-3.7-2.7-5.5-6.9-5.5-12.5
						c0-3.1,0.6-6,1.9-8.7c1.2-2.7,2.9-5.1,5-7.1c2.1-2,4.5-3.6,7.2-4.8c2.7-1.2,5.6-1.8,8.7-1.8c4.6,0,8.7,1.4,12.4,4.1
						c3.7,2.7,5.6,6.9,5.6,12.5c0,3.1-0.7,6-1.9,8.8c-1.2,2.7-2.9,5.1-5,7.1c-2.1,2-4.5,3.6-7.2,4.8
						C935.5,405.2,932.5,405.7,929.4,405.7z"/>
					<path d="M965,425.2c2.5-0.7,5.3-1.6,8.3-2.6c3-1,6.4-1.8,10.2-2.6c3.7-0.8,8-1.5,12.6-2c4.6-0.5,9.9-0.8,15.8-0.8
						c17.3,0,29.2,5,35.8,15.1c6.6,10,7.7,23.8,3.4,41.2l-15.1,62.9h-33l14.6-61.6c0.9-3.8,1.6-7.6,2.1-11.2
						c0.5-3.6,0.5-6.8-0.1-9.5c-0.6-2.7-2-4.9-4.1-6.7c-2.2-1.7-5.4-2.5-9.9-2.5c-4.3,0-8.6,0.5-13.1,1.3l-21.5,90.1h-33L965,425.2z
						"/>
				</g>
			</g>
		</g>
		<linearGradient id="SVGID_3_" gradientUnits="userSpaceOnUse" x1="285" y1="-0.7785" x2="285" y2="269.1214">
			<stop  offset="0" style="stop-color:#F7931A;stop-opacity:0"/>
			<stop  offset="1" style="stop-color:#F7931A"/>
		</linearGradient>
		<rect x="0" y="-0.8" class="st4" width="570" height="269.9"/>
		<g>
			<g transform="translate(-289.60744,-317.50471)">
				<g>
					<path class="st5" d="M484.3,444.5l-1.3,5.2c1.5,0.4,6,1.9,6.8-1.1C490.5,445.5,485.8,444.8,484.3,444.5z"/>
					<path class="st5" d="M490.2,428.9c-12.8-3.2-25.7,4.6-28.8,17.3c-3.2,12.8,4.6,25.7,17.3,28.9c12.8,3.2,25.7-4.6,28.9-17.3l0,0
						C510.7,445,502.9,432.1,490.2,428.9z M494.9,448.6L494.9,448.6c-0.3,2.3-1.6,3.4-3.3,3.8c2.3,1.2,3.5,3.1,2.4,6.3
						c-1.4,4-4.8,4.4-9.2,3.5l-1.1,4.3l-2.6-0.7l1.1-4.3c-0.7-0.2-1.4-0.3-2.1-0.5l-1.1,4.3l-2.6-0.7l1.1-4.3
						c-0.6-0.2-1.2-0.3-1.9-0.5l-3.4-0.8l1.3-3c0,0,1.9,0.5,1.9,0.5c0.7,0.2,1.1-0.3,1.2-0.6l1.7-6.8c0.1,0,0.2,0,0.3,0.1
						c-0.1,0-0.2-0.1-0.3-0.1l1.2-4.9c0-0.6-0.2-1.3-1.2-1.5c0,0-1.9-0.5-1.9-0.5l0.7-2.8l3.6,0.9l0,0c0.5,0.1,1.1,0.3,1.7,0.4
						l1.1-4.3l2.6,0.7l-1,4.2c0.7,0.2,1.4,0.3,2.1,0.5l1-4.2l2.6,0.7l-1.1,4.3C493,443.8,495.4,445.5,494.9,448.6z"/>
					<path class="st5" d="M482.3,452.3l-1.4,5.8c1.8,0.4,7.2,2.2,8-1.1l0,0C489.8,453.6,484.1,452.7,482.3,452.3z"/>
				</g>
				<path class="st5" d="M530.4,442.6c1.9,0,3.6,0.3,5,1c1.4,0.7,2.6,1.6,3.5,2.8c0.9,1.2,1.6,2.5,2,4.1c0.4,1.6,0.7,3.3,0.7,5.1
					c0,2.8-0.5,5.4-1.5,7.9c-1,2.5-2.4,4.6-4.2,6.4c-1.8,1.8-3.9,3.3-6.3,4.3c-2.4,1.1-5,1.6-7.8,1.6c-0.4,0-1,0-1.9,0
					c-0.9,0-1.9-0.1-3.1-0.3c-1.2-0.2-2.4-0.4-3.7-0.7c-1.3-0.3-2.5-0.8-3.7-1.3l10.4-43.8l9.3-1.4l-3.7,15.5
					c0.8-0.4,1.6-0.6,2.4-0.8C528.6,442.7,529.4,442.6,530.4,442.6L530.4,442.6z M522.5,468.4c1.4,0,2.7-0.3,4-1
					c1.2-0.7,2.3-1.6,3.2-2.7c0.9-1.1,1.6-2.4,2.1-3.9s0.8-3,0.8-4.5c0-1.9-0.3-3.4-1-4.5c-0.6-1.1-1.8-1.6-3.6-1.6
					c-0.6,0-1.3,0.1-2.2,0.3c-0.9,0.2-1.7,0.6-2.4,1.3l-4,16.5c0.2,0,0.5,0.1,0.6,0.1c0.2,0,0.4,0.1,0.6,0.1c0.2,0,0.4,0,0.7,0
					C521.7,468.4,522.1,468.4,522.5,468.4L522.5,468.4z"/>
				<path class="st5" d="M551.2,475h-8.9l7.5-31.7h9L551.2,475z M555.6,439.4c-1.2,0-2.4-0.4-3.4-1.1c-1-0.7-1.5-1.9-1.5-3.4
					c0-0.8,0.2-1.6,0.5-2.4c0.3-0.7,0.8-1.4,1.4-1.9c0.6-0.5,1.2-1,2-1.3c0.7-0.3,1.5-0.5,2.4-0.5c1.2,0,2.4,0.4,3.4,1.1
					c1,0.7,1.5,1.9,1.5,3.4c0,0.8-0.2,1.6-0.5,2.4c-0.3,0.7-0.8,1.4-1.4,1.9c-0.6,0.5-1.2,1-2,1.3
					C557.2,439.3,556.4,439.4,555.6,439.4L555.6,439.4z"/>
				<path class="st5" d="M566.7,435.4l9.3-1.4l-2.3,9.3h10l-1.8,7.3H572l-2.6,11.1c-0.2,0.9-0.4,1.8-0.4,2.6c0,0.8,0.1,1.5,0.3,2.1
					c0.2,0.6,0.7,1,1.3,1.4c0.6,0.3,1.5,0.5,2.7,0.5c1,0,1.9-0.1,2.8-0.3c0.9-0.2,1.8-0.4,2.7-0.8l0.7,6.9c-1.2,0.4-2.5,0.8-3.9,1.1
					c-1.4,0.3-3.1,0.5-5,0.5c-2.8,0-4.9-0.4-6.4-1.2c-1.5-0.8-2.6-2-3.3-3.4c-0.6-1.4-0.9-3.1-0.8-4.9c0.1-1.9,0.4-3.8,0.8-5.8
					L566.7,435.4L566.7,435.4z"/>
				<path class="st5" d="M583.3,462.3c0-2.7,0.4-5.3,1.3-7.7c0.9-2.4,2.2-4.5,3.8-6.3c1.6-1.8,3.6-3.2,6-4.3c2.3-1,5-1.6,7.9-1.6
					c1.8,0,3.4,0.2,4.8,0.5c1.4,0.3,2.7,0.8,3.9,1.4l-3.1,7c-0.8-0.3-1.6-0.6-2.5-0.9c-0.9-0.3-1.9-0.4-3.2-0.4c-3,0-5.3,1-7.1,3.1
					c-1.7,2-2.6,4.8-2.6,8.3c0,2,0.4,3.7,1.3,5c0.9,1.3,2.5,1.9,4.9,1.9c1.2,0,2.3-0.1,3.4-0.4c1.1-0.2,2-0.5,2.9-0.9l0.7,7.2
					c-1.1,0.4-2.4,0.8-3.7,1.2c-1.4,0.3-3,0.5-4.9,0.5c-2.5,0-4.6-0.4-6.3-1.1c-1.7-0.7-3.2-1.7-4.3-2.9c-1.1-1.2-1.9-2.7-2.4-4.3
					C583.6,465.9,583.3,464.1,583.3,462.3L583.3,462.3z"/>
				<path class="st5" d="M622.9,475.8c-2.1,0-4-0.3-5.5-1c-1.6-0.6-2.9-1.5-3.9-2.7c-1-1.2-1.8-2.5-2.3-4.1
					c-0.5-1.6-0.8-3.3-0.8-5.3c0-2.4,0.4-4.8,1.2-7.2c0.8-2.4,1.9-4.6,3.5-6.5c1.5-1.9,3.4-3.5,5.6-4.7c2.2-1.2,4.7-1.8,7.6-1.8
					c2.1,0,3.9,0.3,5.5,1c1.6,0.6,2.9,1.5,3.9,2.7c1,1.2,1.8,2.5,2.3,4.1c0.5,1.6,0.8,3.3,0.8,5.3c0,2.4-0.4,4.8-1.1,7.2
					c-0.8,2.4-1.9,4.6-3.4,6.5c-1.5,1.9-3.3,3.5-5.6,4.7C628.4,475.2,625.9,475.8,622.9,475.8L622.9,475.8z M627.4,450
					c-1.3,0-2.5,0.4-3.5,1.1c-1,0.8-1.8,1.7-2.5,2.9c-0.7,1.2-1.2,2.4-1.5,3.8c-0.3,1.4-0.5,2.7-0.5,3.9c0,2,0.3,3.6,1,4.7
					c0.6,1.1,1.8,1.7,3.5,1.7c1.3,0,2.5-0.4,3.5-1.1c1-0.8,1.8-1.7,2.5-2.9c0.7-1.2,1.2-2.4,1.5-3.8c0.3-1.4,0.5-2.7,0.5-3.9
					c0-2-0.3-3.6-1-4.7C630.2,450.6,629.1,450,627.4,450L627.4,450z"/>
				<path class="st5" d="M650.5,475h-8.9l7.5-31.7h9L650.5,475z M654.8,439.4c-1.2,0-2.4-0.4-3.4-1.1c-1-0.7-1.5-1.9-1.5-3.4
					c0-0.8,0.2-1.6,0.5-2.4c0.3-0.7,0.8-1.4,1.4-1.9c0.6-0.5,1.2-1,2-1.3c0.7-0.3,1.5-0.5,2.4-0.5c1.2,0,2.4,0.4,3.4,1.1
					c1,0.7,1.5,1.9,1.5,3.4c0,0.8-0.2,1.6-0.5,2.4s-0.8,1.4-1.4,1.9c-0.6,0.5-1.2,1-2,1.3C656.4,439.3,655.7,439.4,654.8,439.4z"/>
				<path class="st5" d="M664.5,444.7c0.7-0.2,1.4-0.4,2.3-0.7c0.8-0.3,1.7-0.5,2.8-0.7c1-0.2,2.2-0.4,3.4-0.5
					c1.3-0.1,2.7-0.2,4.3-0.2c4.7,0,7.9,1.4,9.7,4.1c1.8,2.7,2.1,6.5,0.9,11.2l-4.1,17.1h-9l4-16.8c0.2-1,0.4-2.1,0.6-3
					c0.1-1,0.1-1.8,0-2.6c-0.2-0.7-0.5-1.3-1.1-1.8c-0.6-0.5-1.5-0.7-2.7-0.7c-1.2,0-2.3,0.1-3.6,0.4l-5.8,24.5h-9L664.5,444.7z"/>
			</g>
		</g>
	</g>
</g>
<g id="Calque_8">
	<g id="Calque_5_2_">
		<g id="extra_14_">
			<polygon class="st0" points="-809.6,-285.9 -864.3,-285.9 -1030.3,-285.9 -1080.1,-285.9 -1222.4,-285.9 -1294.4,-285.9 
				-1496.6,-285.9 -1496.6,794.1 -999.8,794.1 -892.2,794.1 -650.8,794.1 -571.2,794.1 -416.6,794.1 -416.6,-285.9 			"/>
		</g>
		<g>
			<defs>
				<rect id="SVGID_4_" x="-1496.6" y="-285.9" width="1080" height="1080"/>
			</defs>
			<clipPath id="SVGID_5_">
				<use xlink:href="#SVGID_4_"  style="overflow:visible;"/>
			</clipPath>
			<g id="extra_2_" class="st6">
				<polygon class="st7" points="-809.6,-285.9 -864.3,-285.9 -1030.3,-285.9 -1080.1,-285.9 -1222.4,-285.9 -1294.4,-285.9 
					-1496.6,-285.9 -1496.6,794.1 -999.8,794.1 -892.2,794.1 -650.8,794.1 -571.2,794.1 -416.6,794.1 -416.6,-285.9 				"/>
			</g>
			<g class="st8">
				<g transform="translate(-289.60744,-317.50471)">
					<g>
						<path d="M-1199.4,500.5l-12.2,49c13.8,3.5,56.5,17.5,63.4-10.2C-1141,510.4-1185.6,504-1199.4,500.5z"/>
						<path d="M-1144.3,354.8c-119.7-29.9-241,43-270.8,162.8c-29.9,119.7,43,241,162.7,270.9c119.8,29.9,241-43,270.9-162.8h0
							C-951.7,505.9-1024.5,384.6-1144.3,354.8z M-1099.8,539.8L-1099.8,539.8c-3.2,21.8-15.3,32.3-31.3,36
							c22,11.5,33.2,29,22.5,59.5c-13.2,37.8-44.7,41-86.5,33.1l-10.1,40.7l-24.5-6.1l10-40.1c-6.4-1.6-12.9-3.3-19.5-5.1
							l-10.1,40.3l-24.5-6.1l10.1-40.7c-5.7-1.5-11.5-3-17.5-4.5l-31.9-8l12.2-28.1c0,0,18.1,4.8,17.8,4.4c6.9,1.7,10-2.8,11.2-5.8
							l16-64.3c0.9,0.2,1.8,0.4,2.6,0.6c-1-0.4-1.9-0.6-2.5-0.8l11.4-45.9c0.3-5.2-1.5-11.8-11.4-14.3c0.4-0.3-17.8-4.4-17.8-4.4
							l6.5-26.2l33.8,8.4l0,0.1c5.1,1.3,10.3,2.5,15.7,3.7l10.1-40.3l24.5,6.1l-9.8,39.5c6.6,1.5,13.2,3,19.6,4.6l9.8-39.2l24.5,6.1
							l-10,40.3C-1118,494-1095.3,510-1099.8,539.8z"/>
						<path d="M-1217.8,574.2l-13.5,54c16.6,4.1,67.9,20.6,75.5-9.9v0C-1147.9,586.6-1201.2,578.4-1217.8,574.2z"/>
					</g>
					<path d="M-766.8,483.3c18.1,0,33.8,3.2,46.9,9.6c13.2,6.4,24.1,15.1,32.9,26c8.6,11,15.1,23.8,19.2,38.5
						c4.1,14.7,6.2,30.6,6.2,47.5c0,26-4.8,50.6-14.4,73.8c-9.6,23.2-22.7,43.4-39.3,60.6c-16.6,17.2-36.2,30.7-58.8,40.7
						c-22.6,10-47.1,15-73.5,15c-3.4,0-9.4-0.1-17.9-0.3c-8.5-0.2-18.2-1-29.1-2.5c-11-1.5-22.6-3.8-34.8-6.8
						c-12.2-3-23.9-7.1-34.8-12.4l97.9-411.2l87.7-13.6l-35,145.9c7.5-3.4,15.1-6,22.6-7.9C-783.6,484.3-775.5,483.3-766.8,483.3
						L-766.8,483.3z M-840.3,725.5c13.2,0,25.6-3.2,37.3-9.6c11.7-6.4,21.8-15,30.3-25.7c8.5-10.8,15.2-22.9,20.1-36.5
						c4.9-13.6,7.4-27.7,7.4-42.5c0-18.1-3-32.2-9.1-42.4c-6-10.2-17.2-15.3-33.4-15.3c-5.3,0-12.1,1-20.6,2.8
						c-8.5,1.9-16.1,5.9-22.9,11.9l-37.3,155c2.2,0.4,4.2,0.8,5.9,1.1c1.7,0.4,3.5,0.7,5.3,0.8c1.9,0.2,4.1,0.3,6.8,0.3
						S-844.5,725.5-840.3,725.5L-840.3,725.5z"/>
					<path d="M-570.7,787.2h-83.7l70.7-297.5h84.3L-570.7,787.2z M-529.9,453.4c-11.7,0-22.3-3.5-31.7-10.4
						c-9.5-6.9-14.2-17.6-14.2-32c0-7.9,1.6-15.3,4.8-22.3c3.2-7,7.5-13,12.8-18.1c5.3-5.1,11.4-9.1,18.4-12.2
						c7-3,14.4-4.5,22.4-4.5c11.7,0,22.2,3.5,31.7,10.4c9.4,7,14.1,17.7,14.1,32c0,7.9-1.6,15.4-4.8,22.4c-3.2,7-7.4,13-12.7,18.1
						c-5.2,5.1-11.4,9.1-18.4,12.1C-514.6,451.9-522,453.4-529.9,453.4L-529.9,453.4z"/>
					<path d="M-426,415.5l87.7-13.6l-21.5,87.7h93.9l-17,69h-93.4l-24.9,104.1c-2.3,8.7-3.6,16.8-4,24.3c-0.4,7.6,0.5,14.1,2.8,19.5
						c2.2,5.5,6.3,9.7,12.2,12.7c5.8,3,14.2,4.6,25.2,4.6c9,0,17.8-0.9,26.3-2.6c8.5-1.7,17-4,25.7-7.1l6.2,64.5
						c-11.3,4.1-23.6,7.7-36.8,10.7c-13.2,3-28.9,4.5-47,4.5c-26,0-46.2-3.9-60.5-11.6c-14.3-7.7-24.5-18.3-30.6-31.7
						c-6-13.3-8.7-28.7-7.9-46.1c0.8-17.4,3.4-35.6,7.9-54.9L-426,415.5L-426,415.5z"/>
					<path d="M-269.6,668.3c0-25.6,4.1-49.8,12.4-72.4c8.3-22.6,20.2-42.4,35.7-59.4c15.4-16.9,34.2-30.3,56.3-40.1
						c22-9.8,46.6-14.7,73.8-14.7c17,0,32.2,1.6,45.5,4.8c13.4,3.2,25.5,7.4,36.5,12.7l-28.9,65.7c-7.5-3.1-15.4-5.8-23.5-8.2
						c-8.1-2.5-18-3.7-29.7-3.7c-27.9,0-50,9.6-66.5,28.8c-16.4,19.2-24.6,45.1-24.6,77.5c0,19.2,4.1,34.8,12.5,46.7
						c8.3,11.9,23.6,17.8,45.8,17.8c11,0,21.5-1.1,31.7-3.4c10.2-2.3,19.2-5.1,27.2-8.5l6.3,67.3c-10.6,4.1-22.3,7.8-35.1,11.1
						c-12.8,3.1-28.1,4.8-45.8,4.8c-23.4,0-43.2-3.4-59.4-10.2c-16.2-6.8-29.6-15.9-40.1-27.4c-10.6-11.5-18.2-25-22.9-40.5
						C-267.2,701.5-269.6,685.3-269.6,668.3L-269.6,668.3z"/>
					<path d="M102.3,795c-20,0-37.3-3-52.1-9.1c-14.7-6-26.8-14.5-36.5-25.5C4.2,749.6-3,736.7-8,721.8c-4.9-14.9-7.3-31.4-7.3-49.5
						c0-22.7,3.6-45.3,11-67.9c7.3-22.6,18.2-43,32.6-61.1c14.3-18.1,31.9-32.9,52.6-44.5c20.7-11.5,44.5-17.2,71.2-17.2
						c19.6,0,36.9,3.1,51.8,9.1c14.9,6,27.1,14.5,36.8,25.5c9.6,11,16.8,23.8,21.7,38.8c4.9,14.9,7.4,31.4,7.4,49.5
						c0,22.6-3.6,45.3-10.7,67.9c-7.1,22.6-17.7,42.9-31.7,61.1c-13.9,18.1-31.4,32.9-52.3,44.4C154.1,789.3,129.9,795,102.3,795
						L102.3,795z M144.2,552.9c-12.4,0-23.4,3.6-32.8,10.7c-9.4,7.2-17.4,16.3-23.7,27.2c-6.5,11-11.2,22.9-14.5,35.9
						c-3.2,13-4.8,25.3-4.8,37c0,18.9,3,33.6,9,44.2c6.1,10.5,17,15.8,32.8,15.8c12.5,0,23.4-3.6,32.8-10.8
						c9.4-7.1,17.3-16.2,23.7-27.1c6.4-10.9,11.2-22.9,14.5-35.9c3.2-13,4.8-25.4,4.8-37c0-18.8-3-33.6-9.1-44.1
						C171,558.2,160,552.9,144.2,552.9L144.2,552.9z"/>
					<path d="M361,787.2h-83.8l70.7-297.5h84.3L361,787.2z M401.6,453.4c-11.7,0-22.3-3.5-31.7-10.4c-9.4-6.9-14.2-17.6-14.2-32
						c0-7.9,1.6-15.3,4.8-22.3c3.2-7,7.4-13,12.7-18.1c5.3-5.1,11.4-9.1,18.4-12.2c7-3,14.4-4.5,22.3-4.5c11.7,0,22.3,3.5,31.7,10.4
						c9.4,7,14.2,17.7,14.2,32c0,7.9-1.7,15.4-4.9,22.4c-3.2,7-7.4,13-12.7,18.1c-5.3,5.1-11.4,9.1-18.4,12.1
						C417,451.9,409.6,453.4,401.6,453.4z"/>
					<path d="M492.6,503.2c6.4-1.9,13.5-4.1,21.2-6.5c7.7-2.4,16.4-4.7,26.1-6.7c9.6-2.1,20.4-3.8,32.2-5.1c11.9-1.3,25.4-2,40.4-2
						c44.2,0,74.6,12.9,91.4,38.5c16.8,25.6,19.7,60.7,8.8,105.2l-38.5,160.7h-84.3l37.3-157.3c2.3-9.8,4.1-19.3,5.4-28.6
						c1.3-9.2,1.3-17.3-0.3-24.3c-1.5-6.9-5-12.6-10.4-17c-5.5-4.3-13.9-6.5-25.2-6.5c-10.9,0-22,1.2-33.4,3.4l-54.9,230.2h-84.3
						L492.6,503.2z"/>
				</g>
			</g>
		</g>
		
			<linearGradient id="SVGID_6_" gradientUnits="userSpaceOnUse" x1="-956.5999" y1="-164.3245" x2="-956.5999" y2="-1416.0935" gradientTransform="matrix(1 0 0 -1 0 -427.8187)">
			<stop  offset="0" style="stop-color:#F7931A;stop-opacity:0"/>
			<stop  offset="1" style="stop-color:#F7931A"/>
		</linearGradient>
		<rect x="-1496.6" y="-285.9" class="st9" width="1080" height="1080"/>
	</g>
	<g id="Calque_5">
	</g>
</g>
<g id="Calque_3_2_">
	<g transform="translate(-289.60744,-317.50471)">
		<g>
			<path class="st5" d="M-957,547.3l-4.2,16.7c4.7,1.2,19.3,6,21.7-3.5C-937,550.7-952.3,548.5-957,547.3z"/>
			<path class="st5" d="M-938.2,497.4c-40.9-10.2-82.4,14.7-92.6,55.7c-10.2,40.9,14.7,82.4,55.6,92.6c41,10.2,82.4-14.7,92.6-55.7
				h0C-872.3,549.1-897.2,507.7-938.2,497.4z M-922.9,560.7L-922.9,560.7c-1.1,7.4-5.2,11.1-10.7,12.3c7.5,3.9,11.4,9.9,7.7,20.3
				c-4.5,12.9-15.3,14-29.6,11.3l-3.5,13.9l-8.4-2.1l3.4-13.7c-2.2-0.5-4.4-1.1-6.7-1.7l-3.4,13.8l-8.4-2.1l3.5-13.9
				c-2-0.5-3.9-1-6-1.5l-10.9-2.7l4.2-9.6c0,0,6.2,1.6,6.1,1.5c2.4,0.6,3.4-1,3.8-2l5.5-22c0.3,0.1,0.6,0.2,0.9,0.2
				c-0.3-0.1-0.6-0.2-0.9-0.3l3.9-15.7c0.1-1.8-0.5-4-3.9-4.9c0.1-0.1-6.1-1.5-6.1-1.5l2.2-9l11.6,2.9l0,0c1.7,0.4,3.5,0.8,5.4,1.3
				l3.4-13.8l8.4,2.1l-3.4,13.5c2.3,0.5,4.5,1,6.7,1.6l3.3-13.4l8.4,2.1l-3.4,13.8C-929.2,545.1-921.4,550.5-922.9,560.7z"/>
			<path class="st5" d="M-963.3,572.5l-4.6,18.5c5.7,1.4,23.2,7,25.8-3.4v0C-939.4,576.7-957.6,573.9-963.3,572.5z"/>
		</g>
		<path class="st5" d="M-809.1,541.4c6.2,0,11.6,1.1,16.1,3.3c4.5,2.2,8.3,5.2,11.2,8.9c3,3.8,5.2,8.1,6.6,13.2
			c1.4,5,2.1,10.5,2.1,16.3c0,8.9-1.6,17.3-4.9,25.2c-3.3,7.9-7.8,14.8-13.4,20.7c-5.7,5.9-12.4,10.5-20.1,13.9
			c-7.7,3.4-16.1,5.1-25.1,5.1c-1.2,0-3.2,0-6.1-0.1s-6.2-0.4-9.9-0.9c-3.8-0.5-7.7-1.3-11.9-2.3c-4.2-1-8.2-2.4-11.9-4.3
			l33.5-140.6l30-4.6l-12,49.9c2.6-1.2,5.2-2.1,7.7-2.7C-814.8,541.7-812,541.4-809.1,541.4L-809.1,541.4z M-834.2,624.2
			c4.5,0,8.8-1.1,12.8-3.3c4-2.2,7.5-5.1,10.4-8.8c2.9-3.7,5.2-7.8,6.9-12.5s2.5-9.5,2.5-14.5c0-6.2-1-11-3.1-14.5
			c-2.1-3.5-5.9-5.2-11.4-5.2c-1.8,0-4.2,0.3-7.1,1c-2.9,0.7-5.5,2-7.8,4.1l-12.8,53c0.8,0.1,1.4,0.3,2,0.4c0.6,0.1,1.2,0.2,1.8,0.3
			c0.7,0.1,1.4,0.1,2.3,0.1S-835.6,624.2-834.2,624.2L-834.2,624.2z"/>
		<path class="st5" d="M-742,645.3h-28.6l24.2-101.8h28.8L-742,645.3z M-728.1,531.2c-4,0-7.6-1.2-10.8-3.6c-3.2-2.4-4.8-6-4.8-10.9
			c0-2.7,0.5-5.2,1.6-7.6c1.1-2.4,2.6-4.4,4.4-6.2c1.8-1.7,3.9-3.1,6.3-4.2c2.4-1,4.9-1.5,7.7-1.5c4,0,7.6,1.2,10.8,3.6
			c3.2,2.4,4.8,6,4.8,10.9c0,2.7-0.5,5.3-1.6,7.6c-1.1,2.4-2.5,4.4-4.3,6.2c-1.8,1.7-3.9,3.1-6.3,4.2
			C-722.8,530.7-725.4,531.2-728.1,531.2L-728.1,531.2z"/>
		<path class="st5" d="M-692.5,518.2l30-4.6l-7.4,30h32.1l-5.8,23.6h-31.9l-8.5,35.6c-0.8,3-1.2,5.7-1.4,8.3c-0.1,2.6,0.2,4.8,1,6.7
			c0.8,1.9,2.2,3.3,4.2,4.3c2,1,4.9,1.6,8.6,1.6c3.1,0,6.1-0.3,9-0.9c2.9-0.6,5.8-1.4,8.8-2.4l2.1,22.1c-3.9,1.4-8.1,2.6-12.6,3.7
			c-4.5,1-9.9,1.5-16.1,1.5c-8.9,0-15.8-1.3-20.7-4c-4.9-2.6-8.4-6.3-10.5-10.8c-2-4.6-3-9.8-2.7-15.8c0.3-5.9,1.2-12.2,2.7-18.8
			L-692.5,518.2L-692.5,518.2z"/>
		<path class="st5" d="M-639,604.7c0-8.8,1.4-17,4.3-24.8c2.8-7.7,6.9-14.5,12.2-20.3c5.3-5.8,11.7-10.4,19.3-13.7
			c7.5-3.3,15.9-5,25.2-5c5.8,0,11,0.5,15.6,1.7c4.6,1.1,8.7,2.5,12.5,4.3l-9.9,22.5c-2.6-1-5.3-2-8-2.8c-2.8-0.9-6.2-1.3-10.2-1.3
			c-9.6,0-17.1,3.3-22.7,9.9c-5.6,6.6-8.4,15.4-8.4,26.5c0,6.6,1.4,11.9,4.3,16c2.8,4.1,8.1,6.1,15.7,6.1c3.8,0,7.4-0.4,10.8-1.2
			c3.5-0.8,6.6-1.7,9.3-2.9l2.1,23c-3.6,1.4-7.6,2.7-12,3.8c-4.4,1.1-9.6,1.6-15.7,1.6c-8,0-14.8-1.2-20.3-3.5
			c-5.5-2.3-10.1-5.4-13.7-9.4c-3.6-3.9-6.2-8.6-7.8-13.8C-638.2,616-639,610.5-639,604.7L-639,604.7z"/>
		<path class="st5" d="M-511.8,648c-6.8,0-12.8-1-17.8-3.1c-5-2.1-9.2-5-12.5-8.7c-3.3-3.7-5.8-8.2-7.4-13.2
			c-1.7-5.1-2.5-10.7-2.5-16.9c0-7.8,1.2-15.5,3.8-23.2c2.5-7.7,6.2-14.7,11.1-20.9c4.9-6.2,10.9-11.3,18-15.2
			c7.1-3.9,15.2-5.9,24.4-5.9c6.7,0,12.6,1,17.7,3.1c5.1,2.1,9.3,5,12.6,8.7c3.3,3.8,5.8,8.2,7.4,13.3c1.7,5.1,2.5,10.7,2.5,16.9
			c0,7.7-1.2,15.5-3.7,23.2c-2.4,7.7-6.1,14.7-10.8,20.9c-4.8,6.2-10.7,11.2-17.9,15.2C-494.1,646-502.4,648-511.8,648L-511.8,648z
			 M-497.5,565.2c-4.2,0-8,1.2-11.2,3.7c-3.2,2.5-5.9,5.6-8.1,9.3c-2.2,3.8-3.8,7.8-4.9,12.3c-1.1,4.5-1.6,8.7-1.6,12.7
			c0,6.5,1,11.5,3.1,15.1c2.1,3.6,5.8,5.4,11.2,5.4c4.3,0,8-1.2,11.2-3.7c3.2-2.4,5.9-5.5,8.1-9.3c2.2-3.7,3.8-7.8,4.9-12.3
			c1.1-4.4,1.6-8.7,1.6-12.7c0-6.4-1-11.5-3.1-15.1C-488.4,567-492.1,565.2-497.5,565.2L-497.5,565.2z"/>
		<path class="st5" d="M-423.4,645.3H-452l24.2-101.8h28.8L-423.4,645.3z M-409.5,531.2c-4,0-7.6-1.2-10.8-3.6
			c-3.2-2.4-4.8-6-4.8-10.9c0-2.7,0.6-5.2,1.6-7.6c1.1-2.4,2.5-4.4,4.4-6.2c1.8-1.7,3.9-3.1,6.3-4.2c2.4-1,4.9-1.5,7.6-1.5
			c4,0,7.6,1.2,10.8,3.6c3.2,2.4,4.8,6,4.8,10.9c0,2.7-0.6,5.3-1.7,7.6c-1.1,2.4-2.5,4.4-4.3,6.2c-1.8,1.7-3.9,3.1-6.3,4.2
			C-404.2,530.7-406.8,531.2-409.5,531.2z"/>
		<path class="st5" d="M-378.4,548.2c2.2-0.6,4.6-1.4,7.2-2.2c2.6-0.8,5.6-1.6,8.9-2.3c3.3-0.7,7-1.3,11-1.8
			c4.1-0.5,8.7-0.7,13.8-0.7c15.1,0,25.5,4.4,31.3,13.2c5.7,8.8,6.7,20.8,3,36l-13.2,54.9h-28.8l12.8-53.8c0.8-3.4,1.4-6.6,1.8-9.8
			c0.5-3.1,0.4-5.9-0.1-8.3c-0.5-2.4-1.7-4.3-3.6-5.8c-1.9-1.5-4.7-2.2-8.6-2.2c-3.7,0-7.5,0.4-11.4,1.2l-18.8,78.7h-28.8
			L-378.4,548.2z"/>
	</g>
</g>
<g id="Calque_7">
</g>
</svg>
