<?xml version="1.0" encoding="utf-8"?>
<!-- Generator: Adobe Illustrator 24.3.0, SVG Export Plug-In . SVG Version: 6.00 Build 0)  -->
<svg version="1.1" xmlns="http://www.w3.org/2000/svg" xmlns:xlink="http://www.w3.org/1999/xlink" x="0px" y="0px"
	 viewBox="0 0 570 269" style="enable-background:new 0 0 570 269;" xml:space="preserve">
<style type="text/css">
	.st0{fill:#000E60;}
	.st1{opacity:0.2;}
	.st2{display:none;clip-path:url(#SVGID_2_);}
	.st3{display:inline;}
	.st4{clip-path:url(#SVGID_2_);fill-rule:evenodd;clip-rule:evenodd;}
	.st5{fill:url(#SVGID_3_);}
	.st6{fill-rule:evenodd;clip-rule:evenodd;fill:#FFFFFF;}
	.st7{clip-path:url(#SVGID_5_);}
	.st8{fill:none;}
	.st9{display:none;opacity:0.1;clip-path:url(#SVGID_5_);}
	.st10{opacity:0.2;clip-path:url(#SVGID_5_);fill-rule:evenodd;clip-rule:evenodd;}
	.st11{clip-path:url(#SVGID_5_);fill:url(#SVGID_6_);}
	.st12{clip-path:url(#SVGID_8_);}
	.st13{fill:#00579F;}
	.st14{display:none;opacity:0.1;clip-path:url(#SVGID_8_);}
	.st15{opacity:0.1;clip-path:url(#SVGID_8_);}
	.st16{clip-path:url(#SVGID_8_);fill:url(#SVGID_9_);}
	.st17{fill:#FFFFFF;}
	.st18{clip-path:url(#SVGID_11_);}
	.st19{fill:#EB001B;}
	.st20{display:none;opacity:0.1;clip-path:url(#SVGID_11_);}
	.st21{opacity:0.1;clip-path:url(#SVGID_11_);}
	.st22{clip-path:url(#SVGID_11_);fill:url(#SVGID_12_);}
	.st23{clip-path:url(#SVGID_14_);}
	.st24{display:none;opacity:0.1;clip-path:url(#SVGID_14_);}
	.st25{opacity:0.1;clip-path:url(#SVGID_14_);}
	.st26{clip-path:url(#SVGID_14_);fill:url(#SVGID_15_);}
	.st27{clip-path:url(#SVGID_17_);}
	.st28{display:none;opacity:0.1;clip-path:url(#SVGID_17_);}
	.st29{opacity:0.1;clip-path:url(#SVGID_17_);}
	.st30{clip-path:url(#SVGID_17_);fill:url(#SVGID_18_);}
</style>
<g id="Calque_1">
	<g id="Calque_1_1_">
		<g id="btg">
			<g id="extra_12_">
				<polygon class="st0" points="362.6,0 333.7,0 246.1,0 219.8,0 144.7,0 106.7,0 0,0 0,269 262.2,269 319,269 446.4,269 
					488.4,269 570,269 570,0 				"/>
			</g>
			<g class="st1">
				<defs>
					<polygon id="SVGID_1_" class="st1" points="362.6,0 333.7,0 246.1,0 219.8,0 144.7,0 106.7,0 0,0 0,269 262.2,269 319,269 
						446.4,269 488.4,269 570,269 570,0 					"/>
				</defs>
				<clipPath id="SVGID_2_">
					<use xlink:href="#SVGID_1_"  style="overflow:visible;"/>
				</clipPath>
				<g id="_x37_9bdWi.tif_1_" class="st2">
					<path class="st3" d="M120.5,117.4c0.2-10.2,2.3-18,7-23.7c2.3-2.3,5.4-4.1,8.8-5.6c3.8-1.6,7.2-2.3,10.8-2.3h42.2
						c18.5,0.2,28,10.2,28.4,30.5v62.3c-0.2,7-2.9,13.3-8.6,18.5c-5.4,5.4-11.7,8.3-19.2,8.6h-39.7v44.9h-29.8V117.4z M187.9,123.2
						c-0.2-4.7-2.3-7-6.8-7.2h-23c-5.4,0.5-8.3,3.4-8.6,8.8v41.3c0.2,5.6,3.2,8.6,9.3,8.8h21c2.3,0,3.8-0.7,5.4-2.5
						c1.6-1.1,2.3-2.7,2.3-4.7L187.9,123.2L187.9,123.2L187.9,123.2z"/>
					<path class="st3" d="M308.9,122.6c0.2-4.5-2.5-6.8-7.9-6.5h-59.3V85.8h67c19.4,0.5,29.3,9.7,29.8,28.4v63.2
						c-0.2,8.1-2.5,14.7-7.2,19.9c-5,5.4-11.5,8.3-19.2,8.3h-40.4c-19.6-0.2-29.8-9-30-27.1v-24.4c0.2-18.7,9.7-28.2,28.4-28.4h39.3
						L308.9,122.6L308.9,122.6L308.9,122.6z M270.5,169c0,1.8,0.7,3.2,2.3,4.1c1.4,1.1,3.2,2,5.4,2h22.6c5.2,0,7.9-2,7.9-5.9v-8.6
						c0-4.5-2.7-7-8.1-7h-22.3c-2.9,0-5,0.5-6.1,1.4c-0.9,1.1-1.6,3.4-1.6,6.5V169L270.5,169z"/>
					<path class="st3" d="M421,220c2.3-0.2,4.3-0.9,5.9-2.5c1.6-1.4,2.3-2.9,2.3-5v-2.7v-4.3h-37.7c-5,0-8.8-0.7-11.7-2
						c-3.2-1.1-6.1-3.4-9.3-6.3c-2.9-3.2-5.2-6.5-6.3-9.9c-1.4-3.2-2-7.2-2-12.2V86h29.6v79.6c0,6.5,2.5,9.7,7.9,9.7h20.8
						c2.5,0,4.7-0.7,6.5-2.5c1.8-1.4,2.5-3.2,2.5-5.2v-3.4V85.6h29.3v131.8c-0.2,9.9-2.7,17.6-7.4,23.5c-5,5.9-11.5,9-20.1,9h-68.8
						v-30.2H421L421,220L421,220z"/>
					<path class="st3" d="M481.7,175.1h52.6c4.7-0.2,7.2-2.3,7.4-5.6v-2.7c0-0.7-0.2-1.6-0.7-2.5c-1.1-2.3-2.5-3.4-4.3-3.4h-3.2
						h-22.8c-7.7-0.2-14.4-2.7-19.9-7.9c-5.4-4.7-8.6-10.6-8.6-17.6v-22.8c0.5-17.8,9.9-26.6,28.7-27.1h60.9v30.2h-51.7
						c-6.1,0-9,1.8-9,5.4v3.2c0,3.8,3.2,5.6,9.3,5.6h25.9c7,0.2,12.9,2.7,17.8,8.1c5,5.2,7.4,11.5,7.7,18.5v22.1
						c-0.2,6.3-2.9,12.4-8.6,18.5c-2.7,2.9-5.4,5.2-8.3,6.3c-2.7,1.1-6.8,1.6-11.5,1.6h-61.6L481.7,175.1L481.7,175.1L481.7,175.1z"
						/>
					<path class="st3" d="M660.4,122.6c0.2-4.5-2.5-6.8-7.9-6.5h-59.3V85.8h67c19.4,0.5,29.3,9.7,29.8,28.4v63.2
						c-0.2,8.1-2.5,14.7-7.2,19.9c-5,5.4-11.5,8.3-19.2,8.3h-40.4c-19.6-0.2-29.8-9-30-27.1v-24.4c0.2-18.7,9.7-28.2,28.4-28.4h39.3
						L660.4,122.6L660.4,122.6L660.4,122.6z M622,169c0,1.8,0.7,3.2,2.3,4.1c1.4,1.1,3.2,2,5.4,2h22.6c5.2,0,7.7-2,7.9-5.9v-8.6
						c0-4.5-2.7-7-8.1-7h-22.3c-2.9,0-5,0.5-6.1,1.4c-0.9,1.1-1.6,3.4-1.6,6.5L622,169L622,169z"/>
					<path class="st3" d="M713.6,68.4c0.2-8.3,3.2-14.7,9-19.6c5.6-5,13.1-7.4,22.6-7.7h18.7v29.3h-11.5c-6.3,0.2-9.5,3.2-9.5,8.8
						v6.5h20.8V116H743v89.3h-29.6L713.6,68.4L713.6,68.4z"/>
					<path class="st3" d="M811.1,164.5v2c0,2.3,0.7,4.3,2,5.6c0.9,1.8,2.3,2.7,3.8,2.7h3.8h56.6v30.2h-64.3
						c-5.9,0-10.4-0.7-13.8-1.6c-3.6-1.1-6.8-3.2-9.5-5.6c-3.2-3.2-5.4-6.5-6.5-9.9c-1.1-3.6-1.8-8.1-1.8-14l-0.2-60.7
						c0.5-18.3,9.9-27.5,28.7-28h39.7c18.3,0.5,27.8,9.9,28,28.9v23.9L811.1,164.5z M847.9,121.9v-0.7c0-1.6-0.7-2.9-2-3.8
						c-1.4-0.9-3.2-1.4-5.2-1.4h-20.5c-2.5,0-4.7,0.7-6.5,2.3c-2,1.4-3.2,3.2-3.2,5.4v12.2L847.9,121.9z"/>
					<path class="st3" d="M940.2,205.4c-4.5,0-8.6-0.5-12.2-1.1c-3.8-0.7-7.7-2.3-11.5-5.4c-4.1-3.6-7-7.4-8.6-11.7
						c-1.6-4.3-2.3-9-2.3-14.7V116c-0.2-4.5,0.5-8.6,1.4-12.2c0.9-3.6,3.2-7,6.3-10.2c3.6-3.6,7.2-5.9,11.1-7
						c3.8-0.9,7.9-1.4,12.6-1.4h45.4v7h-44c-7.9,0-14,1.6-18.3,4.7c-4.5,3.6-7,9.5-7,18v56.4c0,3.8,0.7,7.9,1.8,11.5
						c1.1,3.8,3.4,7,6.3,9.7c3.2,2.3,6.5,3.8,9.5,4.5c3.4,0.7,6.8,0.9,10.4,0.9h42.2v7L940.2,205.4L940.2,205.4L940.2,205.4z"/>
					<path class="st3" d="M1105.3,172.6c0,4.5-0.5,8.6-0.9,12c-0.9,3.8-2.9,7.4-5.9,11.1c-6.1,6.5-13.8,9.7-23,9.5h-35.2
						c-9,0-16.5-2.7-22.3-8.3c-5.9-5.4-8.8-12.9-8.8-22.3v-18.3c0.5-20.5,10.6-31.1,30.7-31.6h58.7v-8.1c0-6.5-2-12.4-5.6-17.4
						c-2.3-3.2-5.4-5.4-8.6-6.5c-3.4-0.7-7-1.4-11.1-1.4h-64.1v-7h60.7c5.4,0,10.6,0.5,15.1,1.1c2.3,0.5,4.5,1.4,6.5,2.7
						c2.3,1.1,3.8,3.2,5.9,5.4c5.4,7,8.1,15.1,8.1,24.1L1105.3,172.6L1105.3,172.6L1105.3,172.6z M1098.1,132h-59.3
						c-7,0.2-12.6,2.3-16.7,6.5c-4.1,4.3-6.1,10.2-6.1,17.8v18c0,3.6,0.5,6.8,1.1,9.7c0.7,2.9,2.5,5.6,5.4,8.1
						c5.2,4.3,10.8,6.3,16.9,6.3h35.9c14.9-0.2,22.6-8.1,22.6-23.9V132H1098.1z"/>
					<path class="st3" d="M1171.4,92.1c-16.2,0.5-24.6,9.3-24.1,27.1v86.4h-7v-86.4c-0.5-22.6,10.4-34.1,32.5-34.1h7.9v7H1171.4z"/>
					<path class="st3" d="M-43.3,81.3c2.3-0.9,4.7-1.8,7-2.3c4.3-20.3,22.3-35.6,44-35.6s39.5,15.3,44,35.6c6.8,1.1,12,3.8,16.2,7.9
						c0.2-3.8,0-7.7-0.5-11.3C64.7,44.9,39,20.8,7.7,20.8c-32.3,0-58.7,25.5-60,57.8c-0.2,2.7-0.2,5.6-0.2,8.6
						C-50.1,84.7-47,82.8-43.3,81.3z"/>
					<path class="st3" d="M42.4,85.8h-71.7c-3.6,0-7,0.7-10.8,2.3c-3.6,1.6-6.5,3.4-8.8,5.6c-4.5,5.4-6.8,13.1-7,23.7v56.2
						c0.2,10.4,2.3,18,7,23.7c2.3,2.3,5.4,4.1,8.8,5.6c3.8,1.6,7.2,2.3,10.8,2.3h72c18.5-0.2,28.2-10.4,28.4-30.5V116
						C70.6,95.9,61.1,86,42.4,85.8z"/>
					<path class="st3" d="M1297.8,172c-0.7,22.8-12.9,34.1-36.3,33.4h-26.2c-5.4,0-10.4-0.5-14.7-1.4c-4.5-1.1-8.8-3.8-13.1-8.3
						c-3.2-3.8-5.2-7.7-5.9-11.5c-0.9-3.8-1.6-8.6-1.4-13.1v-51.7c0.5-23.2,12-34.7,35-34.5h55.3V45.6h7L1297.8,172L1297.8,172z
						 M1290.8,92.1h-56c-3.8,0-7.7,0.5-10.8,1.4c-3.4,0.7-6.8,2.7-9.9,6.1c-2.9,3.2-4.7,6.1-5.4,9c-0.9,3.2-1.6,6.8-1.4,11.1v55.1
						c0,9.3,2.5,15.3,8.1,18.7c2.5,1.6,5.4,2.7,8.8,3.6c3.4,0.7,7,1.4,10.8,1.4h24.4c9,0,16.5-2.3,22.3-6.3
						c5.6-3.8,8.6-10.8,8.8-20.8L1290.8,92.1L1290.8,92.1L1290.8,92.1z"/>
				</g>
				<path class="st4" d="M78.3,57.1l255.2,0l0,0c7,0,13.4,2.9,18,7.5c4.6,4.6,7.5,11,7.5,18l0,0l0,15.2c14.4-3.8,59.1-14.1,77-2.2
					c19.8,13.1,80.9,83.7,81.1,83.9l0.2,0.2l58.3,72.7l-9,7.2l-58.3-72.7l0,0c-3.2-3.7-60.6-69.8-78.6-81.7
					c-15.3-10.2-62.1,2.2-70.6,4.6l0,20.2c6.7,2.6,13.5,5.4,20.4,8.1c17.3,6.9,34.6,13.7,49.3,19.3l-4.1,10.8
					c-13.7-5.3-31.6-12.3-49.4-19.4c-34.9-13.8-69.8-27.7-77.4-29.2c-2.1-0.4-5.2,0.5-8.3,2.4c-2.9,1.8-5.8,4.4-7.8,7.5
					c-1.9,2.9-3,6.2-2.7,9.7l0,0c0.3,3.6,2,7.5,5.8,11.7c19.5,21.3,127.6,80.6,127.9,80.7l2.6,3c0.1,0.1,18.7,51.2,45.3,59.1
					c27.8,8.3,36.5,5.7,36.5,5.6l3.1,11.1c0,0-11.9,3.5-42.9-5.7c-13.4-4-24.8-16.1-33.5-28.8c-4.6,2.5-8.8,4.6-12.7,6.3
					c-8.6,3.8-15.8,6-23.3,7c-7.4,1-15.2,1-24.6-2.1c-9-2.9-19.4-8.7-32.5-19.1c-3.4-2.7-5.5-5.8-6.5-9c-1.1-3.4-1-6.9,0-10.2
					c0.1-0.5,0.3-1,0.5-1.5l-246.3,0c-7,0-13.4-2.9-18-7.5c-4.6-4.6-7.5-11-7.5-18l0-139.3c0-7,2.9-13.4,7.5-18
					C64.9,59.9,71.3,57.1,78.3,57.1L78.3,57.1z M344.5,124.3L344.5,124.3c-15.1-5.9-28.2-10.9-36.6-13.7
					C316.3,113.4,329.4,118.4,344.5,124.3z M344.5,87l0-4.4l0,0L344.5,87z M333.7,71.6l-0.1,0l0,0l-255.2,0c-0.7,0-1.4,0.1-2.1,0.2
					c0.7-0.1,1.4-0.2,2.1-0.2l255.2,0L333.7,71.6z M68,78.6c-0.1,0.1-0.1,0.2-0.1,0.4C67.9,78.9,68,78.7,68,78.6z M67.8,79.4
					c-0.3,1-0.5,2-0.5,3.1l0,139.3l0,0l0-139.3C67.3,81.4,67.5,80.4,67.8,79.4z M234.7,232.9l98.8,0l0,0L234.7,232.9L234.7,232.9z
					 M333.6,232.9c0.1,0,0.3,0,0.4,0C333.9,232.9,333.8,232.9,333.6,232.9z M339.3,231.2c0.7-0.4,1.4-1,2-1.6l0.2-0.2l-0.2,0.2
					C340.7,230.2,340,230.8,339.3,231.2L339.3,231.2z M320.5,191c-0.9-0.5-1.7-1.1-2.6-1.6L320.5,191z M315.4,187.7
					c-0.8-0.5-1.7-1.1-2.5-1.6L315.4,187.7z M311.6,185.3c-0.8-0.5-1.6-1.1-2.4-1.6C310,184.2,310.8,184.7,311.6,185.3z M301,178.2
					c-1.1-0.8-2.2-1.5-3.3-2.3C298.7,176.7,299.8,177.4,301,178.2z M295.6,174.4c-0.7-0.5-1.4-1-2.1-1.5L295.6,174.4z M288.7,169.5
					c-0.6-0.5-1.2-0.9-1.8-1.4C287.5,168.5,288.1,169,288.7,169.5z M268.2,131.3c0.1-0.3,0.1-0.5,0.2-0.8
					C268.3,130.8,268.3,131,268.2,131.3z M275.6,118.3c0.2-0.2,0.4-0.4,0.5-0.6C276,117.9,275.8,118.1,275.6,118.3z M278.6,115.5
					c0.4-0.4,0.9-0.7,1.4-1.1C279.5,114.8,279,115.1,278.6,115.5z M280,114.4c0.3-0.2,0.5-0.4,0.8-0.6
					C280.5,114,280.2,114.2,280,114.4z M280.8,113.8c0.2-0.1,0.4-0.3,0.6-0.4C281.2,113.5,281,113.7,280.8,113.8z M281.4,113.4
					c0.3-0.2,0.7-0.5,1-0.7C282,112.9,281.7,113.2,281.4,113.4z M282.4,112.7c0.3-0.2,0.7-0.4,1-0.6c0.2-0.1,0.4-0.2,0.5-0.3
					l-0.5,0.3C283.1,112.3,282.7,112.5,282.4,112.7z M359,214.3l0,7.6c0,4.5-1.2,8.7-3.3,12.4c6.4,4.5,16.9,11,24.9,11.8
					c6.1,0.6,15.8-2.6,23.8-5.9C397.7,236.5,379.7,226.5,359,214.3L359,214.3z M423.6,275.7c-0.2-0.4-0.5-0.7-0.7-1.1
					C423.2,275,423.4,275.4,423.6,275.7z M417.6,266.1c-3.5-6.1-6.4-11.8-8.6-16.5l0.4,0.9c-9.5,3.9-21.6,7.9-29.9,7.1
					c-11-1-24.5-9.6-31.7-14.7c-2.8,2-6.1,3.4-9.6,4c-0.2,0.2-0.4,0.4-0.5,0.7c-1.2,1.5-2,3-2.5,4.5c-0.3,1.2-0.4,2.4-0.1,3.4
					c0.4,1.2,1.2,2.4,2.7,3.5c11.9,9.5,21.1,14.6,28.9,17.2c7.4,2.4,13.5,2.4,19.4,1.7c6.4-0.9,12.6-2.8,20.1-6.1
					C409.8,270.2,413.5,268.3,417.6,266.1L417.6,266.1z M107.8,130.5l42.6-0.3c2.6,0,4.7,2.1,4.7,4.6l0.2,28.8
					c0,2.6-2.1,4.7-4.6,4.7l-42.6,0.3c-2.6,0-4.7-2.1-4.7-4.6l-0.2-28.8C103.1,132.7,105.2,130.5,107.8,130.5L107.8,130.5z
					 M201.3,206.2c0-3.2,2.5-5.8,5.7-5.8l33.6-0.2c3.2,0,5.8,2.5,5.8,5.7c0,3.2-2.5,5.8-5.7,5.8l-33.6,0.2
					C204,211.9,201.4,209.4,201.3,206.2z M93.4,200.7l98-0.6c3.2,0,5.8,2.5,5.8,5.7c0,3.2-2.5,5.8-5.7,5.8l-98,0.6
					c-3.2,0-5.8-2.5-5.8-5.7C87.6,203.4,90.2,200.8,93.4,200.7z"/>
			</g>
			
				<linearGradient id="SVGID_3_" gradientUnits="userSpaceOnUse" x1="285" y1="-497.2603" x2="285" y2="-810.1719" gradientTransform="matrix(1 0 0 -1 0 -492.4652)">
				<stop  offset="4.050926e-03" style="stop-color:#000E60;stop-opacity:0"/>
				<stop  offset="0.9916" style="stop-color:#000E60"/>
			</linearGradient>
			<rect x="0" y="-0.8" class="st5" width="570" height="269.9"/>
			<path class="st6" d="M323.2,72.3l0,76.8l0,0c0,2.1-0.9,4-2.3,5.4c-1.4,1.4-3.3,2.3-5.4,2.3l0,0l-4.6,0c1.1,4.3,4.2,17.8,0.7,23.2
				c-4,6-25.2,24.3-25.3,24.4l-0.1,0L264.4,222l-2.2-2.7l21.9-17.6l0,0c1.1-1,21-18.2,24.6-23.7c3.1-4.6-0.7-18.7-1.4-21.2l-6.1,0
				c-0.8,2-1.6,4.1-2.4,6.1c-2.1,5.2-4.1,10.4-5.8,14.8l-3.2-1.2c1.6-4.1,3.7-9.5,5.8-14.9c4.2-10.5,8.3-21,8.8-23.3
				c0.1-0.6-0.2-1.6-0.7-2.5c-0.5-0.9-1.3-1.7-2.2-2.3c-0.9-0.6-1.9-0.9-2.9-0.8l0,0c-1.1,0.1-2.3,0.6-3.5,1.7
				c-6.4,5.9-24.2,38.4-24.3,38.5l-0.9,0.8c0,0-15.4,5.6-17.8,13.6c-2.5,8.4-1.7,11-1.7,11l-3.3,0.9c0,0-1.1-3.6,1.7-12.9
				c1.2-4,4.8-7.5,8.7-10.1c-0.8-1.4-1.4-2.7-1.9-3.8c-1.2-2.6-1.8-4.7-2.1-7c-0.3-2.2-0.3-4.6,0.6-7.4c0.9-2.7,2.6-5.8,5.8-9.8
				c0.8-1,1.7-1.6,2.7-2c1-0.3,2.1-0.3,3.1,0c0.2,0,0.3,0.1,0.5,0.2l0-74.1c0-2.1,0.9-4,2.3-5.4c1.4-1.4,3.3-2.3,5.4-2.3l41.9,0
				c2.1,0,4,0.9,5.4,2.3C322.4,68.3,323.2,70.2,323.2,72.3L323.2,72.3z M303,152.5L303,152.5c1.8-4.5,3.3-8.5,4.1-11
				C306.3,144,304.8,147.9,303,152.5z M314.2,152.5l1.3,0l0,0L314.2,152.5z M318.9,149.2L318.9,149.2L318.9,149.2l0-76.8
				c0-0.2,0-0.4-0.1-0.6c0,0.2,0.1,0.4,0.1,0.6L318.9,149.2L318.9,149.2z M316.7,69.2c0,0-0.1,0-0.1,0
				C316.7,69.2,316.7,69.2,316.7,69.2z M316.5,69.2c-0.3-0.1-0.6-0.1-0.9-0.1l-41.9,0l0,0l41.9,0C315.9,69,316.2,69.1,316.5,69.2z
				 M270.3,119.4l0,29.7l0,0L270.3,119.4L270.3,119.4z M270.3,149.2c0,0,0,0.1,0,0.1C270.3,149.3,270.3,149.2,270.3,149.2z
				 M270.8,150.9c0.1,0.2,0.3,0.4,0.5,0.6l0.1,0.1l-0.1-0.1C271.1,151.3,271,151.1,270.8,150.9L270.8,150.9z M282.9,145.2
				c0.2-0.3,0.3-0.5,0.5-0.8L282.9,145.2z M283.9,143.7c0.2-0.3,0.3-0.5,0.5-0.8L283.9,143.7z M284.6,142.6c0.2-0.2,0.3-0.5,0.5-0.7
				C285,142.1,284.8,142.3,284.6,142.6z M286.8,139.4c0.2-0.3,0.5-0.7,0.7-1C287.2,138.7,287,139,286.8,139.4z M287.9,137.7
				c0.1-0.2,0.3-0.4,0.4-0.6L287.9,137.7z M289.4,135.7c0.1-0.2,0.3-0.4,0.4-0.5C289.7,135.3,289.5,135.5,289.4,135.7z M300.9,129.5
				c0.1,0,0.2,0,0.2,0.1C301,129.5,301,129.5,300.9,129.5z M304.8,131.7c0.1,0.1,0.1,0.1,0.2,0.2
				C304.9,131.8,304.9,131.8,304.8,131.7z M305.6,132.6c0.1,0.1,0.2,0.3,0.3,0.4C305.9,132.9,305.8,132.8,305.6,132.6z M306,133
				c0.1,0.1,0.1,0.2,0.2,0.2C306.1,133.2,306,133.1,306,133z M306.2,133.3c0,0.1,0.1,0.1,0.1,0.2
				C306.2,133.4,306.2,133.3,306.2,133.3z M306.3,133.5c0.1,0.1,0.1,0.2,0.2,0.3C306.4,133.7,306.4,133.6,306.3,133.5z M306.5,133.8
				c0.1,0.1,0.1,0.2,0.2,0.3c0,0.1,0.1,0.1,0.1,0.2l-0.1-0.2C306.6,134,306.6,133.9,306.5,133.8z M275.9,156.8l-2.3,0
				c-1.4,0-2.6-0.4-3.7-1c-1.3,1.9-3.3,5.1-3.5,7.5c-0.2,1.9,0.8,4.7,1.8,7.2C269.2,168.5,272.3,163,275.9,156.8L275.9,156.8z
				 M257.4,176.3c0.1-0.1,0.2-0.1,0.3-0.2C257.6,176.1,257.5,176.2,257.4,176.3z M260.3,174.5c1.8-1.1,3.6-1.9,5-2.6L265,172
				c-1.2-2.9-2.4-6.5-2.1-9c0.3-3.3,2.9-7.4,4.4-9.5c-0.6-0.9-1-1.8-1.2-2.9c-0.1-0.1-0.1-0.1-0.2-0.2c-0.4-0.3-0.9-0.6-1.4-0.7
				c-0.4-0.1-0.7-0.1-1,0c-0.3,0.1-0.7,0.4-1.1,0.8c-2.8,3.6-4.4,6.4-5.2,8.7c-0.7,2.2-0.7,4.1-0.5,5.8c0.3,1.9,0.8,3.8,1.8,6.1
				C259.1,172.1,259.7,173.2,260.3,174.5L260.3,174.5z M301.1,81.2l0.1,12.8c0,0.8-0.6,1.4-1.4,1.4l-8.7,0.1c-0.8,0-1.4-0.6-1.4-1.4
				l-0.1-12.8c0-0.8,0.6-1.4,1.4-1.4l8.7-0.1C300.5,79.8,301.1,80.4,301.1,81.2L301.1,81.2z M278.4,109.4c1,0,1.7,0.8,1.7,1.7
				l0.1,10.1c0,1-0.8,1.7-1.7,1.7c-1,0-1.7-0.8-1.7-1.7l-0.1-10.1C276.6,110.2,277.4,109.4,278.4,109.4z M280,76.9l0.2,29.5
				c0,1-0.8,1.7-1.7,1.7c-1,0-1.7-0.8-1.7-1.7l-0.2-29.5c0-1,0.8-1.7,1.7-1.7C279.2,75.2,280,75.9,280,76.9z"/>
		</g>
	</g>
	<g id="Calque_2">
		<g id="Calque_5_2_">
			<g>
				<defs>
					<rect id="SVGID_4_" x="-1201.7" y="-318.2" width="1080" height="1080"/>
				</defs>
				<clipPath id="SVGID_5_">
					<use xlink:href="#SVGID_4_"  style="overflow:visible;"/>
				</clipPath>
				<g id="extra_14_" class="st7">
					<polygon class="st0" points="-514.6,-318.2 -569.4,-318.2 -735.4,-318.2 -785.2,-318.2 -927.5,-318.2 -999.5,-318.2 
						-1201.7,-318.2 -1201.7,761.8 -704.9,761.8 -597.2,761.8 -355.8,761.8 -276.3,761.8 -121.7,761.8 -121.7,-318.2 					"/>
				</g>
				<g id="extra_2_" class="st7">
					<polygon class="st8" points="-514.6,-318.2 -569.4,-318.2 -735.4,-318.2 -785.2,-318.2 -927.5,-318.2 -999.5,-318.2 
						-1201.7,-318.2 -1201.7,761.8 -704.9,761.8 -597.2,761.8 -355.8,761.8 -276.3,761.8 -121.7,761.8 -121.7,-318.2 					"/>
				</g>
				<g class="st9">
					<g class="st3">
						<g>
							<path d="M-923.3,166.6c0.6-27.5,6.1-48.8,18.9-64.1c6.1-6.1,14.6-11,23.8-15.3c10.4-4.3,19.5-6.1,29.3-6.1h114.1
								c50,0.6,75.7,27.5,76.9,82.4v168.4c-0.6,18.9-7.9,36-23.2,50c-14.6,14.6-31.7,22.6-51.9,23.2h-107.4v121.4h-80.5V166.6z
								 M-740.8,182.4c-0.6-12.8-6.1-18.9-18.3-19.5h-62.2c-14.6,1.2-22.6,9.2-23.2,23.8v111.7c0.6,15.3,8.5,23.2,25,23.8h56.7
								c6.1,0,10.4-1.8,14.6-6.7c4.3-3.1,6.1-7.3,6.1-12.8L-740.8,182.4L-740.8,182.4L-740.8,182.4z"/>
							<path d="M-413.8,180.6c0.6-12.2-6.7-18.3-21.4-17.7h-160.5V81.1h181.2c52.5,1.2,79.3,26.2,80.5,76.9v170.8
								c-0.6,22-6.7,39.7-19.5,53.7c-13.4,14.6-31.1,22.6-51.9,22.6h-109.2c-53.1-0.6-80.5-24.4-81.1-73.2V266
								c0.6-50.6,26.2-76.3,76.9-76.9h106.2L-413.8,180.6L-413.8,180.6L-413.8,180.6z M-517.5,306.3c0,4.9,1.8,8.5,6.1,11
								c3.7,3.1,8.5,5.5,14.6,5.5h61c14,0,21.4-5.5,21.4-15.9v-23.2c0-12.2-7.3-18.9-22-18.9h-60.4c-7.9,0-13.4,1.2-16.5,3.7
								c-2.4,3.1-4.3,9.2-4.3,17.7V306.3L-517.5,306.3z"/>
							<path d="M-110.6,444.2c6.1-0.6,11.6-2.4,15.9-6.7c4.3-3.7,6.1-7.9,6.1-13.4v-7.3v-11.6h-101.9c-13.4,0-23.8-1.8-31.7-5.5
								c-8.5-3.1-16.5-9.2-25-17.1c-7.9-8.5-14-17.7-17.1-26.8c-3.7-8.5-5.5-19.5-5.5-32.9v-241h79.9v215.4
								c0,17.7,6.7,26.2,21.4,26.2h56.1c6.7,0,12.8-1.8,17.7-6.7c4.9-3.7,6.7-8.5,6.7-14v-9.2V80.5h79.3v356.3
								c-0.6,26.8-7.3,47.6-20.1,63.5c-13.4,15.9-31.1,24.4-54.3,24.4h-186.1V443h158.6L-110.6,444.2L-110.6,444.2z"/>
							<path d="M53.6,322.8h142.2c12.8-0.6,19.5-6.1,20.1-15.3v-7.3c0-1.8-0.6-4.3-1.8-6.7c-3.1-6.1-6.7-9.2-11.6-9.2h-8.5h-61.6
								c-20.7-0.6-39-7.3-53.7-21.4c-14.6-12.8-23.2-28.7-23.2-47.6v-61.6c1.2-48.2,26.8-72,77.5-73.2h164.7v81.8H157.9
								c-16.5,0-24.4,4.9-24.4,14.6v8.5c0,10.4,8.5,15.3,25,15.3h70.2c18.9,0.6,34.8,7.3,48.2,22c13.4,14,20.1,31.1,20.7,50v59.8
								c-0.6,17.1-7.9,33.6-23.2,50c-7.3,7.9-14.6,14-22.6,17.1c-7.3,3.1-18.3,4.3-31.1,4.3H54.2L53.6,322.8L53.6,322.8L53.6,322.8z
								"/>
							<path d="M536.8,180.6c0.6-12.2-6.7-18.3-21.4-17.7H355V81.1h181.2c52.5,1.2,79.3,26.2,80.5,76.9v170.8
								c-0.6,22-6.7,39.7-19.5,53.7c-13.4,14.6-31.1,22.6-51.9,22.6H436.1c-53.1-0.6-80.5-24.4-81.1-73.2V266
								c0.6-50.6,26.2-76.3,76.9-76.9H538L536.8,180.6L536.8,180.6L536.8,180.6z M433.1,306.3c0,4.9,1.8,8.5,6.1,11
								c3.7,3.1,8.5,5.5,14.6,5.5h61c14,0,20.7-5.5,21.4-15.9v-23.2c0-12.2-7.3-18.9-22-18.9h-60.4c-7.9,0-13.4,1.2-16.5,3.7
								c-2.4,3.1-4.3,9.2-4.3,17.7L433.1,306.3L433.1,306.3z"/>
							<path d="M680.8,34.2c0.6-22.6,8.5-39.7,24.4-53.1c15.3-13.4,35.4-20.1,61-20.7h50.6v79.3h-31.1c-17.1,0.6-25.6,8.5-25.6,23.8
								v17.7h56.1v81.8h-56.1v241.6h-79.9L680.8,34.2L680.8,34.2z"/>
							<path d="M944.4,294.1v5.5c0,6.1,1.8,11.6,5.5,15.3c2.4,4.9,6.1,7.3,10.4,7.3h10.4h153.1v81.8H949.9
								c-15.9,0-28.1-1.8-37.2-4.3c-9.8-3.1-18.3-8.5-25.6-15.3c-8.5-8.5-14.6-17.7-17.7-26.8c-3.1-9.8-4.9-22-4.9-37.8l-0.6-164.1
								c1.2-49.4,26.8-74.4,77.5-75.7h107.4c49.4,1.2,75,26.8,75.7,78.1v64.7L944.4,294.1z M1043.8,178.8v-1.8
								c0-4.3-1.8-7.9-5.5-10.4c-3.7-2.4-8.5-3.7-14-3.7h-55.5c-6.7,0-12.8,1.8-17.7,6.1c-5.5,3.7-8.5,8.5-8.5,14.6v32.9
								L1043.8,178.8z"/>
							<path d="M1293.4,404.5c-12.2,0-23.2-1.2-32.9-3.1c-10.4-1.8-20.7-6.1-31.1-14.6c-11-9.8-18.9-20.1-23.2-31.7
								c-4.3-11.6-6.1-24.4-6.1-39.7V162.9c-0.6-12.2,1.2-23.2,3.7-32.9s8.5-18.9,17.1-27.5c9.8-9.8,19.5-15.9,29.9-18.9
								c10.4-2.4,21.4-3.7,34.2-3.7h122.6v18.9h-119c-21.4,0-37.8,4.3-49.4,12.8c-12.2,9.8-18.9,25.6-18.9,48.8V313
								c0,10.4,1.8,21.4,4.9,31.1c3.1,10.4,9.2,18.9,17.1,26.2c8.5,6.1,17.7,10.4,25.6,12.2c9.2,1.8,18.3,2.4,28.1,2.4h114.1v18.9
								L1293.4,404.5L1293.4,404.5L1293.4,404.5z"/>
							<path d="M1740,316.1c0,12.2-1.2,23.2-2.4,32.3c-2.4,10.4-7.9,20.1-15.9,29.9c-16.5,17.7-37.2,26.2-62.2,25.6h-95.2
								c-24.4,0-44.5-7.3-60.4-22.6c-15.9-14.6-23.8-34.8-23.8-60.4v-49.4c1.2-55.5,28.7-84.2,83-85.4h158.6v-22
								c0-17.7-5.5-33.6-15.3-47c-6.1-8.5-14.6-14.6-23.2-17.7c-9.2-1.8-18.9-3.7-29.9-3.7h-173.3V76.9h164.1
								c14.6,0,28.7,1.2,40.9,3.1c6.1,1.2,12.2,3.7,17.7,7.3c6.1,3.1,10.4,8.5,15.9,14.6c14.6,18.9,22,40.9,22,65.3L1740,316.1
								L1740,316.1L1740,316.1z M1720.5,206.2H1560c-18.9,0.6-34.2,6.1-45.2,17.7c-11,11.6-16.5,27.5-16.5,48.2v48.8
								c0,9.8,1.2,18.3,3.1,26.2c1.8,7.9,6.7,15.3,14.6,22c14,11.6,29.3,17.1,45.8,17.1h97c40.3-0.6,61-22,61-64.7V206.2H1720.5z"/>
							<path d="M1918.8,98.2c-43.9,1.2-66.5,25-65.3,73.2v233.7h-18.9V171.4c-1.2-61,28.1-92.1,87.9-92.1h21.4v18.9H1918.8z"/>
							<path d="M2260.5,314.2c-1.8,61.6-34.8,92.1-98.2,90.3h-70.8c-14.6,0-28.1-1.2-39.7-3.7c-12.2-3.1-23.8-10.4-35.4-22.6
								c-8.5-10.4-14-20.7-15.9-31.1c-2.4-10.4-4.3-23.2-3.7-35.4V172.1c1.2-62.8,32.3-94,94.6-93.4h149.5V-27.5h18.9L2260.5,314.2
								L2260.5,314.2z M2241.5,98.2h-151.3c-10.4,0-20.7,1.2-29.3,3.7c-9.2,1.8-18.3,7.3-26.8,16.5c-7.9,8.5-12.8,16.5-14.6,24.4
								c-2.4,8.5-4.3,18.3-3.7,29.9v148.9c0,25,6.7,41.5,22,50.6c6.7,4.3,14.6,7.3,23.8,9.8c9.2,1.8,18.9,3.7,29.3,3.7h65.9
								c24.4,0,44.5-6.1,60.4-17.1c15.3-10.4,23.2-29.3,23.8-56.1L2241.5,98.2L2241.5,98.2L2241.5,98.2z"/>
							<path d="M-1366.2,68.9c6.1-2.4,12.8-4.9,18.9-6.1c11.6-54.9,60.4-96.4,119-96.4c58.6,0,106.8,41.5,119,96.4
								c18.3,3.1,32.3,10.4,43.9,21.4c0.6-10.4,0-20.7-1.2-30.5c-7.3-83-76.9-148.3-161.7-148.3c-87.3,0-158.6,68.9-162.3,156.2
								c-0.6,7.3-0.6,15.3-0.6,23.2C-1384.5,78.1-1376,73.2-1366.2,68.9z"/>
							<path d="M-1134.4,81.1h-194c-9.8,0-18.9,1.8-29.3,6.1c-9.8,4.3-17.7,9.2-23.8,15.3c-12.2,14.6-18.3,35.4-18.9,64.1v151.9
								c0.6,28.1,6.1,48.8,18.9,64.1c6.1,6.1,14.6,11,23.8,15.3c10.4,4.3,19.5,6.1,29.3,6.1h194.6c50-0.6,76.3-28.1,76.9-82.4V162.9
								C-1058.1,108.6-1083.7,81.8-1134.4,81.1z"/>
							<polygon class="st8" points="-514.6,-318.2 -569.4,-318.2 -735.4,-318.2 -785.2,-318.2 -927.5,-318.2 -999.5,-318.2 
								-1201.7,-318.2 -1201.7,761.8 -704.9,761.8 -597.2,761.8 -355.8,761.8 -276.3,761.8 -121.7,761.8 -121.7,-318.2 							"/>
						</g>
					</g>
				</g>
				<path class="st10" d="M-1356.4-127.8l851.7,0.1l0,0c23.3,0,44.6,9.6,60,25c15.4,15.4,25,36.6,25,60l0,0l0,50.8
					c48.2-12.6,197.3-46.9,256.9-7.4c66.1,43.9,270,279.4,270.6,280.1l0.5,0.6l194.7,242.6l-30.1,24.1L78.1,305.5l0,0
					C67.3,293-124.3,72.5-184.2,32.7C-235.3-1.2-391.3,40.1-419.8,48l0,67.4c22.3,8.8,45.2,17.9,68.1,27
					c57.7,22.9,115.5,45.8,164.4,64.6l-13.8,36c-45.8-17.5-105.3-41.2-164.9-64.8C-482.3,132-598.7,85.8-624.3,80.6
					c-6.9-1.4-17.3,1.8-27.9,8.1c-9.8,5.9-19.2,14.5-25.9,24.9c-6.2,9.6-9.9,20.7-9,32.4l0,0.1c0.9,12,6.6,25.2,19.3,39
					c65.1,71,425.9,268.8,427,269.4l8.8,10.1c0.2,0.5,62.5,170.7,151.3,197.2c92.7,27.7,121.9,18.9,122,18.8l10.3,37.1
					c-0.1,0-39.7,11.8-143.3-19.2c-44.7-13.4-82.7-53.7-111.9-96.2c-15.5,8.4-29.5,15.4-42.4,21.2c-28.6,12.8-52.6,20.2-77.8,23.5
					c-24.9,3.3-50.7,3.2-82-7c-30-9.8-64.8-29-108.5-63.9c-11.3-9-18.3-19.3-21.7-30.2c-3.7-11.4-3.4-22.9-0.2-34
					c0.5-1.7,1-3.3,1.7-5l-822.1-0.1c-23.3,0-44.6-9.6-60-25c-15.4-15.4-25-36.7-25-60l0.1-464.9c0-23.3,9.5-44.6,25-60
					S-1379.7-127.8-1356.4-127.8L-1356.4-127.8z M-468,96.5L-468,96.5c-50.3-19.7-94-36.3-122.1-45.8
					C-562.1,60.2-518.3,76.8-468,96.5z M-468-28l0-14.7l0,0L-468-28z M-504.2-79.4l-0.5,0l0,0l-851.7-0.1c-2.4,0-4.7,0.2-6.9,0.7
					c2.2-0.4,4.6-0.7,6.9-0.7l851.7,0.1L-504.2-79.4z M-1390.7-55.8c-0.2,0.4-0.3,0.8-0.5,1.3C-1391-55-1390.9-55.4-1390.7-55.8z
					 M-1391.6-53.3c-1,3.3-1.5,6.8-1.5,10.5l-0.1,464.9l0,0l0.1-464.9C-1393.1-46.5-1392.6-50-1391.6-53.3z M-834.4,458.9l329.6,0.1
					l0,0L-834.4,458.9L-834.4,458.9z M-504.3,459c0.5,0,0.9,0,1.4,0C-503.4,458.9-503.9,459-504.3,459z M-485.4,453.4
					c2.4-1.5,4.6-3.2,6.5-5.2l0.6-0.6l-0.6,0.6C-480.8,450.2-483,451.9-485.4,453.4L-485.4,453.4z M-548.2,319.1
					c-2.9-1.8-5.8-3.6-8.6-5.5L-548.2,319.1z M-565.3,308.2c-2.8-1.8-5.6-3.6-8.4-5.4L-565.3,308.2z M-577.8,300.1
					c-2.7-1.8-5.5-3.6-8.2-5.3C-583.3,296.6-580.6,298.3-577.8,300.1z M-613.3,276.5c-3.7-2.6-7.4-5.1-11-7.6
					C-620.8,271.4-617.1,273.9-613.3,276.5z M-631.4,263.9c-2.3-1.6-4.6-3.3-6.8-4.9L-631.4,263.9z M-654.3,247.3
					c-2-1.5-4-3-5.9-4.5C-658.3,244.3-656.3,245.8-654.3,247.3z M-722.7,120c0.2-0.9,0.5-1.8,0.7-2.6
					C-722.3,118.2-722.5,119.1-722.7,120z M-697.8,76.7c0.6-0.6,1.2-1.3,1.8-1.9C-696.7,75.4-697.2,76-697.8,76.7z M-688,67.3
					c1.5-1.3,3-2.5,4.6-3.7C-685,64.8-686.5,66-688,67.3z M-683.4,63.6c0.9-0.7,1.8-1.3,2.7-2C-681.7,62.3-682.6,62.9-683.4,63.6z
					 M-680.8,61.6c0.7-0.5,1.3-0.9,2-1.4C-679.4,60.7-680.1,61.2-680.8,61.6z M-678.8,60.2c1.1-0.8,2.2-1.5,3.4-2.3
					C-676.5,58.7-677.6,59.4-678.8,60.2z M-675.4,57.9c1.1-0.7,2.3-1.4,3.4-2.1c0.6-0.3,1.2-0.7,1.8-1l-1.8,1
					C-673.1,56.5-674.2,57.2-675.4,57.9z M-419.8,397l0,25.3c0,15-4,29.2-10.9,41.5c21.2,14.9,56.4,36.8,83,39.3
					c20.5,1.9,52.6-8.7,79.4-19.7C-290.4,471.1-350.7,437.5-419.8,397L-419.8,397z M-203.9,602c-0.8-1.2-1.6-2.4-2.4-3.6
					C-205.5,599.6-204.7,600.8-203.9,602z M-224.1,569.9c-11.8-20.2-21.4-39.5-28.6-55.2l1.4,3c-31.7,13-72.1,26.2-99.9,23.7
					c-36.6-3.4-81.8-32.1-105.7-49.1c-9.5,6.5-20.4,11.2-32.1,13.4c-0.6,0.7-1.2,1.4-1.8,2.2c-3.9,4.9-6.8,10-8.3,15
					c-1.2,4-1.4,7.9-0.2,11.5c1.2,3.9,4.1,7.9,9.1,11.8c39.6,31.6,70.4,48.8,96.4,57.3c24.7,8.1,45.1,8.1,64.9,5.5
					c21.4-2.9,42.1-9.2,67.1-20.5C-250.2,583.4-237.8,577.2-224.1,569.9L-224.1,569.9z M-1258,117.4l142.3-0.9
					c8.6-0.1,15.6,6.9,15.7,15.5l0.6,96.2c0,8.6-6.9,15.7-15.5,15.7l-142.3,0.9c-8.6,0.1-15.6-6.9-15.7-15.5l-0.6-96.2
					C-1273.6,124.5-1266.6,117.4-1258,117.4L-1258,117.4z M-945.8,369.9c-0.1-10.6,8.5-19.3,19.1-19.4l112.1-0.7
					c10.6-0.1,19.3,8.5,19.3,19.1c0.1,10.6-8.5,19.3-19.1,19.3l-112.1,0.7C-937.1,389.1-945.7,380.5-945.8,369.9z M-1306,351.7
					l327-2.1c10.6-0.1,19.3,8.5,19.4,19.1c0.1,10.6-8.5,19.3-19.1,19.4l-327,2.1c-10.6,0.1-19.3-8.5-19.3-19.1
					C-1325.2,360.4-1316.7,351.8-1306,351.7z"/>
				
					<linearGradient id="SVGID_6_" gradientUnits="userSpaceOnUse" x1="-661.6505" y1="-196.6478" x2="-661.6505" y2="-1448.4167" gradientTransform="matrix(1 0 0 -1 0 -492.4652)">
					<stop  offset="4.050926e-03" style="stop-color:#000E60;stop-opacity:0"/>
					<stop  offset="0.9916" style="stop-color:#000E60"/>
				</linearGradient>
				<rect x="-1201.7" y="-318.2" class="st11" width="1080" height="1080"/>
			</g>
			<path class="st6" d="M-937.3-54.5l349.8,0l0,0c9.6,0,18.3,3.9,24.6,10.3c6.3,6.3,10.3,15.1,10.3,24.6l0,0l0,20.9
				c19.8-5.2,81-19.3,105.5-3c27.1,18,110.9,114.8,111.1,115l0.2,0.2l80,99.6l-12.4,9.9l-80-99.6l0,0c-4.4-5.1-83.1-95.7-107.7-112
				c-21-13.9-85.1,3-96.8,6.3l0,27.7c9.1,3.6,18.6,7.3,28,11.1c23.7,9.4,47.4,18.8,67.5,26.5l-5.7,14.8
				c-18.8-7.2-43.3-16.9-67.7-26.6c-47.8-19-95.6-37.9-106.1-40.1c-2.8-0.6-7.1,0.7-11.4,3.3c-4,2.4-7.9,6-10.6,10.2
				c-2.5,4-4.1,8.5-3.7,13.3l0,0c0.4,4.9,2.7,10.3,7.9,16c26.7,29.1,174.9,110.4,175.3,110.6l3.6,4.2c0.1,0.2,25.7,70.1,62.1,81
				c38.1,11.4,50.1,7.7,50.1,7.7l4.2,15.3c0,0-16.3,4.9-58.8-7.9c-18.4-5.5-34-22-45.9-39.5c-6.4,3.4-12.1,6.3-17.4,8.7
				c-11.7,5.3-21.6,8.3-31.9,9.7c-10.2,1.4-20.8,1.3-33.7-2.9c-12.3-4-26.6-11.9-44.5-26.2c-4.6-3.7-7.5-7.9-8.9-12.4
				c-1.5-4.7-1.4-9.4-0.1-13.9c0.2-0.7,0.4-1.4,0.7-2.1l-337.6,0c-9.6,0-18.3-3.9-24.6-10.3c-6.3-6.3-10.3-15.1-10.3-24.6l0-190.9
				c0-9.6,3.9-18.3,10.3-24.6C-955.6-50.6-946.9-54.5-937.3-54.5L-937.3-54.5z M-572.4,37.6L-572.4,37.6
				c-20.7-8.1-38.6-14.9-50.2-18.8C-611.1,22.7-593.1,29.5-572.4,37.6z M-572.4-13.5l0-6.1l0,0L-572.4-13.5z M-587.3-34.6l-0.2,0
				l0,0l-349.8-0.1c-1,0-1.9,0.1-2.8,0.3c0.9-0.2,1.9-0.3,2.8-0.3l349.8,0L-587.3-34.6z M-951.4-24.9c-0.1,0.2-0.1,0.3-0.2,0.5
				C-951.5-24.6-951.5-24.8-951.4-24.9z M-951.7-23.9c-0.4,1.4-0.6,2.8-0.6,4.3l0,190.9l0,0l0-190.9
				C-952.4-21.1-952.1-22.5-951.7-23.9z M-722.9,186.5l135.4,0l0,0L-722.9,186.5L-722.9,186.5z M-587.3,186.5c0.2,0,0.4,0,0.6,0
				C-587,186.5-587.2,186.5-587.3,186.5z M-579.6,184.2c1-0.6,1.9-1.3,2.7-2.1l0.3-0.3l-0.3,0.2
				C-577.7,182.9-578.6,183.6-579.6,184.2L-579.6,184.2z M-605.4,129c-1.2-0.7-2.4-1.5-3.5-2.2L-605.4,129z M-612.4,124.6
				c-1.2-0.7-2.3-1.5-3.4-2.2L-612.4,124.6z M-617.5,121.2c-1.1-0.7-2.2-1.5-3.4-2.2C-619.8,119.8-618.7,120.5-617.5,121.2z
				 M-632.1,111.5c-1.5-1.1-3-2.1-4.5-3.1C-635.2,109.5-633.7,110.5-632.1,111.5z M-639.5,106.4c-1-0.7-1.9-1.3-2.8-2L-639.5,106.4z
				 M-648.9,99.5c-0.8-0.6-1.6-1.2-2.4-1.9C-650.6,98.3-649.8,98.9-648.9,99.5z M-677,47.3c0.1-0.4,0.2-0.7,0.3-1.1
				C-676.9,46.5-677,46.9-677,47.3z M-666.8,29.5c0.2-0.3,0.5-0.5,0.7-0.8C-666.3,29-666.6,29.2-666.8,29.5z M-662.8,25.6
				c0.6-0.5,1.2-1,1.9-1.5C-661.5,24.6-662.2,25.1-662.8,25.6z M-660.9,24.1c0.4-0.3,0.7-0.6,1.1-0.8
				C-660.2,23.6-660.6,23.8-660.9,24.1z M-659.8,23.3c0.3-0.2,0.5-0.4,0.8-0.6C-659.3,22.9-659.5,23.1-659.8,23.3z M-659,22.7
				c0.5-0.3,0.9-0.6,1.4-0.9C-658.1,22.1-658.5,22.4-659,22.7z M-657.6,21.8c0.5-0.3,0.9-0.6,1.4-0.9c0.2-0.1,0.5-0.3,0.7-0.4
				l-0.7,0.4C-656.7,21.2-657.1,21.5-657.6,21.8z M-552.7,161l0,10.4c0,6.2-1.6,12-4.5,17c8.7,6.1,23.2,15.1,34.1,16.1
				c8.4,0.8,21.6-3.6,32.6-8.1C-499.5,191.5-524.3,177.7-552.7,161L-552.7,161z M-464,245.2c-0.3-0.5-0.7-1-1-1.5
				C-464.6,244.2-464.3,244.7-464,245.2z M-472.3,232c-4.8-8.3-8.8-16.2-11.7-22.7l0.6,1.2c-13,5.3-29.6,10.8-41,9.7
				c-15-1.4-33.6-13.2-43.4-20.2c-3.9,2.7-8.4,4.6-13.2,5.5c-0.3,0.3-0.5,0.6-0.7,0.9c-1.6,2-2.8,4.1-3.4,6.2
				c-0.5,1.7-0.6,3.3-0.1,4.7c0.5,1.6,1.7,3.2,3.8,4.9c16.3,13,28.9,20,39.6,23.5c10.1,3.3,18.5,3.3,26.6,2.3
				c8.8-1.2,17.3-3.8,27.6-8.4C-483,237.6-477.9,235-472.3,232L-472.3,232z M-896.9,46.2l58.4-0.4c3.5,0,6.4,2.8,6.4,6.4l0.2,39.5
				c0,3.5-2.8,6.4-6.4,6.4l-58.4,0.4c-3.5,0-6.4-2.8-6.4-6.4l-0.2-39.5C-903.3,49.1-900.4,46.2-896.9,46.2L-896.9,46.2z
				 M-768.7,149.9c0-4.4,3.5-7.9,7.8-7.9l46-0.3c4.4,0,7.9,3.5,7.9,7.8c0,4.4-3.5,7.9-7.8,7.9l-46,0.3
				C-765.1,157.8-768.6,154.3-768.7,149.9z M-916.6,142.4l134.3-0.9c4.4,0,7.9,3.5,7.9,7.8c0,4.4-3.5,7.9-7.8,8l-134.3,0.9
				c-4.4,0-7.9-3.5-7.9-7.8C-924.5,146-921,142.5-916.6,142.4z"/>
		</g>
	</g>
	<g id="Calque_10">
	</g>
	<g id="Calque_5_4_">
		<g>
			<defs>
				<path id="SVGID_7_" d="M-716.2,539.9h-264.9c-14.3,0-26-11.6-26-26v-77.4c0-14.3,11.6-26,26-26h264.9c14.3,0,26,11.6,26,26v77.4
					C-690.2,528.3-701.8,539.9-716.2,539.9z"/>
			</defs>
			<clipPath id="SVGID_8_">
				<use xlink:href="#SVGID_7_"  style="overflow:visible;"/>
			</clipPath>
			<g id="extra_8_" class="st12">
				<polygon class="st13" points="-805.5,317.5 -821.6,317.5 -870.3,317.5 -884.9,317.5 -926.6,317.5 -947.7,317.5 -1007.1,317.5 
					-1007.1,634.3 -861.3,634.3 -829.7,634.3 -758.9,634.3 -735.6,634.3 -690.2,634.3 -690.2,317.5 				"/>
			</g>
			<g id="extra_7_" class="st12">
				<polygon class="st8" points="-805.5,317.5 -821.6,317.5 -870.3,317.5 -884.9,317.5 -926.6,317.5 -947.7,317.5 -1007.1,317.5 
					-1007.1,634.3 -861.3,634.3 -829.7,634.3 -758.9,634.3 -735.6,634.3 -690.2,634.3 -690.2,317.5 				"/>
			</g>
			<g class="st14">
				<g class="st3">
					<g>
						<path d="M-925.4,459.7c0.2-8.1,1.8-14.3,5.5-18.8c1.8-1.8,4.3-3.2,7-4.5c3-1.3,5.7-1.8,8.6-1.8h33.5
							c14.7,0.2,22.2,8.1,22.6,24.2v49.4c-0.2,5.5-2.3,10.6-6.8,14.7c-4.3,4.3-9.3,6.6-15.2,6.8h-31.5v35.6h-23.6V459.7z
							 M-871.9,464.4c-0.2-3.8-1.8-5.5-5.4-5.7h-18.3c-4.3,0.4-6.6,2.7-6.8,7v32.8c0.2,4.5,2.5,6.8,7.3,7h16.6c1.8,0,3-0.5,4.3-2
							c1.3-0.9,1.8-2.1,1.8-3.8L-871.9,464.4L-871.9,464.4L-871.9,464.4z"/>
						<path d="M-775.9,463.8c0.2-3.6-2-5.4-6.3-5.2h-47.1v-24h53.2c15.4,0.4,23.3,7.7,23.6,22.6v50.1c-0.2,6.4-2,11.6-5.7,15.8
							c-3.9,4.3-9.1,6.6-15.2,6.6h-32c-15.6-0.2-23.6-7.2-23.8-21.5v-19.3c0.2-14.9,7.7-22.4,22.6-22.6h31.1L-775.9,463.8
							L-775.9,463.8L-775.9,463.8z M-806.3,500.7c0,1.4,0.5,2.5,1.8,3.2c1.1,0.9,2.5,1.6,4.3,1.6h17.9c4.1,0,6.3-1.6,6.3-4.7v-6.8
							c0-3.6-2.1-5.5-6.4-5.5h-17.7c-2.3,0-3.9,0.4-4.8,1.1c-0.7,0.9-1.3,2.7-1.3,5.2V500.7L-806.3,500.7z"/>
						<path d="M-687,541.2c1.8-0.2,3.4-0.7,4.7-2c1.3-1.1,1.8-2.3,1.8-3.9v-2.1v-3.4h-29.9c-3.9,0-7-0.5-9.3-1.6
							c-2.5-0.9-4.8-2.7-7.3-5c-2.3-2.5-4.1-5.2-5-7.9c-1.1-2.5-1.6-5.7-1.6-9.7v-70.7h23.4V498c0,5.2,2,7.7,6.3,7.7h16.5
							c2,0,3.8-0.5,5.2-2c1.4-1.1,2-2.5,2-4.1v-2.7v-62.5h23.3V539c-0.2,7.9-2.1,14-5.9,18.6c-3.9,4.7-9.1,7.2-15.9,7.2h-54.6v-24
							h46.5V541.2L-687,541.2z"/>
						<path d="M-638.8,505.5h41.7c3.8-0.2,5.7-1.8,5.9-4.5v-2.1c0-0.5-0.2-1.3-0.5-2c-0.9-1.8-2-2.7-3.4-2.7h-2.5h-18.1
							c-6.1-0.2-11.5-2.1-15.8-6.3c-4.3-3.8-6.8-8.4-6.8-14V456c0.4-14.1,7.9-21.1,22.7-21.5h48.3v24h-41c-4.8,0-7.2,1.4-7.2,4.3
							v2.5c0,3,2.5,4.5,7.3,4.5h20.6c5.5,0.2,10.2,2.1,14.1,6.4c3.9,4.1,5.9,9.1,6.1,14.7v17.5c-0.2,5-2.3,9.8-6.8,14.7
							c-2.1,2.3-4.3,4.1-6.6,5c-2.1,0.9-5.4,1.3-9.1,1.3h-48.9L-638.8,505.5L-638.8,505.5L-638.8,505.5z"/>
						<path d="M-497,463.8c0.2-3.6-2-5.4-6.3-5.2h-47.1v-24h53.2c15.4,0.4,23.3,7.7,23.6,22.6v50.1c-0.2,6.4-2,11.6-5.7,15.8
							c-3.9,4.3-9.1,6.6-15.2,6.6h-32c-15.6-0.2-23.6-7.2-23.8-21.5v-19.3c0.2-14.9,7.7-22.4,22.6-22.6h31.1L-497,463.8L-497,463.8
							L-497,463.8z M-527.5,500.7c0,1.4,0.5,2.5,1.8,3.2c1.1,0.9,2.5,1.6,4.3,1.6h17.9c4.1,0,6.1-1.6,6.3-4.7v-6.8
							c0-3.6-2.1-5.5-6.4-5.5h-17.7c-2.3,0-3.9,0.4-4.8,1.1c-0.7,0.9-1.3,2.7-1.3,5.2L-527.5,500.7L-527.5,500.7z"/>
						<path d="M-454.8,420.9c0.2-6.6,2.5-11.6,7.2-15.6c4.5-3.9,10.4-5.9,17.9-6.1h14.9v23.3h-9.1c-5,0.2-7.5,2.5-7.5,7v5.2h16.5v24
							h-16.5v70.9H-455L-454.8,420.9L-454.8,420.9z"/>
						<path d="M-377.5,497.1v1.6c0,1.8,0.5,3.4,1.6,4.5c0.7,1.4,1.8,2.1,3,2.1h3h44.9v24h-51c-4.7,0-8.2-0.5-10.9-1.3
							c-2.9-0.9-5.4-2.5-7.5-4.5c-2.5-2.5-4.3-5.2-5.2-7.9c-0.9-2.9-1.4-6.4-1.4-11.1l-0.2-48.2c0.4-14.5,7.9-21.8,22.7-22.2h31.5
							c14.5,0.4,22,7.9,22.2,22.9v19L-377.5,497.1z M-348.3,463.3v-0.5c0-1.3-0.5-2.3-1.6-3c-1.1-0.7-2.5-1.1-4.1-1.1h-16.3
							c-2,0-3.8,0.5-5.2,1.8c-1.6,1.1-2.5,2.5-2.5,4.3v9.7L-348.3,463.3z"/>
						<path d="M-275.1,529.5c-3.6,0-6.8-0.4-9.7-0.9c-3-0.5-6.1-1.8-9.1-4.3c-3.2-2.9-5.5-5.9-6.8-9.3c-1.3-3.4-1.8-7.2-1.8-11.6
							v-44.8c-0.2-3.6,0.4-6.8,1.1-9.7c0.7-2.9,2.5-5.5,5-8.1c2.9-2.9,5.7-4.7,8.8-5.5c3-0.7,6.3-1.1,10-1.1h36v5.5h-34.9
							c-6.3,0-11.1,1.3-14.5,3.8c-3.6,2.9-5.5,7.5-5.5,14.3v44.8c0,3,0.5,6.3,1.4,9.1c0.9,3,2.7,5.5,5,7.7c2.5,1.8,5.2,3,7.5,3.6
							c2.7,0.5,5.4,0.7,8.2,0.7h33.5v5.5L-275.1,529.5L-275.1,529.5L-275.1,529.5z"/>
						<path d="M-144,503.6c0,3.6-0.4,6.8-0.7,9.5c-0.7,3-2.3,5.9-4.7,8.8c-4.8,5.2-10.9,7.7-18.3,7.5h-27.9
							c-7.2,0-13.1-2.1-17.7-6.6c-4.7-4.3-7-10.2-7-17.7v-14.5c0.4-16.3,8.4-24.7,24.3-25.1h46.5V459c0-5.2-1.6-9.8-4.5-13.8
							c-1.8-2.5-4.3-4.3-6.8-5.2c-2.7-0.5-5.5-1.1-8.8-1.1h-50.8v-5.5h48.2c4.3,0,8.4,0.4,12,0.9c1.8,0.4,3.6,1.1,5.2,2.1
							c1.8,0.9,3,2.5,4.7,4.3c4.3,5.5,6.4,12,6.4,19.2L-144,503.6L-144,503.6L-144,503.6z M-149.8,471.3h-47.1
							c-5.5,0.2-10,1.8-13.2,5.2c-3.2,3.4-4.8,8.1-4.8,14.1V505c0,2.9,0.4,5.4,0.9,7.7c0.5,2.3,2,4.5,4.3,6.4c4.1,3.4,8.6,5,13.4,5
							h28.5c11.8-0.2,17.9-6.4,17.9-19v-33.8H-149.8z"/>
						<path d="M-91.6,439.7c-12.9,0.4-19.5,7.3-19.2,21.5v68.6h-5.5v-68.6c-0.4-17.9,8.2-27,25.8-27h6.3v5.5H-91.6z"/>
						<path d="M8.6,503c-0.5,18.1-10.2,27-28.8,26.5h-20.8c-4.3,0-8.2-0.4-11.6-1.1c-3.6-0.9-7-3-10.4-6.6c-2.5-3-4.1-6.1-4.7-9.1
							c-0.7-3-1.3-6.8-1.1-10.4v-41c0.4-18.4,9.5-27.6,27.7-27.4H2.9v-31.1h5.5L8.6,503L8.6,503z M3.1,439.7h-44.4
							c-3,0-6.1,0.4-8.6,1.1c-2.7,0.5-5.4,2.1-7.9,4.8c-2.3,2.5-3.8,4.8-4.3,7.2c-0.7,2.5-1.3,5.4-1.1,8.8v43.7
							c0,7.3,2,12.2,6.4,14.9c2,1.3,4.3,2.1,7,2.9c2.7,0.5,5.5,1.1,8.6,1.1h19.3c7.2,0,13.1-1.8,17.7-5c4.5-3,6.8-8.6,7-16.5
							L3.1,439.7L3.1,439.7L3.1,439.7z"/>
						<path d="M-1055.3,431.1c1.8-0.7,3.8-1.4,5.5-1.8c3.4-16.1,17.7-28.3,34.9-28.3s31.3,12.2,34.9,28.3c5.4,0.9,9.5,3,12.9,6.3
							c0.2-3,0-6.1-0.4-9c-2.1-24.3-22.6-43.5-47.4-43.5c-25.6,0-46.5,20.2-47.6,45.8c-0.2,2.1-0.2,4.5-0.2,6.8
							C-1060.7,433.8-1058.2,432.3-1055.3,431.1z"/>
						<path d="M-987.3,434.7h-56.9c-2.9,0-5.5,0.5-8.6,1.8c-2.9,1.3-5.2,2.7-7,4.5c-3.6,4.3-5.4,10.4-5.5,18.8v44.6
							c0.2,8.2,1.8,14.3,5.5,18.8c1.8,1.8,4.3,3.2,7,4.5c3,1.3,5.7,1.8,8.6,1.8h57.1c14.7-0.2,22.4-8.2,22.6-24.2v-46.5
							C-964.9,442.7-972.5,434.8-987.3,434.7z"/>
						<polygon class="st8" points="-805.5,317.5 -821.6,317.5 -870.3,317.5 -884.9,317.5 -926.6,317.5 -947.7,317.5 -1007.1,317.5 
							-1007.1,634.3 -861.3,634.3 -829.7,634.3 -758.9,634.3 -735.6,634.3 -690.2,634.3 -690.2,317.5 						"/>
					</g>
				</g>
			</g>
			<g id="g4158_6_" transform="matrix(4.4299631,0,0,4.4299631,-81.165783,-105.04783)" class="st15">
				<polygon id="polygon9_6_" points="-184.1,156.8 -197.3,156.8 -189.1,105.7 -175.9,105.7 				"/>
				<path id="path11_6_" d="M-136.2,106.9c-2.6-1-6.7-2.2-11.9-2.2c-13.1,0-22.2,7-22.3,16.9c-0.1,7.3,6.6,11.4,11.6,13.9
					c5.1,2.5,6.9,4.1,6.9,6.4c-0.1,3.4-4.1,5-7.9,5c-5.3,0-8.1-0.8-12.4-2.7l-1.7-0.8l-1.8,11.5c3.1,1.4,8.8,2.7,14.7,2.7
					c13.9,0,22.9-6.9,23-17.5c0.1-5.8-3.5-10.3-11.1-13.9c-4.6-2.3-7.5-3.9-7.5-6.3c0.1-2.2,2.4-4.4,7.6-4.4c4.3-0.1,7.5,0.9,9.8,2
					l1.2,0.5L-136.2,106.9C-136.2,106.9-136.2,106.9-136.2,106.9z"/>
				<path id="path13_6_" d="M-118.7,138.7c1.1-2.9,5.3-14.3,5.3-14.3c-0.1,0.1,1.1-3,1.7-4.9l0.9,4.4c0,0,2.5,12.2,3,14.8
					C-109.7,138.7-116,138.7-118.7,138.7L-118.7,138.7z M-102.3,105.7h-10.2c-3.2,0-5.5,0.9-6.9,4.2l-19.6,46.9h13.9
					c0,0,2.3-6.3,2.8-7.7c1.5,0,15,0,17,0c0.4,1.8,1.6,7.7,1.6,7.7h12.2L-102.3,105.7L-102.3,105.7L-102.3,105.7z"/>
				<path id="path15_6_" d="M-208.4,105.7l-12.9,34.9l-1.4-7.1c-2.4-8.2-9.9-17-18.3-21.4l11.9,44.7h14l20.8-51.1H-208.4
					L-208.4,105.7L-208.4,105.7z"/>
				<path id="path17_6_" d="M-233.3,105.7h-21.3l-0.2,1c16.6,4.2,27.6,14.5,32.1,26.8l-4.6-23.5
					C-228.1,106.7-230.4,105.8-233.3,105.7L-233.3,105.7z"/>
			</g>
			
				<linearGradient id="SVGID_9_" gradientUnits="userSpaceOnUse" x1="-848.6314" y1="-816.5255" x2="-848.6314" y2="-1183.7649" gradientTransform="matrix(1 0 0 -1 0 -492.4652)">
				<stop  offset="4.050926e-03" style="stop-color:#00579F;stop-opacity:0"/>
				<stop  offset="0.9916" style="stop-color:#00579F"/>
			</linearGradient>
			<rect x="-1007.1" y="317.5" class="st16" width="316.8" height="316.8"/>
		</g>
		<g id="g4158_1_" transform="matrix(4.4299631,0,0,4.4299631,-81.165783,-105.04783)">
			<polygon id="polygon9_1_" class="st17" points="-175.7,137 -178.7,137 -176.9,125.3 -173.8,125.3 			"/>
			<path id="path11_1_" class="st17" d="M-164.8,125.6c-0.6-0.2-1.5-0.5-2.7-0.5c-3,0-5.1,1.6-5.1,3.9c0,1.7,1.5,2.6,2.6,3.2
				c1.2,0.6,1.6,0.9,1.6,1.5c0,0.8-0.9,1.1-1.8,1.1c-1.2,0-1.8-0.2-2.8-0.6l-0.4-0.2l-0.4,2.6c0.7,0.3,2,0.6,3.4,0.6
				c3.2,0,5.2-1.6,5.3-4c0-1.3-0.8-2.3-2.5-3.2c-1.1-0.5-1.7-0.9-1.7-1.4c0-0.5,0.5-1,1.7-1c1,0,1.7,0.2,2.2,0.4l0.3,0.1
				L-164.8,125.6L-164.8,125.6z"/>
			<path id="path13_1_" class="st17" d="M-160.8,132.9c0.2-0.7,1.2-3.3,1.2-3.3c0,0,0.2-0.7,0.4-1.1l0.2,1c0,0,0.6,2.8,0.7,3.4
				C-158.7,132.9-160.2,132.9-160.8,132.9L-160.8,132.9z M-157.1,125.3h-2.3c-0.7,0-1.3,0.2-1.6,1l-4.5,10.7h3.2
				c0,0,0.5-1.4,0.6-1.8c0.3,0,3.4,0,3.9,0c0.1,0.4,0.4,1.8,0.4,1.8h2.8L-157.1,125.3L-157.1,125.3L-157.1,125.3z"/>
			<path id="path15_1_" class="st17" d="M-181.3,125.3l-3,8l-0.3-1.6c-0.5-1.9-2.3-3.9-4.2-4.9l2.7,10.2h3.2l4.7-11.7L-181.3,125.3
				L-181.3,125.3L-181.3,125.3z"/>
			<path id="path17_1_" class="st17" d="M-187,125.3h-4.9l0,0.2c3.8,1,6.3,3.3,7.3,6.1l-1.1-5.4C-185.8,125.6-186.3,125.4-187,125.3
				L-187,125.3z"/>
		</g>
	</g>
	<g id="Calque_9">
		<g id="Calque_5_1_">
			<g>
				<defs>
					<path id="SVGID_10_" d="M-342.2,539.9h-264.9c-14.3,0-26-11.6-26-26v-77.4c0-14.3,11.6-26,26-26h264.9c14.3,0,26,11.6,26,26
						V514C-316.2,528.3-327.9,539.9-342.2,539.9z"/>
				</defs>
				<clipPath id="SVGID_11_">
					<use xlink:href="#SVGID_10_"  style="overflow:visible;"/>
				</clipPath>
				<g id="extra_4_" class="st18">
					<polygon class="st19" points="-412.3,250.1 -435.1,250.1 -504.1,250.1 -524.8,250.1 -583.9,250.1 -613.8,250.1 -697.8,250.1 
						-697.8,698.9 -491.4,698.9 -446.7,698.9 -346.4,698.9 -313.3,698.9 -249.1,698.9 -249.1,250.1 					"/>
				</g>
				<g id="extra_3_" class="st18">
					<polygon class="st8" points="-412.3,250.1 -435.1,250.1 -504.1,250.1 -524.8,250.1 -583.9,250.1 -613.8,250.1 -697.8,250.1 
						-697.8,698.9 -491.4,698.9 -446.7,698.9 -346.4,698.9 -313.3,698.9 -249.1,698.9 -249.1,250.1 					"/>
				</g>
				<g class="st20">
					<g class="st3">
						<g>
							<path d="M-582.1,451.6c0.3-11.4,2.5-20.3,7.9-26.6c2.5-2.5,6.1-4.6,9.9-6.3c4.3-1.8,8.1-2.5,12.2-2.5h47.4
								c20.8,0.3,31.4,11.4,31.9,34.2v70c-0.3,7.9-3.3,15-9.6,20.8c-6.1,6.1-13.2,9.4-21.5,9.6h-44.6v50.4h-33.5V451.6z
								 M-506.3,458.1c-0.3-5.3-2.5-7.9-7.6-8.1h-25.9c-6.1,0.5-9.4,3.8-9.6,9.9v46.4c0.3,6.3,3.5,9.6,10.4,9.9h23.6
								c2.5,0,4.3-0.8,6.1-2.8c1.8-1.3,2.5-3,2.5-5.3L-506.3,458.1L-506.3,458.1L-506.3,458.1z"/>
							<path d="M-370.4,457.4c0.3-5.1-2.8-7.6-8.9-7.4H-446v-34h75.3c21.8,0.5,33,10.9,33.5,31.9v71c-0.3,9.1-2.8,16.5-8.1,22.3
								c-5.6,6.1-12.9,9.4-21.5,9.4h-45.4c-22.1-0.3-33.5-10.1-33.7-30.4v-27.4c0.3-21,10.9-31.7,31.9-31.9h44.1L-370.4,457.4
								L-370.4,457.4L-370.4,457.4z M-413.5,509.6c0,2,0.8,3.5,2.5,4.6c1.5,1.3,3.5,2.3,6.1,2.3h25.4c5.8,0,8.9-2.3,8.9-6.6v-9.6
								c0-5.1-3-7.9-9.1-7.9h-25.1c-3.3,0-5.6,0.5-6.8,1.5c-1,1.3-1.8,3.8-1.8,7.4V509.6L-413.5,509.6z"/>
							<path d="M-244.4,566.9c2.5-0.3,4.8-1,6.6-2.8c1.8-1.5,2.5-3.3,2.5-5.6v-3v-4.8h-42.3c-5.6,0-9.9-0.8-13.2-2.3
								c-3.5-1.3-6.8-3.8-10.4-7.1c-3.3-3.5-5.8-7.4-7.1-11.2c-1.5-3.5-2.3-8.1-2.3-13.7V416.3h33.2v89.5c0,7.4,2.8,10.9,8.9,10.9
								h23.3c2.8,0,5.3-0.8,7.4-2.8c2-1.5,2.8-3.5,2.8-5.8v-3.8v-88.5h33v148.1c-0.3,11.2-3,19.8-8.4,26.4
								c-5.6,6.6-12.9,10.1-22.6,10.1h-77.3v-34h65.9L-244.4,566.9L-244.4,566.9z"/>
							<path d="M-176.3,516.5h59.1c5.3-0.3,8.1-2.5,8.4-6.3v-3c0-0.8-0.3-1.8-0.8-2.8c-1.3-2.5-2.8-3.8-4.8-3.8h-3.5h-25.6
								c-8.6-0.3-16.2-3-22.3-8.9c-6.1-5.3-9.6-11.9-9.6-19.8v-25.6c0.5-20,11.2-29.9,32.2-30.4h68.4v34h-58.1
								c-6.8,0-10.1,2-10.1,6.1v3.5c0,4.3,3.5,6.3,10.4,6.3h29.2c7.9,0.3,14.5,3,20,9.1c5.6,5.8,8.4,12.9,8.6,20.8v24.8
								c-0.3,7.1-3.3,13.9-9.6,20.8c-3,3.3-6.1,5.8-9.4,7.1c-3,1.3-7.6,1.8-12.9,1.8H-176L-176.3,516.5L-176.3,516.5L-176.3,516.5z"
								/>
							<path d="M24.5,457.4c0.3-5.1-2.8-7.6-8.9-7.4H-51v-34h75.3c21.8,0.5,33,10.9,33.5,31.9v71c-0.3,9.1-2.8,16.5-8.1,22.3
								c-5.6,6.1-12.9,9.4-21.5,9.4h-45.4c-22.1-0.3-33.5-10.1-33.7-30.4v-27.4c0.3-21,10.9-31.7,31.9-31.9H25L24.5,457.4
								L24.5,457.4L24.5,457.4z M-18.6,509.6c0,2,0.8,3.5,2.5,4.6c1.5,1.3,3.5,2.3,6.1,2.3h25.4c5.8,0,8.6-2.3,8.9-6.6v-9.6
								c0-5.1-3-7.9-9.1-7.9H-9.9c-3.3,0-5.6,0.5-6.8,1.5c-1,1.3-1.8,3.8-1.8,7.4L-18.6,509.6L-18.6,509.6z"/>
							<path d="M84.4,396.5c0.3-9.4,3.5-16.5,10.1-22.1c6.3-5.6,14.7-8.4,25.4-8.6h21v33H128c-7.1,0.3-10.6,3.5-10.6,9.9v7.4h23.3
								v34h-23.3v100.4H84.1L84.4,396.5L84.4,396.5z"/>
							<path d="M193.9,504.5v2.3c0,2.5,0.8,4.8,2.3,6.3c1,2,2.5,3,4.3,3h4.3h63.6v34h-72.3c-6.6,0-11.7-0.8-15.5-1.8
								c-4.1-1.3-7.6-3.5-10.6-6.3c-3.5-3.5-6.1-7.4-7.4-11.2c-1.3-4.1-2-9.1-2-15.7l-0.3-68.2c0.5-20.5,11.2-30.9,32.2-31.4h44.6
								c20.5,0.5,31.2,11.2,31.4,32.4v26.9L193.9,504.5z M235.2,456.6v-0.8c0-1.8-0.8-3.3-2.3-4.3c-1.5-1-3.5-1.5-5.8-1.5H204
								c-2.8,0-5.3,0.8-7.4,2.5c-2.3,1.5-3.5,3.5-3.5,6.1v13.7L235.2,456.6z"/>
							<path d="M338.9,550.4c-5.1,0-9.6-0.5-13.7-1.3c-4.3-0.8-8.6-2.5-12.9-6.1c-4.6-4.1-7.9-8.4-9.6-13.2
								c-1.8-4.8-2.5-10.1-2.5-16.5V450c-0.3-5.1,0.5-9.6,1.5-13.7c1-4.1,3.5-7.9,7.1-11.4c4.1-4.1,8.1-6.6,12.4-7.9
								c4.3-1,8.9-1.5,14.2-1.5h51v7.9h-49.4c-8.9,0-15.7,1.8-20.5,5.3c-5.1,4.1-7.9,10.6-7.9,20.3v63.4c0,4.3,0.8,8.9,2,12.9
								c1.3,4.3,3.8,7.9,7.1,10.9c3.5,2.5,7.4,4.3,10.6,5.1c3.8,0.8,7.6,1,11.7,1h47.4v7.9L338.9,550.4L338.9,550.4L338.9,550.4z"/>
							<path d="M524.5,513.7c0,5.1-0.5,9.6-1,13.4c-1,4.3-3.3,8.4-6.6,12.4c-6.8,7.4-15.5,10.9-25.9,10.6h-39.5
								c-10.1,0-18.5-3-25.1-9.4c-6.6-6.1-9.9-14.5-9.9-25.1v-20.5c0.5-23.1,11.9-35,34.5-35.5h65.9v-9.1c0-7.4-2.3-13.9-6.3-19.5
								c-2.5-3.5-6.1-6.1-9.6-7.4c-3.8-0.8-7.9-1.5-12.4-1.5h-72v-7.9h68.2c6.1,0,11.9,0.5,17,1.3c2.5,0.5,5.1,1.5,7.4,3
								c2.5,1.3,4.3,3.5,6.6,6.1c6.1,7.9,9.1,17,9.1,27.1L524.5,513.7L524.5,513.7L524.5,513.7z M516.4,468h-66.7
								c-7.9,0.3-14.2,2.5-18.8,7.4c-4.6,4.8-6.8,11.4-6.8,20v20.3c0,4.1,0.5,7.6,1.3,10.9c0.8,3.3,2.8,6.3,6.1,9.1
								c5.8,4.8,12.2,7.1,19,7.1h40.3c16.7-0.3,25.4-9.1,25.4-26.9V468H516.4z"/>
							<path d="M598.7,423.2c-18.3,0.5-27.6,10.4-27.1,30.4v97.1h-7.9v-97.1c-0.5-25.4,11.7-38.3,36.5-38.3h8.9v7.9H598.7z"/>
							<path d="M740.7,512.9c-0.8,25.6-14.5,38.3-40.8,37.5h-29.4c-6.1,0-11.7-0.5-16.5-1.5c-5.1-1.3-9.9-4.3-14.7-9.4
								c-3.5-4.3-5.8-8.6-6.6-12.9c-1-4.3-1.8-9.6-1.5-14.7v-58.1c0.5-26.1,13.4-39,39.3-38.8h62.1v-44.1h7.9L740.7,512.9
								L740.7,512.9z M732.9,423.2H670c-4.3,0-8.6,0.5-12.2,1.5c-3.8,0.8-7.6,3-11.2,6.8c-3.3,3.5-5.3,6.8-6.1,10.1
								c-1,3.5-1.8,7.6-1.5,12.4v61.9c0,10.4,2.8,17.2,9.1,21c2.8,1.8,6.1,3,9.9,4.1c3.8,0.8,7.9,1.5,12.2,1.5h27.4
								c10.1,0,18.5-2.5,25.1-7.1c6.3-4.3,9.6-12.2,9.9-23.3L732.9,423.2L732.9,423.2L732.9,423.2z"/>
							<path d="M-766.2,411c2.5-1,5.3-2,7.9-2.5c4.8-22.8,25.1-40.1,49.4-40.1s44.4,17.2,49.4,40.1c7.6,1.3,13.4,4.3,18.3,8.9
								c0.3-4.3,0-8.6-0.5-12.7c-3-34.5-31.9-61.6-67.2-61.6c-36.3,0-65.9,28.6-67.4,64.9c-0.3,3-0.3,6.3-0.3,9.6
								C-773.8,414.8-770.2,412.8-766.2,411z"/>
							<path d="M-669.8,416.1h-80.6c-4.1,0-7.9,0.8-12.2,2.5c-4.1,1.8-7.4,3.8-9.9,6.3c-5.1,6.1-7.6,14.7-7.9,26.6v63.1
								c0.3,11.7,2.5,20.3,7.9,26.6c2.5,2.5,6.1,4.6,9.9,6.3c4.3,1.8,8.1,2.5,12.2,2.5h80.9c20.8-0.3,31.7-11.7,31.9-34.2V450
								C-638.2,427.5-648.8,416.3-669.8,416.1z"/>
							<polygon class="st8" points="-412.3,250.1 -435.1,250.1 -504.1,250.1 -524.8,250.1 -583.9,250.1 -613.8,250.1 -697.8,250.1 
								-697.8,698.9 -491.4,698.9 -446.7,698.9 -346.4,698.9 -313.3,698.9 -249.1,698.9 -249.1,250.1 							"/>
						</g>
					</g>
				</g>
				<path class="st21" d="M-478.2,518.1v-2.3h0.9v-0.5h-2.3v0.5h0.9v2.3H-478.2z M-473.7,518.1v-2.7h-0.7l-0.8,1.9l-0.8-1.9h-0.7
					v2.7h0.5V516l0.8,1.8h0.5l0.8-1.8v2.1H-473.7z M-350.6,498.2v-29.3c0-11.1-7-18.5-18.4-18.6c-6-0.1-12.1,1.8-16.4,8.3
					c-3.2-5.2-8.3-8.3-15.5-8.3c-5,0-9.9,1.5-13.7,6.9v-5.8h-10.2v46.8h10.3v-25.9c0-8.1,4.5-12.4,11.4-12.4
					c6.7,0,10.2,4.4,10.2,12.3v26h10.3v-25.9c0-8.1,4.7-12.4,11.4-12.4c6.9,0,10.3,4.4,10.3,12.3v26H-350.6z M-198.6,451.4h-16.6
					v-14.2h-10.3v14.2h-9.5v9.3h9.5V482c0,10.9,4.2,17.3,16.2,17.3c4.4,0,9.5-1.4,12.7-3.6l-2.9-8.7c-3,1.8-6.4,2.6-9,2.6
					c-5.1,0-6.7-3.1-6.7-7.8v-21.1h16.6V451.4z M-111.8,450.2c-5.9,0-9.7,2.7-12.3,6.8v-5.7h-10.1v46.8h10.2V472c0-7.7,3.3-12,10-12
					c2.1,0,4.2,0.3,6.4,1.2l3.1-9.6C-106.9,450.6-109.8,450.2-111.8,450.2L-111.8,450.2z M-243,455.1c-4.9-3.2-11.6-4.9-19.1-4.9
					c-11.8,0-19.5,5.7-19.5,15c0,7.6,5.7,12.3,16.1,13.8l4.8,0.7c5.6,0.8,8.2,2.2,8.2,4.9c0,3.6-3.7,5.7-10.7,5.7
					c-7,0-12.1-2.2-15.6-4.9l-4.8,7.9c5.6,4.1,12.6,6.1,20.2,6.1c13.5,0,21.3-6.4,21.3-15.3c0-8.2-6.2-12.5-16.3-14l-4.8-0.7
					c-4.4-0.6-7.9-1.5-7.9-4.6c0-3.4,3.3-5.5,8.9-5.5c6,0,11.7,2.2,14.6,4L-243,455.1z M29.5,450.2c-5.9,0-9.7,2.7-12.3,6.8v-5.7
					H7.1v46.8h10.2V472c0-7.7,3.3-12,10-12c2.1,0,4.2,0.3,6.4,1.2l3.1-9.6C34.5,450.6,31.5,450.2,29.5,450.2L29.5,450.2z
					 M-101.6,474.8c0,14.2,9.9,24.5,24.9,24.5c7,0,11.7-1.6,16.8-5.6l-4.9-8.2c-3.8,2.7-7.8,4.2-12.2,4.2c-8.1-0.1-14.1-6-14.1-15
					c0-9,6-14.9,14.1-15c4.4,0,8.4,1.5,12.2,4.2l4.9-8.2c-5.1-4-9.8-5.6-16.8-5.6C-91.7,450.2-101.6,460.6-101.6,474.8L-101.6,474.8
					z M-6.3,474.8v-23.4h-10.2v5.7c-3.2-4.2-8.1-6.8-14.8-6.8c-13.1,0-23.4,10.3-23.4,24.5c0,14.3,10.3,24.5,23.4,24.5
					c6.7,0,11.5-2.6,14.8-6.8v5.7h10.2V474.8z M-44.2,474.8c0-8.2,5.4-15,14.2-15c8.4,0,14.1,6.5,14.1,15s-5.7,15-14.1,15
					C-38.8,489.8-44.2,483-44.2,474.8L-44.2,474.8z M-166.9,450.2c-13.7,0-23.3,10-23.3,24.5c0,14.9,10,24.5,24,24.5
					c7,0,13.5-1.8,19.2-6.6l-5-7.5c-3.9,3.1-8.9,4.9-13.6,4.9c-6.6,0-12.5-3-14-11.4h34.7c0.1-1.3,0.2-2.5,0.2-3.9
					C-144.8,460.2-153.8,450.2-166.9,450.2L-166.9,450.2z M-167.1,459.3c6.6,0,10.8,4.1,11.8,11.3h-24.3
					C-178.4,463.9-174.3,459.3-167.1,459.3L-167.1,459.3z M88.1,474.8v-42.2H77.9v24.5c-3.2-4.2-8.1-6.8-14.8-6.8
					c-13.1,0-23.4,10.3-23.4,24.5c0,14.3,10.3,24.5,23.4,24.5c6.7,0,11.5-2.6,14.8-6.8v5.7h10.2V474.8z M100,493.9
					c0.4,0,0.8,0.1,1.2,0.2c0.4,0.2,0.7,0.4,1,0.6c0.3,0.3,0.5,0.6,0.6,0.9c0.2,0.4,0.2,0.7,0.2,1.2c0,0.4-0.1,0.8-0.2,1.1
					c-0.2,0.4-0.4,0.7-0.6,0.9c-0.3,0.3-0.6,0.5-1,0.6c-0.4,0.2-0.8,0.2-1.2,0.2c-0.4,0-0.8-0.1-1.2-0.2c-0.4-0.2-0.7-0.4-1-0.6
					c-0.3-0.3-0.5-0.6-0.6-0.9c-0.2-0.4-0.2-0.7-0.2-1.1c0-0.4,0.1-0.8,0.2-1.2c0.2-0.4,0.4-0.7,0.6-0.9c0.3-0.3,0.6-0.5,1-0.6
					C99.1,493.9,99.5,493.9,100,493.9z M100,499.1c0.3,0,0.6-0.1,0.9-0.2c0.3-0.1,0.5-0.3,0.7-0.5c0.2-0.2,0.4-0.5,0.5-0.7
					c0.1-0.3,0.2-0.6,0.2-0.9c0-0.3-0.1-0.6-0.2-0.9c-0.1-0.3-0.3-0.5-0.5-0.7c-0.2-0.2-0.5-0.4-0.7-0.5c-0.3-0.1-0.6-0.2-0.9-0.2
					c-0.3,0-0.6,0.1-0.9,0.2c-0.3,0.1-0.5,0.3-0.7,0.5c-0.2,0.2-0.4,0.5-0.5,0.7c-0.1,0.3-0.2,0.6-0.2,0.9c0,0.3,0.1,0.6,0.2,0.9
					c0.1,0.3,0.3,0.5,0.5,0.7c0.2,0.2,0.5,0.4,0.7,0.5C99.3,499.1,99.6,499.1,100,499.1z M100.1,495.4c0.4,0,0.6,0.1,0.8,0.2
					c0.2,0.2,0.3,0.4,0.3,0.6c0,0.2-0.1,0.4-0.2,0.6c-0.2,0.1-0.4,0.2-0.7,0.3l0.9,1h-0.7l-0.8-1h-0.3v1h-0.6v-2.8H100.1z M99.4,496
					v0.7h0.7c0.2,0,0.3,0,0.4-0.1c0.1-0.1,0.1-0.2,0.1-0.3c0-0.1,0-0.2-0.1-0.3c-0.1-0.1-0.2-0.1-0.4-0.1H99.4z M50.2,474.8
					c0-8.2,5.4-15,14.2-15c8.4,0,14.1,6.5,14.1,15s-5.7,15-14.1,15C55.6,489.8,50.2,483,50.2,474.8L50.2,474.8z M-293.3,474.8v-23.4
					h-10.2v5.7c-3.2-4.2-8.1-6.8-14.8-6.8c-13.1,0-23.4,10.3-23.4,24.5c0,14.3,10.3,24.5,23.4,24.5c6.7,0,11.5-2.6,14.8-6.8v5.7
					h10.2V474.8z M-331.1,474.8c0-8.2,5.4-15,14.2-15c8.4,0,14.1,6.5,14.1,15s-5.7,15-14.1,15C-325.7,489.8-331.1,483-331.1,474.8z
					 M-591.5,531.6c0.5,0.5,1.1,0.9,1.7,1.4c-11.1,7.4-24.5,11.7-38.9,11.7c-38.8,0-70.3-31.5-70.3-70.3s31.5-70.3,70.3-70.3
					c14.4,0,27.8,4.3,38.9,11.7c-0.6,0.5-1.1,0.9-1.7,1.4c-16.6,14.4-26.1,35.2-26.1,57.1C-617.6,496.4-608.1,517.2-591.5,531.6z
					 M-541.8,404.2c-14.4,0-27.8,4.3-38.9,11.7c0.6,0.5,1.1,0.9,1.7,1.4c16.6,14.4,26.1,35.2,26.1,57.1c0,21.9-9.5,42.7-26.1,57.1
					c-0.5,0.5-1.1,0.9-1.7,1.4c11.1,7.4,24.5,11.7,38.9,11.7c38.8,0,70.3-31.5,70.3-70.3C-471.5,435.7-503,404.2-541.8,404.2z
					 M-585.3,419.3c-0.9,0.7-1.8,1.4-2.7,2.2c-14.8,12.9-24.2,31.9-24.2,53c0,21.2,9.4,40.2,24.2,53c0.9,0.8,1.8,1.5,2.7,2.2
					c0.9-0.7,1.8-1.4,2.7-2.2c14.8-12.9,24.2-31.9,24.2-53c0-21.2-9.4-40.2-24.2-53C-583.5,420.7-584.4,420-585.3,419.3"/>
				
					<linearGradient id="SVGID_12_" gradientUnits="userSpaceOnUse" x1="-473.4293" y1="-751.8995" x2="-473.4293" y2="-1272.0117" gradientTransform="matrix(1 0 0 -1 0 -492.4652)">
					<stop  offset="4.050926e-03" style="stop-color:#FF5F00;stop-opacity:0"/>
					<stop  offset="0.9916" style="stop-color:#F79E1B"/>
				</linearGradient>
				<rect x="-697.8" y="250.1" class="st22" width="448.7" height="448.7"/>
			</g>
			<path class="st17" d="M-530.8,488.4v-0.7h0.3v-0.1h-0.7v0.1h0.3v0.7H-530.8z M-529.3,488.4v-0.9h-0.2l-0.3,0.6l-0.3-0.6h-0.2v0.9
				h0.2v-0.7l0.2,0.6h0.2l0.2-0.6v0.7H-529.3z M-490.2,482v-9.3c0-3.5-2.2-5.9-5.9-5.9c-1.9,0-3.9,0.6-5.2,2.6
				c-1-1.6-2.6-2.6-4.9-2.6c-1.6,0-3.1,0.5-4.4,2.2v-1.8h-3.2V482h3.3v-8.2c0-2.6,1.4-4,3.6-4c2.1,0,3.2,1.4,3.2,3.9v8.3h3.3v-8.2
				c0-2.6,1.5-4,3.6-4c2.2,0,3.3,1.4,3.3,3.9v8.3H-490.2z M-441.8,467.2h-5.3v-4.5h-3.3v4.5h-3v3h3v6.8c0,3.5,1.3,5.5,5.2,5.5
				c1.4,0,3-0.4,4-1.2l-0.9-2.8c-1,0.6-2,0.8-2.9,0.8c-1.6,0-2.1-1-2.1-2.5v-6.7h5.3V467.2z M-414.2,466.8c-1.9,0-3.1,0.9-3.9,2.2
				v-1.8h-3.2V482h3.2v-8.3c0-2.5,1.1-3.8,3.2-3.8c0.7,0,1.3,0.1,2,0.4l1-3C-412.6,466.9-413.5,466.8-414.2,466.8L-414.2,466.8z
				 M-455.9,468.3c-1.6-1-3.7-1.6-6.1-1.6c-3.8,0-6.2,1.8-6.2,4.8c0,2.4,1.8,3.9,5.1,4.4l1.5,0.2c1.8,0.2,2.6,0.7,2.6,1.6
				c0,1.2-1.2,1.8-3.4,1.8c-2.2,0-3.9-0.7-4.9-1.6l-1.5,2.5c1.8,1.3,4,1.9,6.4,1.9c4.3,0,6.8-2,6.8-4.9c0-2.6-2-4-5.2-4.5l-1.5-0.2
				c-1.4-0.2-2.5-0.5-2.5-1.5c0-1.1,1.1-1.7,2.8-1.7c1.9,0,3.7,0.7,4.6,1.3L-455.9,468.3z M-369.2,466.8c-1.9,0-3.1,0.9-3.9,2.2
				v-1.8h-3.2V482h3.2v-8.3c0-2.5,1.1-3.8,3.2-3.8c0.7,0,1.3,0.1,2,0.4l1-3C-367.6,466.9-368.6,466.8-369.2,466.8L-369.2,466.8z
				 M-410.9,474.6c0,4.5,3.1,7.8,7.9,7.8c2.2,0,3.7-0.5,5.4-1.8l-1.6-2.6c-1.2,0.9-2.5,1.3-3.9,1.3c-2.6,0-4.5-1.9-4.5-4.8
				c0-2.9,1.9-4.7,4.5-4.8c1.4,0,2.7,0.5,3.9,1.3l1.6-2.6c-1.6-1.3-3.1-1.8-5.4-1.8C-407.8,466.8-410.9,470.1-410.9,474.6
				L-410.9,474.6z M-380.6,474.6v-7.4h-3.2v1.8c-1-1.3-2.6-2.2-4.7-2.2c-4.2,0-7.4,3.3-7.4,7.8c0,4.5,3.3,7.8,7.4,7.8
				c2.1,0,3.7-0.8,4.7-2.2v1.8h3.2V474.6z M-392.7,474.6c0-2.6,1.7-4.8,4.5-4.8c2.7,0,4.5,2.1,4.5,4.8c0,2.7-1.8,4.8-4.5,4.8
				C-390.9,479.4-392.7,477.2-392.7,474.6L-392.7,474.6z M-431.7,466.8c-4.4,0-7.4,3.2-7.4,7.8c0,4.7,3.2,7.8,7.6,7.8
				c2.2,0,4.3-0.6,6.1-2.1l-1.6-2.4c-1.2,1-2.8,1.6-4.3,1.6c-2.1,0-4-1-4.5-3.6h11c0-0.4,0.1-0.8,0.1-1.2
				C-424.7,470-427.5,466.8-431.7,466.8L-431.7,466.8z M-431.8,469.7c2.1,0,3.4,1.3,3.8,3.6h-7.7
				C-435.4,471.1-434.1,469.7-431.8,469.7L-431.8,469.7z M-350.6,474.6v-13.4h-3.2v7.8c-1-1.3-2.6-2.2-4.7-2.2
				c-4.2,0-7.4,3.3-7.4,7.8c0,4.5,3.3,7.8,7.4,7.8c2.1,0,3.7-0.8,4.7-2.2v1.8h3.2V474.6z M-346.8,480.7c0.1,0,0.3,0,0.4,0.1
				c0.1,0,0.2,0.1,0.3,0.2c0.1,0.1,0.2,0.2,0.2,0.3c0.1,0.1,0.1,0.2,0.1,0.4c0,0.1,0,0.3-0.1,0.4c-0.1,0.1-0.1,0.2-0.2,0.3
				c-0.1,0.1-0.2,0.2-0.3,0.2c-0.1,0.1-0.2,0.1-0.4,0.1c-0.1,0-0.3,0-0.4-0.1c-0.1-0.1-0.2-0.1-0.3-0.2c-0.1-0.1-0.2-0.2-0.2-0.3
				c-0.1-0.1-0.1-0.2-0.1-0.4c0-0.1,0-0.3,0.1-0.4c0.1-0.1,0.1-0.2,0.2-0.3c0.1-0.1,0.2-0.2,0.3-0.2
				C-347.1,480.7-346.9,480.7-346.8,480.7z M-346.8,482.3c0.1,0,0.2,0,0.3-0.1c0.1,0,0.2-0.1,0.2-0.2c0.1-0.1,0.1-0.1,0.2-0.2
				c0-0.1,0.1-0.2,0.1-0.3c0-0.1,0-0.2-0.1-0.3c0-0.1-0.1-0.2-0.2-0.2c-0.1-0.1-0.1-0.1-0.2-0.2c-0.1,0-0.2-0.1-0.3-0.1
				c-0.1,0-0.2,0-0.3,0.1c-0.1,0-0.2,0.1-0.2,0.2c-0.1,0.1-0.1,0.1-0.2,0.2c0,0.1-0.1,0.2-0.1,0.3c0,0.1,0,0.2,0.1,0.3
				c0,0.1,0.1,0.2,0.2,0.2c0.1,0.1,0.1,0.1,0.2,0.2C-347,482.3-346.9,482.3-346.8,482.3z M-346.7,481.2c0.1,0,0.2,0,0.3,0.1
				c0.1,0.1,0.1,0.1,0.1,0.2c0,0.1,0,0.1-0.1,0.2c0,0-0.1,0.1-0.2,0.1l0.3,0.3h-0.2l-0.3-0.3h-0.1v0.3h-0.2v-0.9H-346.7z
				 M-347,481.3v0.2h0.2c0,0,0.1,0,0.1,0c0,0,0,0,0-0.1c0,0,0-0.1,0-0.1c0,0-0.1,0-0.1,0H-347z M-362.6,474.6c0-2.6,1.7-4.8,4.5-4.8
				c2.7,0,4.5,2.1,4.5,4.8c0,2.7-1.8,4.8-4.5,4.8C-360.9,479.4-362.6,477.2-362.6,474.6L-362.6,474.6z M-471.9,474.6v-7.4h-3.2v1.8
				c-1-1.3-2.6-2.2-4.7-2.2c-4.2,0-7.4,3.3-7.4,7.8c0,4.5,3.3,7.8,7.4,7.8c2.1,0,3.7-0.8,4.7-2.2v1.8h3.2V474.6z M-484,474.6
				c0-2.6,1.7-4.8,4.5-4.8c2.7,0,4.5,2.1,4.5,4.8c0,2.7-1.8,4.8-4.5,4.8C-482.3,479.4-484,477.2-484,474.6z M-566.8,492.7
				c0.2,0.2,0.4,0.3,0.5,0.4c-3.5,2.4-7.8,3.7-12.4,3.7c-12.4,0-22.4-10-22.4-22.4s10-22.4,22.4-22.4c4.6,0,8.8,1.4,12.4,3.7
				c-0.2,0.1-0.4,0.3-0.5,0.4c-5.3,4.6-8.3,11.2-8.3,18.2C-575.1,481.5-572.1,488.1-566.8,492.7z M-551,452.1
				c-4.6,0-8.8,1.4-12.4,3.7c0.2,0.1,0.4,0.3,0.5,0.4c5.3,4.6,8.3,11.2,8.3,18.2c0,7-3,13.6-8.3,18.2c-0.2,0.2-0.4,0.3-0.5,0.4
				c3.5,2.4,7.8,3.7,12.4,3.7c12.4,0,22.4-10,22.4-22.4C-528.6,462.1-538.7,452.1-551,452.1z M-564.8,456.9
				c-0.3,0.2-0.6,0.5-0.8,0.7c-4.7,4.1-7.7,10.1-7.7,16.9c0,6.7,3,12.8,7.7,16.9c0.3,0.2,0.6,0.5,0.8,0.7c0.3-0.2,0.6-0.5,0.8-0.7
				c4.7-4.1,7.7-10.1,7.7-16.9c0-6.7-3-12.8-7.7-16.9C-564.3,457.4-564.5,457.1-564.8,456.9"/>
		</g>
	</g>
</g>
<g id="Calque_11">
	<g id="Calque_5_3_">
		<g>
			<defs>
				<path id="SVGID_13_" d="M454.9,156.8h-84c-2.8,0-5-2.2-5-5v-28.4c0-2.8,2.2-5,5-5h84c2.8,0,5,2.2,5,5v28.4
					C459.9,154.5,457.7,156.8,454.9,156.8z"/>
			</defs>
			<clipPath id="SVGID_14_">
				<use xlink:href="#SVGID_13_"  style="overflow:visible;"/>
			</clipPath>
			<g id="extra_6_" class="st23">
				<polygon class="st19" points="431.4,70.8 424.7,70.8 404.2,70.8 398.1,70.8 380.6,70.8 371.7,70.8 346.8,70.8 346.8,203.9 
					408,203.9 421.3,203.9 451,203.9 460.8,203.9 479.9,203.9 479.9,70.8 				"/>
			</g>
			<g id="extra_5_" class="st23">
				<polygon class="st8" points="431.4,70.8 424.7,70.8 404.2,70.8 398.1,70.8 380.6,70.8 371.7,70.8 346.8,70.8 346.8,203.9 
					408,203.9 421.3,203.9 451,203.9 460.8,203.9 479.9,203.9 479.9,70.8 				"/>
			</g>
			<g class="st24">
				<g class="st3">
					<g>
						<path d="M381.1,130.5c0.1-3.4,0.8-6,2.3-7.9c0.8-0.8,1.8-1.4,2.9-1.9c1.3-0.5,2.4-0.8,3.6-0.8H404c6.2,0.1,9.3,3.4,9.5,10.2
							v20.8c-0.1,2.3-1,4.4-2.9,6.2c-1.8,1.8-3.9,2.8-6.4,2.9H391v15h-9.9V130.5z M403.6,132.5c-0.1-1.6-0.8-2.3-2.3-2.4h-7.7
							c-1.8,0.2-2.8,1.1-2.9,2.9v13.8c0.1,1.9,1.1,2.9,3.1,2.9h7c0.8,0,1.3-0.2,1.8-0.8c0.5-0.4,0.8-0.9,0.8-1.6L403.6,132.5
							L403.6,132.5L403.6,132.5z"/>
						<path d="M443.9,132.3c0.1-1.5-0.8-2.3-2.6-2.2h-19.8V120h22.3c6.5,0.2,9.8,3.2,9.9,9.5v21.1c-0.1,2.7-0.8,4.9-2.4,6.6
							c-1.7,1.8-3.8,2.8-6.4,2.8h-13.5c-6.5-0.1-9.9-3-10-9v-8.1c0.1-6.2,3.2-9.4,9.5-9.5H444L443.9,132.3L443.9,132.3L443.9,132.3z
							 M431.1,147.8c0,0.6,0.2,1.1,0.8,1.4c0.5,0.4,1.1,0.7,1.8,0.7h7.5c1.7,0,2.6-0.7,2.6-2V145c0-1.5-0.9-2.3-2.7-2.3h-7.4
							c-1,0-1.7,0.2-2,0.5c-0.3,0.4-0.5,1.1-0.5,2.2V147.8L431.1,147.8z"/>
						<path d="M481.2,164.8c0.8-0.1,1.4-0.3,2-0.8c0.5-0.5,0.8-1,0.8-1.7v-0.9v-1.4h-12.6c-1.7,0-2.9-0.2-3.9-0.7
							c-1.1-0.4-2-1.1-3.1-2.1c-1-1.1-1.7-2.2-2.1-3.3c-0.5-1.1-0.7-2.4-0.7-4.1v-29.7h9.9v26.5c0,2.2,0.8,3.2,2.6,3.2h6.9
							c0.8,0,1.6-0.2,2.2-0.8c0.6-0.5,0.8-1.1,0.8-1.7v-1.1v-26.2h9.8v43.9c-0.1,3.3-0.9,5.9-2.5,7.8c-1.7,2-3.8,3-6.7,3h-22.9
							v-10.1h19.6V164.8L481.2,164.8z"/>
						<path d="M501.5,149.8H519c1.6-0.1,2.4-0.8,2.5-1.9V147c0-0.2-0.1-0.5-0.2-0.8c-0.4-0.8-0.8-1.1-1.4-1.1h-1.1h-7.6
							c-2.6-0.1-4.8-0.9-6.6-2.6c-1.8-1.6-2.9-3.5-2.9-5.9V129c0.2-5.9,3.3-8.9,9.5-9h20.3V130h-17.2c-2,0-3,0.6-3,1.8v1.1
							c0,1.3,1.1,1.9,3.1,1.9h8.6c2.3,0.1,4.3,0.9,5.9,2.7c1.7,1.7,2.5,3.8,2.6,6.2v7.4c-0.1,2.1-1,4.1-2.9,6.2
							c-0.9,1-1.8,1.7-2.8,2.1c-0.9,0.4-2.3,0.5-3.8,0.5h-20.5L501.5,149.8L501.5,149.8L501.5,149.8z"/>
						<path d="M561,132.3c0.1-1.5-0.8-2.3-2.6-2.2h-19.8V120h22.3c6.5,0.2,9.8,3.2,9.9,9.5v21.1c-0.1,2.7-0.8,4.9-2.4,6.6
							c-1.7,1.8-3.8,2.8-6.4,2.8h-13.5c-6.5-0.1-9.9-3-10-9v-8.1c0.1-6.2,3.2-9.4,9.5-9.5h13.1L561,132.3L561,132.3L561,132.3z
							 M548.2,147.8c0,0.6,0.2,1.1,0.8,1.4c0.5,0.4,1.1,0.7,1.8,0.7h7.5c1.7,0,2.6-0.7,2.6-2V145c0-1.5-0.9-2.3-2.7-2.3h-7.4
							c-1,0-1.7,0.2-2,0.5c-0.3,0.4-0.5,1.1-0.5,2.2V147.8L548.2,147.8z"/>
						<path d="M578.8,114.2c0.1-2.8,1.1-4.9,3-6.5c1.9-1.7,4.4-2.5,7.5-2.6h6.2v9.8h-3.8c-2.1,0.1-3.2,1.1-3.2,2.9v2.2h6.9v10.1
							h-6.9v29.8h-9.9L578.8,114.2L578.8,114.2z"/>
						<path d="M611.3,146.3v0.7c0,0.8,0.2,1.4,0.7,1.9c0.3,0.6,0.8,0.9,1.3,0.9h1.3h18.9v10.1h-21.4c-2,0-3.5-0.2-4.6-0.5
							c-1.2-0.4-2.3-1.1-3.2-1.9c-1.1-1.1-1.8-2.2-2.2-3.3c-0.4-1.2-0.6-2.7-0.6-4.7l-0.1-20.2c0.2-6.1,3.3-9.2,9.5-9.3h13.2
							c6.1,0.2,9.2,3.3,9.3,9.6v8L611.3,146.3z M623.5,132v-0.2c0-0.5-0.2-1-0.7-1.3c-0.5-0.3-1.1-0.5-1.7-0.5h-6.8
							c-0.8,0-1.6,0.2-2.2,0.8c-0.7,0.5-1.1,1.1-1.1,1.8v4.1L623.5,132z"/>
						<path d="M654.3,159.9c-1.5,0-2.9-0.2-4.1-0.4c-1.3-0.2-2.6-0.8-3.8-1.8c-1.4-1.2-2.3-2.5-2.9-3.9c-0.5-1.4-0.8-3-0.8-4.9
							v-18.8c-0.1-1.5,0.2-2.9,0.5-4.1c0.3-1.2,1.1-2.3,2.1-3.4c1.2-1.2,2.4-2,3.7-2.3c1.3-0.3,2.6-0.5,4.2-0.5h15.1v2.3h-14.7
							c-2.6,0-4.7,0.5-6.1,1.6c-1.5,1.2-2.3,3.2-2.3,6v18.8c0,1.3,0.2,2.6,0.6,3.8c0.4,1.3,1.1,2.3,2.1,3.2c1.1,0.8,2.2,1.3,3.2,1.5
							c1.1,0.2,2.3,0.3,3.5,0.3h14.1v2.3L654.3,159.9L654.3,159.9L654.3,159.9z"/>
						<path d="M709.3,149c0,1.5-0.2,2.9-0.3,4c-0.3,1.3-1,2.5-2,3.7c-2,2.2-4.6,3.2-7.7,3.2h-11.7c-3,0-5.5-0.9-7.4-2.8
							c-2-1.8-2.9-4.3-2.9-7.4v-6.1c0.2-6.8,3.5-10.4,10.2-10.5h19.6v-2.7c0-2.2-0.7-4.1-1.9-5.8c-0.8-1.1-1.8-1.8-2.9-2.2
							c-1.1-0.2-2.3-0.5-3.7-0.5h-21.4v-2.3h20.2c1.8,0,3.5,0.2,5,0.4c0.8,0.2,1.5,0.5,2.2,0.9c0.8,0.4,1.3,1.1,2,1.8
							c1.8,2.3,2.7,5,2.7,8L709.3,149L709.3,149L709.3,149z M706.9,135.4h-19.8c-2.3,0.1-4.2,0.8-5.6,2.2c-1.4,1.4-2,3.4-2,5.9v6
							c0,1.2,0.2,2.3,0.4,3.2s0.8,1.9,1.8,2.7c1.7,1.4,3.6,2.1,5.6,2.1h12c5-0.1,7.5-2.7,7.5-8L706.9,135.4L706.9,135.4z"/>
						<path d="M731.3,122.1c-5.4,0.2-8.2,3.1-8,9v28.8H721v-28.8c-0.2-7.5,3.5-11.4,10.8-11.4h2.6v2.3H731.3z"/>
						<path d="M773.5,148.7c-0.2,7.6-4.3,11.4-12.1,11.1h-8.7c-1.8,0-3.5-0.2-4.9-0.5c-1.5-0.4-2.9-1.3-4.4-2.8
							c-1.1-1.3-1.7-2.6-2-3.8c-0.3-1.3-0.5-2.9-0.5-4.4v-17.2c0.2-7.7,4-11.6,11.7-11.5H771v-13.1h2.3L773.5,148.7L773.5,148.7z
							 M771.1,122.1h-18.6c-1.3,0-2.6,0.2-3.6,0.5c-1.1,0.2-2.3,0.9-3.3,2c-1,1.1-1.6,2-1.8,3c-0.3,1.1-0.5,2.3-0.5,3.7v18.3
							c0,3.1,0.8,5.1,2.7,6.2c0.8,0.5,1.8,0.9,2.9,1.2c1.1,0.2,2.3,0.5,3.6,0.5h8.1c3,0,5.5-0.8,7.4-2.1c1.9-1.3,2.9-3.6,2.9-6.9
							L771.1,122.1L771.1,122.1L771.1,122.1z"/>
						<path d="M326.5,118.5c0.8-0.3,1.6-0.6,2.3-0.8c1.4-6.8,7.4-11.9,14.7-11.9s13.2,5.1,14.7,11.9c2.3,0.4,4,1.3,5.4,2.6
							c0.1-1.3,0-2.6-0.2-3.8c-0.9-10.2-9.5-18.3-19.9-18.3c-10.8,0-19.6,8.5-20,19.3c-0.1,0.9-0.1,1.9-0.1,2.9
							C324.2,119.6,325.3,119,326.5,118.5z"/>
						<path d="M355.1,120h-23.9c-1.2,0-2.3,0.2-3.6,0.8c-1.2,0.5-2.2,1.1-2.9,1.9c-1.5,1.8-2.3,4.4-2.3,7.9v18.7
							c0.1,3.5,0.8,6,2.3,7.9c0.8,0.8,1.8,1.4,2.9,1.9c1.3,0.5,2.4,0.8,3.6,0.8h24c6.2-0.1,9.4-3.5,9.5-10.2v-19.6
							C364.5,123.4,361.3,120.1,355.1,120z"/>
						<polygon class="st8" points="431.4,70.8 424.7,70.8 404.2,70.8 398.1,70.8 380.6,70.8 371.7,70.8 346.8,70.8 346.8,203.9 
							408,203.9 421.3,203.9 451,203.9 460.8,203.9 479.9,203.9 479.9,70.8 						"/>
					</g>
				</g>
			</g>
			<path class="st25" d="M411.9,150.3v-0.7h0.3v-0.1h-0.7v0.1h0.3v0.7H411.9z M413.2,150.3v-0.8H413l-0.2,0.6l-0.2-0.6h-0.2v0.8h0.1
				v-0.6l0.2,0.5h0.2l0.2-0.5v0.6H413.2z M449.8,144.4v-8.7c0-3.3-2.1-5.5-5.5-5.5c-1.8,0-3.6,0.5-4.9,2.5c-1-1.5-2.5-2.5-4.6-2.5
				c-1.5,0-2.9,0.4-4.1,2.1v-1.7h-3v13.9h3v-7.7c0-2.4,1.3-3.7,3.4-3.7c2,0,3,1.3,3,3.7v7.7h3v-7.7c0-2.4,1.4-3.7,3.4-3.7
				c2.1,0,3,1.3,3,3.7v7.7H449.8z M494.8,130.5h-4.9v-4.2h-3v4.2H484v2.8h2.8v6.3c0,3.2,1.2,5.1,4.8,5.1c1.3,0,2.8-0.4,3.8-1.1
				l-0.9-2.6c-0.9,0.5-1.9,0.8-2.7,0.8c-1.5,0-2-0.9-2-2.3v-6.3h4.9V130.5z M520.6,130.2c-1.7,0-2.9,0.8-3.7,2v-1.7h-3v13.9h3v-7.8
				c0-2.3,1-3.6,3-3.6c0.6,0,1.2,0.1,1.9,0.3l0.9-2.8C522.1,130.3,521.2,130.2,520.6,130.2L520.6,130.2z M481.7,131.6
				c-1.5-1-3.5-1.5-5.7-1.5c-3.5,0-5.8,1.7-5.8,4.4c0,2.3,1.7,3.7,4.8,4.1l1.4,0.2c1.7,0.2,2.4,0.7,2.4,1.5c0,1.1-1.1,1.7-3.2,1.7
				c-2.1,0-3.6-0.7-4.6-1.5l-1.4,2.3c1.7,1.2,3.7,1.8,6,1.8c4,0,6.3-1.9,6.3-4.5c0-2.4-1.8-3.7-4.8-4.1l-1.4-0.2
				c-1.3-0.2-2.3-0.4-2.3-1.4c0-1,1-1.6,2.6-1.6c1.8,0,3.5,0.7,4.3,1.2L481.7,131.6z M562.5,130.2c-1.7,0-2.9,0.8-3.7,2v-1.7h-3
				v13.9h3v-7.8c0-2.3,1-3.6,3-3.6c0.6,0,1.2,0.1,1.9,0.3l0.9-2.8C564,130.3,563.1,130.2,562.5,130.2L562.5,130.2z M523.6,137.4
				c0,4.2,2.9,7.3,7.4,7.3c2.1,0,3.5-0.5,5-1.7l-1.5-2.4c-1.1,0.8-2.3,1.2-3.6,1.2c-2.4,0-4.2-1.8-4.2-4.4c0-2.7,1.8-4.4,4.2-4.4
				c1.3,0,2.5,0.4,3.6,1.2l1.5-2.4c-1.5-1.2-2.9-1.7-5-1.7C526.5,130.2,523.6,133.2,523.6,137.4L523.6,137.4z M551.9,137.4v-6.9h-3
				v1.7c-1-1.2-2.4-2-4.4-2c-3.9,0-6.9,3-6.9,7.3c0,4.2,3,7.3,6.9,7.3c2,0,3.4-0.8,4.4-2v1.7h3V137.4z M540.6,137.4
				c0-2.4,1.6-4.4,4.2-4.4c2.5,0,4.2,1.9,4.2,4.4s-1.7,4.4-4.2,4.4C542.2,141.9,540.6,139.9,540.6,137.4L540.6,137.4z M504.2,130.2
				c-4.1,0-6.9,3-6.9,7.3c0,4.4,3,7.3,7.1,7.3c2.1,0,4-0.5,5.7-1.9l-1.5-2.2c-1.2,0.9-2.6,1.5-4,1.5c-1.9,0-3.7-0.9-4.1-3.4h10.3
				c0-0.4,0.1-0.8,0.1-1.2C510.8,133.1,508.1,130.2,504.2,130.2L504.2,130.2z M504.2,132.8c1.9,0,3.2,1.2,3.5,3.4h-7.2
				C500.8,134.2,502,132.8,504.2,132.8L504.2,132.8z M579.9,137.4v-12.5h-3v7.3c-1-1.2-2.4-2-4.4-2c-3.9,0-6.9,3-6.9,7.3
				c0,4.2,3,7.3,6.9,7.3c2,0,3.4-0.8,4.4-2v1.7h3V137.4z M583.4,143.1c0.1,0,0.2,0,0.3,0.1c0.1,0,0.2,0.1,0.3,0.2
				c0.1,0.1,0.1,0.2,0.2,0.3c0,0.1,0.1,0.2,0.1,0.3c0,0.1,0,0.2-0.1,0.3c0,0.1-0.1,0.2-0.2,0.3c-0.1,0.1-0.2,0.1-0.3,0.2
				c-0.1,0-0.2,0.1-0.3,0.1c-0.1,0-0.2,0-0.4-0.1c-0.1,0-0.2-0.1-0.3-0.2c-0.1-0.1-0.1-0.2-0.2-0.3c0-0.1-0.1-0.2-0.1-0.3
				c0-0.1,0-0.2,0.1-0.3c0-0.1,0.1-0.2,0.2-0.3c0.1-0.1,0.2-0.1,0.3-0.2C583.1,143.1,583.3,143.1,583.4,143.1z M583.4,144.7
				c0.1,0,0.2,0,0.3-0.1c0.1,0,0.2-0.1,0.2-0.1c0.1-0.1,0.1-0.1,0.1-0.2c0-0.1,0.1-0.2,0.1-0.3c0-0.1,0-0.2-0.1-0.3
				c0-0.1-0.1-0.2-0.1-0.2c-0.1-0.1-0.1-0.1-0.2-0.1c-0.1,0-0.2-0.1-0.3-0.1c-0.1,0-0.2,0-0.3,0.1c-0.1,0-0.2,0.1-0.2,0.1
				c-0.1,0.1-0.1,0.1-0.1,0.2c0,0.1-0.1,0.2-0.1,0.3c0,0.1,0,0.2,0.1,0.3c0,0.1,0.1,0.2,0.1,0.2s0.1,0.1,0.2,0.1
				C583.2,144.6,583.3,144.7,583.4,144.7z M583.4,143.6c0.1,0,0.2,0,0.2,0.1c0.1,0,0.1,0.1,0.1,0.2c0,0.1,0,0.1-0.1,0.2
				c0,0-0.1,0.1-0.2,0.1l0.3,0.3h-0.2l-0.2-0.3h-0.1v0.3h-0.2v-0.8H583.4z M583.2,143.7v0.2h0.2c0,0,0.1,0,0.1,0c0,0,0,0,0-0.1
				c0,0,0-0.1,0-0.1c0,0-0.1,0-0.1,0H583.2z M568.6,137.4c0-2.4,1.6-4.4,4.2-4.4c2.5,0,4.2,1.9,4.2,4.4s-1.7,4.4-4.2,4.4
				C570.2,141.9,568.6,139.9,568.6,137.4L568.6,137.4z M466.8,137.4v-6.9h-3v1.7c-1-1.2-2.4-2-4.4-2c-3.9,0-6.9,3-6.9,7.3
				c0,4.2,3,7.3,6.9,7.3c2,0,3.4-0.8,4.4-2v1.7h3V137.4z M455.5,137.4c0-2.4,1.6-4.4,4.2-4.4c2.5,0,4.2,1.9,4.2,4.4
				s-1.7,4.4-4.2,4.4C457.1,141.9,455.5,139.9,455.5,137.4z M378.3,154.3c0.2,0.1,0.3,0.3,0.5,0.4c-3.3,2.2-7.3,3.5-11.5,3.5
				c-11.5,0-20.9-9.3-20.9-20.9s9.3-20.9,20.9-20.9c4.3,0,8.2,1.3,11.5,3.5c-0.2,0.1-0.3,0.3-0.5,0.4c-4.9,4.3-7.7,10.5-7.7,16.9
				C370.6,143.8,373.4,150,378.3,154.3z M393,116.5c-4.3,0-8.2,1.3-11.5,3.5c0.2,0.1,0.3,0.3,0.5,0.4c4.9,4.3,7.7,10.5,7.7,16.9
				c0,6.5-2.8,12.7-7.7,16.9c-0.2,0.1-0.3,0.3-0.5,0.4c3.3,2.2,7.3,3.5,11.5,3.5c11.5,0,20.9-9.3,20.9-20.9
				C413.9,125.8,404.6,116.5,393,116.5z M380.1,121c-0.3,0.2-0.5,0.4-0.8,0.7c-4.4,3.8-7.2,9.5-7.2,15.7c0,6.3,2.8,11.9,7.2,15.7
				c0.3,0.2,0.5,0.4,0.8,0.7c0.3-0.2,0.5-0.4,0.8-0.7c4.4-3.8,7.2-9.5,7.2-15.7c0-6.3-2.8-11.9-7.2-15.7
				C380.7,121.4,380.4,121.2,380.1,121"/>
			
				<linearGradient id="SVGID_15_" gradientUnits="userSpaceOnUse" x1="413.32" y1="-566.0189" x2="413.32" y2="-720.2908" gradientTransform="matrix(1 0 0 -1 0 -492.4652)">
				<stop  offset="4.050926e-03" style="stop-color:#FF5F00;stop-opacity:0"/>
				<stop  offset="0.9916" style="stop-color:#F79E1B"/>
			</linearGradient>
			<rect x="346.8" y="70.8" class="st26" width="133.1" height="133.1"/>
		</g>
		<path class="st17" d="M396.3,141.5v-0.2h0.1v0h-0.2v0h0.1L396.3,141.5L396.3,141.5z M396.7,141.5v-0.3h-0.1l-0.1,0.2l-0.1-0.2
			h-0.1v0.3h0v-0.2l0.1,0.2h0l0.1-0.2L396.7,141.5L396.7,141.5z M408.4,139.6v-2.8c0-1-0.7-1.7-1.7-1.8c-0.6,0-1.1,0.2-1.6,0.8
			c-0.3-0.5-0.8-0.8-1.5-0.8c-0.5,0-0.9,0.1-1.3,0.7v-0.5h-1v4.4h1v-2.4c0-0.8,0.4-1.2,1.1-1.2c0.6,0,1,0.4,1,1.2v2.5h1v-2.4
			c0-0.8,0.4-1.2,1.1-1.2c0.7,0,1,0.4,1,1.2v2.5H408.4z M422.7,135.2h-1.6v-1.3h-1v1.3h-0.9v0.9h0.9v2c0,1,0.4,1.6,1.5,1.6
			c0.4,0,0.9-0.1,1.2-0.3l-0.3-0.8c-0.3,0.2-0.6,0.2-0.8,0.2c-0.5,0-0.6-0.3-0.6-0.7v-2h1.6V135.2z M430.9,135.1
			c-0.6,0-0.9,0.3-1.2,0.6v-0.5h-1v4.4h1v-2.5c0-0.7,0.3-1.1,0.9-1.1c0.2,0,0.4,0,0.6,0.1l0.3-0.9
			C431.4,135.1,431.1,135.1,430.9,135.1L430.9,135.1z M418.5,135.5c-0.5-0.3-1.1-0.5-1.8-0.5c-1.1,0-1.8,0.5-1.8,1.4
			c0,0.7,0.5,1.2,1.5,1.3l0.5,0.1c0.5,0.1,0.8,0.2,0.8,0.5c0,0.3-0.4,0.5-1,0.5c-0.7,0-1.1-0.2-1.5-0.5l-0.5,0.7
			c0.5,0.4,1.2,0.6,1.9,0.6c1.3,0,2-0.6,2-1.4c0-0.8-0.6-1.2-1.5-1.3l-0.5-0.1c-0.4-0.1-0.7-0.1-0.7-0.4c0-0.3,0.3-0.5,0.8-0.5
			c0.6,0,1.1,0.2,1.4,0.4L418.5,135.5z M444.2,135.1c-0.6,0-0.9,0.3-1.2,0.6v-0.5h-1v4.4h1v-2.5c0-0.7,0.3-1.1,0.9-1.1
			c0.2,0,0.4,0,0.6,0.1l0.3-0.9C444.7,135.1,444.4,135.1,444.2,135.1L444.2,135.1z M431.9,137.4c0,1.3,0.9,2.3,2.4,2.3
			c0.7,0,1.1-0.1,1.6-0.5l-0.5-0.8c-0.4,0.3-0.7,0.4-1.2,0.4c-0.8,0-1.3-0.6-1.3-1.4c0-0.8,0.6-1.4,1.3-1.4c0.4,0,0.8,0.1,1.2,0.4
			l0.5-0.8c-0.5-0.4-0.9-0.5-1.6-0.5C432.8,135.1,431.9,136,431.9,137.4L431.9,137.4z M440.9,137.4v-2.2h-1v0.5
			c-0.3-0.4-0.8-0.6-1.4-0.6c-1.2,0-2.2,1-2.2,2.3c0,1.3,1,2.3,2.2,2.3c0.6,0,1.1-0.2,1.4-0.6v0.5h1V137.4z M437.3,137.4
			c0-0.8,0.5-1.4,1.3-1.4c0.8,0,1.3,0.6,1.3,1.4c0,0.8-0.5,1.4-1.3,1.4C437.8,138.8,437.3,138.1,437.3,137.4L437.3,137.4z
			 M425.7,135.1c-1.3,0-2.2,0.9-2.2,2.3c0,1.4,0.9,2.3,2.3,2.3c0.7,0,1.3-0.2,1.8-0.6l-0.5-0.7c-0.4,0.3-0.8,0.5-1.3,0.5
			c-0.6,0-1.2-0.3-1.3-1.1h3.3c0-0.1,0-0.2,0-0.4C427.8,136,426.9,135.1,425.7,135.1L425.7,135.1z M425.7,135.9c0.6,0,1,0.4,1.1,1.1
			h-2.3C424.6,136.3,425,135.9,425.7,135.9L425.7,135.9z M449.8,137.4v-4h-1v2.3c-0.3-0.4-0.8-0.6-1.4-0.6c-1.2,0-2.2,1-2.2,2.3
			c0,1.3,1,2.3,2.2,2.3c0.6,0,1.1-0.2,1.4-0.6v0.5h1V137.4z M450.9,139.2c0,0,0.1,0,0.1,0c0,0,0.1,0,0.1,0.1c0,0,0,0.1,0.1,0.1
			c0,0,0,0.1,0,0.1s0,0.1,0,0.1c0,0,0,0.1-0.1,0.1c0,0-0.1,0-0.1,0.1c0,0-0.1,0-0.1,0c0,0-0.1,0-0.1,0c0,0-0.1,0-0.1-0.1
			c0,0,0-0.1-0.1-0.1c0,0,0-0.1,0-0.1s0-0.1,0-0.1c0,0,0-0.1,0.1-0.1c0,0,0.1,0,0.1-0.1C450.8,139.2,450.8,139.2,450.9,139.2z
			 M450.9,139.7C450.9,139.7,450.9,139.7,450.9,139.7c0.1,0,0.1,0,0.2-0.1c0,0,0,0,0-0.1c0,0,0-0.1,0-0.1c0,0,0-0.1,0-0.1
			c0,0,0,0,0-0.1c0,0,0,0-0.1,0c0,0-0.1,0-0.1,0c0,0-0.1,0-0.1,0c0,0,0,0-0.1,0c0,0,0,0,0,0.1c0,0,0,0.1,0,0.1c0,0,0,0.1,0,0.1
			s0,0,0,0.1C450.7,139.6,450.8,139.6,450.9,139.7C450.8,139.7,450.9,139.7,450.9,139.7z M450.9,139.3
			C450.9,139.3,451,139.3,450.9,139.3c0.1,0,0.1,0.1,0.1,0.1c0,0,0,0,0,0.1c0,0,0,0-0.1,0l0.1,0.1h-0.1l-0.1-0.1h0v0.1h-0.1v-0.3
			H450.9z M450.8,139.4L450.8,139.4L450.8,139.4C450.9,139.4,450.9,139.4,450.8,139.4c0.1,0.1,0.1,0,0.1,0
			C450.9,139.4,450.9,139.4,450.8,139.4C450.9,139.4,450.9,139.4,450.8,139.4L450.8,139.4z M446.2,137.4c0-0.8,0.5-1.4,1.3-1.4
			c0.8,0,1.3,0.6,1.3,1.4c0,0.8-0.5,1.4-1.3,1.4C446.7,138.8,446.2,138.1,446.2,137.4L446.2,137.4z M413.8,137.4v-2.2h-1v0.5
			c-0.3-0.4-0.8-0.6-1.4-0.6c-1.2,0-2.2,1-2.2,2.3c0,1.3,1,2.3,2.2,2.3c0.6,0,1.1-0.2,1.4-0.6v0.5h1V137.4z M410.2,137.4
			c0-0.8,0.5-1.4,1.3-1.4c0.8,0,1.3,0.6,1.3,1.4c0,0.8-0.5,1.4-1.3,1.4C410.7,138.8,410.2,138.1,410.2,137.4z M385.6,142.7
			c0.1,0,0.1,0.1,0.2,0.1c-1.1,0.7-2.3,1.1-3.7,1.1c-3.7,0-6.6-3-6.6-6.6s3-6.6,6.6-6.6c1.4,0,2.6,0.4,3.7,1.1
			c-0.1,0-0.1,0.1-0.2,0.1c-1.6,1.4-2.5,3.3-2.5,5.4C383.2,139.4,384.1,141.4,385.6,142.7z M390.3,130.7c-1.4,0-2.6,0.4-3.7,1.1
			c0.1,0,0.1,0.1,0.2,0.1c1.6,1.4,2.5,3.3,2.5,5.4c0,2.1-0.9,4-2.5,5.4c-0.1,0-0.1,0.1-0.2,0.1c1.1,0.7,2.3,1.1,3.7,1.1
			c3.7,0,6.6-3,6.6-6.6C396.9,133.7,394,130.7,390.3,130.7z M386.2,132.1c-0.1,0.1-0.2,0.1-0.3,0.2c-1.4,1.2-2.3,3-2.3,5
			c0,2,0.9,3.8,2.3,5c0.1,0.1,0.2,0.1,0.3,0.2c0.1-0.1,0.2-0.1,0.3-0.2c1.4-1.2,2.3-3,2.3-5c0-2-0.9-3.8-2.3-5
			C386.4,132.3,386.3,132.2,386.2,132.1"/>
	</g>
</g>
<g id="Calque_8">
	<g id="Calque_5_6_">
		<g>
			<defs>
				<path id="SVGID_16_" d="M199,156.8h-84c-2.8,0-5-2.2-5-5v-28.4c0-2.8,2.2-5,5-5h84c2.8,0,5,2.2,5,5v28.4
					C204,154.5,201.7,156.8,199,156.8z"/>
			</defs>
			<clipPath id="SVGID_17_">
				<use xlink:href="#SVGID_16_"  style="overflow:visible;"/>
			</clipPath>
			<g id="extra_13_" class="st27">
				<polygon class="st13" points="169.8,90.8 165,90.8 150.6,90.8 146.2,90.8 133.9,90.8 127.6,90.8 110,90.8 110,184.8 
					153.2,184.8 162.6,184.8 183.6,184.8 190.5,184.8 204,184.8 204,90.8 				"/>
			</g>
			<g id="extra_11_" class="st27">
				<polygon class="st8" points="169.8,90.8 165,90.8 150.6,90.8 146.2,90.8 133.9,90.8 127.6,90.8 110,90.8 110,184.8 153.2,184.8 
					162.6,184.8 183.6,184.8 190.5,184.8 204,184.8 204,90.8 				"/>
			</g>
			<g class="st28">
				<g class="st3">
					<g>
						<path d="M134.2,133c0.1-2.4,0.5-4.2,1.6-5.6c0.5-0.5,1.3-1,2.1-1.3c0.9-0.4,1.7-0.5,2.5-0.5h9.9c4.4,0.1,6.6,2.4,6.7,7.2v14.7
							c-0.1,1.6-0.7,3.1-2,4.4c-1.3,1.3-2.8,2-4.5,2h-9.3v10.6h-7V133z M150.1,134.3c-0.1-1.1-0.5-1.6-1.6-1.7h-5.4
							c-1.3,0.1-2,0.8-2,2.1v9.7c0.1,1.3,0.7,2,2.2,2.1h4.9c0.5,0,0.9-0.2,1.3-0.6c0.4-0.3,0.5-0.6,0.5-1.1L150.1,134.3L150.1,134.3
							L150.1,134.3z"/>
						<path d="M178.6,134.2c0.1-1.1-0.6-1.6-1.9-1.5h-14v-7.1h15.8c4.6,0.1,6.9,2.3,7,6.7v14.9c-0.1,1.9-0.6,3.5-1.7,4.7
							c-1.2,1.3-2.7,2-4.5,2h-9.5c-4.6-0.1-7-2.1-7.1-6.4v-5.7c0.1-4.4,2.3-6.6,6.7-6.7h9.2L178.6,134.2L178.6,134.2L178.6,134.2z
							 M169.5,145.1c0,0.4,0.2,0.7,0.5,1c0.3,0.3,0.7,0.5,1.3,0.5h5.3c1.2,0,1.9-0.5,1.9-1.4v-2c0-1.1-0.6-1.6-1.9-1.6h-5.3
							c-0.7,0-1.2,0.1-1.4,0.3c-0.2,0.3-0.4,0.8-0.4,1.5V145.1L169.5,145.1z"/>
						<path d="M204.9,157.1c0.5-0.1,1-0.2,1.4-0.6c0.4-0.3,0.5-0.7,0.5-1.2v-0.6v-1H198c-1.2,0-2.1-0.2-2.8-0.5
							c-0.7-0.3-1.4-0.8-2.2-1.5c-0.7-0.7-1.2-1.5-1.5-2.3c-0.3-0.7-0.5-1.7-0.5-2.9v-21h7v18.7c0,1.5,0.6,2.3,1.9,2.3h4.9
							c0.6,0,1.1-0.2,1.5-0.6c0.4-0.3,0.6-0.7,0.6-1.2V144v-18.5h6.9v31c-0.1,2.3-0.6,4.1-1.8,5.5c-1.2,1.4-2.7,2.1-4.7,2.1h-16.2
							V157h13.8V157.1L204.9,157.1z"/>
						<path d="M219.2,146.6h12.4c1.1-0.1,1.7-0.5,1.8-1.3v-0.6c0-0.2-0.1-0.4-0.2-0.6c-0.3-0.5-0.6-0.8-1-0.8h-0.7h-5.4
							c-1.8-0.1-3.4-0.6-4.7-1.9c-1.3-1.1-2-2.5-2-4.1v-5.4c0.1-4.2,2.3-6.3,6.7-6.4h14.3v7.1h-12.2c-1.4,0-2.1,0.4-2.1,1.3v0.7
							c0,0.9,0.7,1.3,2.2,1.3h6.1c1.6,0.1,3,0.6,4.2,1.9c1.2,1.2,1.8,2.7,1.8,4.4v5.2c-0.1,1.5-0.7,2.9-2,4.4
							c-0.6,0.7-1.3,1.2-2,1.5c-0.6,0.3-1.6,0.4-2.7,0.4h-14.5L219.2,146.6L219.2,146.6L219.2,146.6z"/>
						<path d="M261.3,134.2c0.1-1.1-0.6-1.6-1.9-1.5h-14v-7.1h15.8c4.6,0.1,6.9,2.3,7,6.7v14.9c-0.1,1.9-0.6,3.5-1.7,4.7
							c-1.2,1.3-2.7,2-4.5,2h-9.5c-4.6-0.1-7-2.1-7.1-6.4v-5.7c0.1-4.4,2.3-6.6,6.7-6.7h9.2L261.3,134.2L261.3,134.2L261.3,134.2z
							 M252.3,145.1c0,0.4,0.2,0.7,0.5,1c0.3,0.3,0.7,0.5,1.3,0.5h5.3c1.2,0,1.8-0.5,1.9-1.4v-2c0-1.1-0.6-1.6-1.9-1.6h-5.3
							c-0.7,0-1.2,0.1-1.4,0.3c-0.2,0.3-0.4,0.8-0.4,1.5L252.3,145.1L252.3,145.1z"/>
						<path d="M273.8,121.4c0.1-2,0.7-3.5,2.1-4.6c1.3-1.2,3.1-1.8,5.3-1.8h4.4v6.9h-2.7c-1.5,0.1-2.2,0.7-2.2,2.1v1.5h4.9v7.1h-4.9
							v21h-7L273.8,121.4L273.8,121.4z"/>
						<path d="M296.7,144.1v0.5c0,0.5,0.2,1,0.5,1.3c0.2,0.4,0.5,0.6,0.9,0.6h0.9h13.3v7.1h-15.1c-1.4,0-2.4-0.2-3.2-0.4
							c-0.8-0.3-1.6-0.7-2.2-1.3c-0.7-0.7-1.3-1.5-1.5-2.3c-0.3-0.8-0.4-1.9-0.4-3.3l-0.1-14.3c0.1-4.3,2.3-6.5,6.7-6.6h9.3
							c4.3,0.1,6.5,2.3,6.6,6.8v5.6L296.7,144.1z M305.4,134v-0.2c0-0.4-0.2-0.7-0.5-0.9c-0.3-0.2-0.7-0.3-1.2-0.3h-4.8
							c-0.6,0-1.1,0.2-1.5,0.5c-0.5,0.3-0.7,0.7-0.7,1.3v2.9L305.4,134z"/>
						<path d="M327.1,153.7c-1.1,0-2-0.1-2.9-0.3c-0.9-0.2-1.8-0.5-2.7-1.3c-1-0.8-1.6-1.8-2-2.8c-0.4-1-0.5-2.1-0.5-3.5v-13.3
							c-0.1-1.1,0.1-2,0.3-2.9c0.2-0.8,0.7-1.6,1.5-2.4c0.8-0.8,1.7-1.4,2.6-1.6c0.9-0.2,1.9-0.3,3-0.3H337v1.6h-10.4
							c-1.9,0-3.3,0.4-4.3,1.1c-1.1,0.8-1.6,2.2-1.6,4.2v13.3c0,0.9,0.2,1.9,0.4,2.7c0.3,0.9,0.8,1.6,1.5,2.3
							c0.7,0.5,1.5,0.9,2.2,1.1c0.8,0.2,1.6,0.2,2.4,0.2h9.9v1.6L327.1,153.7L327.1,153.7L327.1,153.7z"/>
						<path d="M366,146c0,1.1-0.1,2-0.2,2.8c-0.2,0.9-0.7,1.8-1.4,2.6c-1.4,1.5-3.2,2.3-5.4,2.2h-8.3c-2.1,0-3.9-0.6-5.3-2
							c-1.4-1.3-2.1-3-2.1-5.3v-4.3c0.1-4.8,2.5-7.3,7.2-7.4h13.8v-1.9c0-1.5-0.5-2.9-1.3-4.1c-0.5-0.7-1.3-1.3-2-1.5
							c-0.8-0.2-1.6-0.3-2.6-0.3h-15.1v-1.6h14.3c1.3,0,2.5,0.1,3.6,0.3c0.5,0.1,1.1,0.3,1.5,0.6c0.5,0.3,0.9,0.7,1.4,1.3
							c1.3,1.6,1.9,3.6,1.9,5.7L366,146L366,146L366,146z M364.3,136.4h-14c-1.6,0.1-3,0.5-3.9,1.5s-1.4,2.4-1.4,4.2v4.2
							c0,0.8,0.1,1.6,0.3,2.3s0.6,1.3,1.3,1.9c1.2,1,2.5,1.5,4,1.5h8.4c3.5-0.1,5.3-1.9,5.3-5.6L364.3,136.4L364.3,136.4z"/>
						<path d="M381.5,127c-3.8,0.1-5.8,2.2-5.7,6.4v20.3h-1.6v-20.3c-0.1-5.3,2.4-8,7.6-8h1.9v1.6H381.5z"/>
						<path d="M411.3,145.8c-0.2,5.4-3,8-8.5,7.9h-6.2c-1.3,0-2.4-0.1-3.5-0.3c-1.1-0.3-2.1-0.9-3.1-2c-0.7-0.9-1.2-1.8-1.4-2.7
							c-0.2-0.9-0.4-2-0.3-3.1v-12.2c0.1-5.5,2.8-8.2,8.2-8.1h13v-9.2h1.6L411.3,145.8L411.3,145.8z M409.6,127h-13.2
							c-0.9,0-1.8,0.1-2.5,0.3c-0.8,0.2-1.6,0.6-2.3,1.4c-0.7,0.7-1.1,1.4-1.3,2.1c-0.2,0.7-0.4,1.6-0.3,2.6v13
							c0,2.2,0.6,3.6,1.9,4.4c0.6,0.4,1.3,0.6,2.1,0.8c0.8,0.2,1.6,0.3,2.5,0.3h5.7c2.1,0,3.9-0.5,5.3-1.5c1.3-0.9,2-2.5,2.1-4.9
							L409.6,127L409.6,127L409.6,127z"/>
						<path d="M95.7,124.5c0.5-0.2,1.1-0.4,1.6-0.5c1-4.8,5.3-8.4,10.4-8.4s9.3,3.6,10.4,8.4c1.6,0.3,2.8,0.9,3.8,1.9
							c0.1-0.9,0-1.8-0.1-2.7c-0.6-7.2-6.7-12.9-14.1-12.9c-7.6,0-13.8,6-14.1,13.6c-0.1,0.6-0.1,1.3-0.1,2
							C94.1,125.3,94.8,124.8,95.7,124.5z"/>
						<path d="M115.9,125.5H99c-0.8,0-1.6,0.2-2.5,0.5c-0.8,0.4-1.5,0.8-2.1,1.3c-1.1,1.3-1.6,3.1-1.6,5.6v13.2
							c0.1,2.4,0.5,4.2,1.6,5.6c0.5,0.5,1.3,1,2.1,1.3c0.9,0.4,1.7,0.5,2.5,0.5h16.9c4.4-0.1,6.6-2.4,6.7-7.2v-13.8
							C122.5,127.9,120.3,125.6,115.9,125.5z"/>
						<polygon class="st8" points="169.8,90.8 165,90.8 150.6,90.8 146.2,90.8 133.9,90.8 127.6,90.8 110,90.8 110,184.8 
							153.2,184.8 162.6,184.8 183.6,184.8 190.5,184.8 204,184.8 204,90.8 						"/>
					</g>
				</g>
			</g>
			<g id="g4158_5_" transform="matrix(4.4299631,0,0,4.4299631,-81.165783,-105.04783)" class="st29">
				<polygon id="polygon9_5_" points="50.5,62.4 46.6,62.4 49.1,47.3 53,47.3 				"/>
				<path id="path11_5_" d="M64.7,47.6c-0.8-0.3-2-0.6-3.5-0.6c-3.9,0-6.6,2.1-6.6,5c0,2.2,2,3.4,3.4,4.1c1.5,0.7,2,1.2,2,1.9
					c0,1-1.2,1.5-2.4,1.5c-1.6,0-2.4-0.2-3.7-0.8l-0.5-0.2L53,61.8c0.9,0.4,2.6,0.8,4.4,0.8c4.1,0,6.8-2,6.8-5.2c0-1.7-1-3-3.3-4.1
					c-1.4-0.7-2.2-1.2-2.2-1.9c0-0.6,0.7-1.3,2.3-1.3c1.3,0,2.2,0.3,2.9,0.6l0.4,0.2L64.7,47.6C64.7,47.6,64.7,47.6,64.7,47.6z"/>
				<path id="path13_5_" d="M70,57c0.3-0.9,1.6-4.2,1.6-4.2c0,0,0.3-0.9,0.5-1.5l0.3,1.3c0,0,0.7,3.6,0.9,4.4C72.6,57,70.7,57,70,57
					L70,57z M74.8,47.3h-3c-0.9,0-1.6,0.3-2,1.3l-5.8,13.9H68c0,0,0.7-1.9,0.8-2.3c0.5,0,4.5,0,5,0c0.1,0.5,0.5,2.3,0.5,2.3H78
					L74.8,47.3L74.8,47.3L74.8,47.3z"/>
				<path id="path15_5_" d="M43.3,47.3l-3.8,10.3l-0.4-2.1c-0.7-2.4-2.9-5-5.4-6.4l3.5,13.3h4.1l6.2-15.1H43.3L43.3,47.3L43.3,47.3z
					"/>
				<path id="path17_5_" d="M35.9,47.3h-6.3l-0.1,0.3c4.9,1.3,8.2,4.3,9.5,7.9l-1.4-7C37.5,47.6,36.8,47.3,35.9,47.3L35.9,47.3z"/>
			</g>
			
				<linearGradient id="SVGID_18_" gradientUnits="userSpaceOnUse" x1="156.9904" y1="-585.1878" x2="156.9904" y2="-694.1157" gradientTransform="matrix(1 0 0 -1 0 -492.4652)">
				<stop  offset="4.050926e-03" style="stop-color:#00579F;stop-opacity:0"/>
				<stop  offset="0.9916" style="stop-color:#00579F"/>
			</linearGradient>
			<rect x="110" y="90.8" class="st30" width="94" height="94"/>
		</g>
		<g id="g4158_4_" transform="matrix(4.4299631,0,0,4.4299631,-81.165783,-105.04783)">
			<polygon id="polygon9_4_" class="st17" points="53,56.5 52.1,56.5 52.7,53.1 53.6,53.1 			"/>
			<path id="path11_4_" class="st17" d="M56.3,53.2c-0.2-0.1-0.5-0.1-0.8-0.1c-0.9,0-1.5,0.5-1.5,1.1c0,0.5,0.4,0.8,0.8,0.9
				c0.3,0.2,0.5,0.3,0.5,0.4c0,0.2-0.3,0.3-0.5,0.3c-0.4,0-0.5-0.1-0.8-0.2l-0.1-0.1l-0.1,0.8c0.2,0.1,0.6,0.2,1,0.2
				c0.9,0,1.6-0.5,1.6-1.2c0-0.4-0.2-0.7-0.8-0.9c-0.3-0.2-0.5-0.3-0.5-0.4c0-0.1,0.2-0.3,0.5-0.3c0.3,0,0.5,0.1,0.7,0.1l0.1,0
				L56.3,53.2L56.3,53.2z"/>
			<path id="path13_4_" class="st17" d="M57.5,55.3c0.1-0.2,0.4-1,0.4-1c0,0,0.1-0.2,0.1-0.3l0.1,0.3c0,0,0.2,0.8,0.2,1
				C58.1,55.3,57.6,55.3,57.5,55.3L57.5,55.3z M58.6,53.1h-0.7c-0.2,0-0.4,0.1-0.5,0.3l-1.3,3.2H57c0,0,0.2-0.4,0.2-0.5
				c0.1,0,1,0,1.1,0c0,0.1,0.1,0.5,0.1,0.5h0.8L58.6,53.1L58.6,53.1L58.6,53.1z"/>
			<path id="path15_4_" class="st17" d="M51.4,53.1l-0.9,2.4L50.4,55c-0.2-0.6-0.7-1.2-1.2-1.5l0.8,3h0.9l1.4-3.5H51.4L51.4,53.1
				L51.4,53.1z"/>
			<path id="path17_4_" class="st17" d="M49.7,53.1h-1.4l0,0.1c1.1,0.3,1.9,1,2.2,1.8l-0.3-1.6C50,53.2,49.9,53.1,49.7,53.1
				L49.7,53.1z"/>
		</g>
	</g>
</g>
<g id="Calque_5">
</g>
<g id="Calque_3_2_">
</g>
<g id="Calque_7">
</g>
</svg>
