<?xml version="1.0" encoding="utf-8"?>
<!-- Generator: Adobe Illustrator 24.3.0, SVG Export Plug-In . SVG Version: 6.00 Build 0)  -->
<svg version="1.1" xmlns="http://www.w3.org/2000/svg" xmlns:xlink="http://www.w3.org/1999/xlink" x="0px" y="0px"
	 viewBox="0 0 570 269" style="enable-background:new 0 0 570 269;" xml:space="preserve">
<style type="text/css">
	.st0{fill:#83BA3B;}
	.st1{opacity:0.1;}
	.st2{display:none;clip-path:url(#SVGID_2_);}
	.st3{clip-path:url(#SVGID_2_);}
	.st4{fill:url(#SVGID_3_);}
	.st5{fill:#FFFFFF;}
	.st6{clip-path:url(#SVGID_5_);}
	.st7{fill:none;}
	.st8{opacity:0.1;clip-path:url(#SVGID_5_);}
	.st9{fill:url(#SVGID_6_);}
</style>
<g id="Calque_1">
	<g id="Calque_1_1_">
		<g id="extra_12_">
			<polygon class="st0" points="362.6,0 333.7,0 246.1,0 219.8,0 144.7,0 106.7,0 0,0 0,269 262.2,269 319,269 446.4,269 488.4,269 
				570,269 570,0 			"/>
		</g>
		<g class="st1">
			<defs>
				<polygon id="SVGID_1_" class="st1" points="362.6,0 333.7,0 246.1,0 219.8,0 144.7,0 106.7,0 0,0 0,269 262.2,269 319,269 
					446.4,269 488.4,269 570,269 570,0 				"/>
			</defs>
			<clipPath id="SVGID_2_">
				<use xlink:href="#SVGID_1_"  style="overflow:visible;"/>
			</clipPath>
			<path class="st2" d="M329.6,301.9v-5.3h2.1v-1.1h-5.4v1.1h2.1v5.3H329.6z M340.2,301.9v-6.4h-1.7l-1.9,4.4l-1.9-4.4H333v6.4h1.2
				v-4.8l1.8,4.2h1.2l1.8-4.2v4.8H340.2z M628.5,255.3v-68.7c0-25.9-16.5-43.3-43.1-43.5c-14-0.2-28.4,4.1-38.5,19.5
				c-7.6-12.1-19.5-19.5-36.2-19.5c-11.7,0-23.1,3.4-32.1,16.3v-13.5h-23.8v109.5h24v-60.7c0-19,10.5-29.1,26.8-29.1
				c15.8,0,23.8,10.3,23.8,28.9v60.9h24v-60.7c0-19,11-29.1,26.8-29.1c16.3,0,24,10.3,24,28.9v60.9H628.5z M984.4,145.8h-38.9v-33.2
				h-24v33.2h-22.2v21.8h22.2v49.9c0,25.4,9.8,40.5,38,40.5c10.3,0,22.2-3.2,29.8-8.5l-6.9-20.4c-7.1,4.1-14.9,6.2-21.1,6.2
				c-11.9,0-15.8-7.3-15.8-18.3v-49.5h38.9V145.8z M1187.6,143.1c-13.7,0-22.7,6.4-28.9,16v-13.3h-23.6v109.5h23.8v-61.4
				c0-18.1,7.8-28.2,23.4-28.2c4.8,0,9.8,0.7,14.9,2.7l7.3-22.4C1199.3,144,1192.4,143.1,1187.6,143.1L1187.6,143.1z M880.4,154.6
				c-11.5-7.6-27.3-11.5-44.7-11.5c-27.7,0-45.6,13.3-45.6,35c0,17.9,13.3,28.9,37.8,32.3l11.2,1.6c13.1,1.8,19.2,5.3,19.2,11.5
				c0,8.5-8.7,13.3-25,13.3c-16.5,0-28.4-5.3-36.4-11.5l-11.2,18.6c13.1,9.6,29.5,14.2,47.4,14.2c31.6,0,49.9-14.9,49.9-35.7
				c0-19.2-14.4-29.3-38.2-32.8l-11.2-1.6c-10.3-1.4-18.6-3.4-18.6-10.8c0-8,7.8-12.8,20.8-12.8c14,0,27.5,5.3,34.1,9.4L880.4,154.6
				z M1518.6,143.1c-13.7,0-22.7,6.4-28.9,16v-13.3h-23.6v109.5h23.8v-61.4c0-18.1,7.8-28.2,23.4-28.2c4.8,0,9.9,0.7,14.9,2.7
				l7.3-22.4C1530.2,144,1523.4,143.1,1518.6,143.1L1518.6,143.1z M1211.6,200.6c0,33.2,23.1,57.5,58.4,57.5
				c16.5,0,27.5-3.7,39.4-13.1l-11.5-19.2c-8.9,6.4-18.3,9.8-28.6,9.8c-19-0.2-33-14-33-35c0-21.1,14-34.8,33-35
				c10.3,0,19.7,3.4,28.6,9.8l11.5-19.2c-11.9-9.4-22.9-13.1-39.4-13.1C1234.8,143.1,1211.6,167.4,1211.6,200.6L1211.6,200.6z
				 M1434.7,200.6v-54.7h-23.8v13.3c-7.6-9.8-19-16-34.6-16c-30.7,0-54.7,24.1-54.7,57.5c0,33.4,24,57.5,54.7,57.5
				c15.6,0,27-6.2,34.6-16v13.3h23.8V200.6z M1346.1,200.6c0-19.2,12.6-35,33.2-35c19.7,0,33,15.1,33,35s-13.3,35-33,35
				C1358.7,235.6,1346.1,219.8,1346.1,200.6L1346.1,200.6z M1058.6,143.1c-32.1,0-54.5,23.4-54.5,57.5c0,34.8,23.4,57.5,56.1,57.5
				c16.5,0,31.6-4.1,44.9-15.3l-11.7-17.6c-9.2,7.3-20.8,11.5-31.8,11.5c-15.3,0-29.3-7.1-32.8-26.8h81.3c0.2-3,0.5-6,0.5-9.2
				C1110.4,166.5,1089.3,143.1,1058.6,143.1L1058.6,143.1z M1058.2,164.4c15.3,0,25.2,9.6,27.7,26.6h-56.8
				C1031.6,175.2,1041.2,164.4,1058.2,164.4L1058.2,164.4z M1655.8,200.6v-98.7h-23.8v57.3c-7.6-9.8-19-16-34.6-16
				c-30.7,0-54.7,24.1-54.7,57.5c0,33.4,24,57.5,54.7,57.5c15.6,0,27-6.2,34.6-16v13.3h23.8V200.6z M1683.6,245.2
				c1,0,1.9,0.2,2.8,0.5c0.9,0.4,1.6,0.9,2.2,1.5c0.6,0.6,1.1,1.4,1.5,2.2c0.4,0.8,0.6,1.7,0.6,2.7c0,1-0.2,1.9-0.6,2.7
				c-0.4,0.8-0.9,1.6-1.5,2.2c-0.6,0.6-1.4,1.1-2.2,1.5c-0.9,0.4-1.8,0.6-2.8,0.6c-1,0-1.9-0.2-2.8-0.6c-0.9-0.4-1.6-0.9-2.3-1.5
				c-0.6-0.6-1.1-1.4-1.5-2.2c-0.4-0.8-0.6-1.7-0.6-2.7c0-1,0.2-1.9,0.6-2.7c0.4-0.8,0.9-1.6,1.5-2.2c0.6-0.6,1.4-1.1,2.3-1.5
				S1682.6,245.2,1683.6,245.2z M1683.6,257.6c0.7,0,1.4-0.1,2.1-0.4c0.6-0.3,1.2-0.7,1.7-1.2c0.5-0.5,0.9-1.1,1.2-1.7
				c0.3-0.7,0.4-1.4,0.4-2.1c0-0.7-0.1-1.5-0.4-2.1c-0.3-0.7-0.7-1.2-1.2-1.7c-0.5-0.5-1.1-0.9-1.7-1.1c-0.6-0.3-1.3-0.4-2.1-0.4
				c-0.8,0-1.5,0.1-2.1,0.4c-0.7,0.3-1.2,0.7-1.7,1.1c-0.5,0.5-0.9,1.1-1.1,1.7c-0.3,0.7-0.4,1.4-0.4,2.1c0,0.7,0.1,1.5,0.4,2.1
				c0.3,0.7,0.7,1.2,1.1,1.7c0.5,0.5,1.1,0.9,1.7,1.2C1682.1,257.4,1682.8,257.6,1683.6,257.6z M1684,248.9c0.8,0,1.5,0.2,1.9,0.6
				c0.4,0.4,0.7,0.9,0.7,1.5c0,0.5-0.2,1-0.5,1.3c-0.4,0.3-0.9,0.6-1.5,0.6l2.1,2.4h-1.7l-2-2.4h-0.6v2.4h-1.4v-6.5H1684z
				 M1682.4,250.1v1.7h1.6c0.4,0,0.7-0.1,0.9-0.2c0.2-0.1,0.3-0.4,0.3-0.7c0-0.3-0.1-0.5-0.3-0.6c-0.2-0.1-0.5-0.2-0.9-0.2H1682.4z
				 M1567.1,200.6c0-19.2,12.6-35,33.2-35c19.7,0,33,15.1,33,35s-13.3,35-33,35C1579.7,235.6,1567.1,219.8,1567.1,200.6
				L1567.1,200.6z M762.7,200.6v-54.7h-23.8v13.3c-7.6-9.8-19-16-34.6-16c-30.7,0-54.7,24.1-54.7,57.5c0,33.4,24,57.5,54.7,57.5
				c15.6,0,27-6.2,34.6-16v13.3h23.8V200.6z M674.1,200.6c0-19.2,12.6-35,33.2-35c19.7,0,33,15.1,33,35s-13.3,35-33,35
				C686.7,235.6,674.1,219.8,674.1,200.6z M64.3,333.7c1.3,1.1,2.6,2.2,4,3.3c-26.1,17.4-57.4,27.5-91.1,27.5
				c-90.9,0-164.6-73.7-164.6-164.6S-113.7,35.3-22.8,35.3c33.7,0,65,10.1,91.1,27.5c-1.3,1.1-2.7,2.2-4,3.3
				c-38.8,33.7-61,82.5-61,133.8C3.3,251.2,25.6,300,64.3,333.7z M180.7,35.3c-33.7,0-65,10.1-91.1,27.5c1.3,1.1,2.7,2.2,4,3.3
				c38.8,33.7,61,82.5,61,133.8c0,51.3-22.2,100.1-61,133.8c-1.3,1.1-2.6,2.2-4,3.3c26.1,17.4,57.4,27.5,91.1,27.5
				c90.9,0,164.6-73.7,164.6-164.6C345.3,109,271.6,35.3,180.7,35.3z M78.9,70.5c-2.1,1.7-4.2,3.4-6.2,5.2
				C38,105.9,16.1,150.3,16.1,199.9c0,49.6,22,94,56.6,124.2c2,1.8,4.1,3.5,6.2,5.2c2.1-1.7,4.2-3.4,6.2-5.2
				c34.7-30.2,56.6-74.6,56.6-124.2c0-49.6-22-94-56.6-124.2C83.1,73.9,81.1,72.2,78.9,70.5"/>
			<g class="st3">
				<path d="M733.1,66.4c-11.9-8.1-29.8-12.2-53.3-12.2h-61.6l-22.9,124.3h-80.7l5.2-28.2h48.6l5.8-31.7l-48.6,0.1l5.2-28.1h50.1
					l6.7-36.4H485.9l-21.7,117.9h-37.3l21.9-117.9h-53.1l-21.7,117.9h-36.3l21.9-117.9h-53.1l-22.9,124.3h-81.3l5.1-28.2H256
					l5.8-31.5l-48.8,0l5.2-28.1h50.6l6.6-36.4H-41.4l-18,98.5l-35.9-98.5h-55.1l-29.7,160.8h52.7l18-101.2l34.8,101.2h188.7
					L137,90.6h29.5l-22.9,124.3h496.6l14.4-78.5l23.3,78.5h52.7l-24.1-64.1l5.5-1.2c12.2-2.6,21.6-8.2,28.3-16.6
					c6.6-8.5,10-19.3,10-32.4C750.1,85.4,744.6,74.2,733.1,66.4L733.1,66.4z M68.2,178.4h-80.6l5.2-28.2h50.6l5.7-31.8H-0.9
					l4.8-27.9h80.5L68.2,178.4L68.2,178.4z M689.7,124.3c-5.3,3.7-13,5.5-23.5,5.5h-10.4l8-43.1h7.7c8.7,0,15.1,1.4,19.5,4.2
					c3.4,2.2,7.5,6.7,7.5,15C698.4,116.1,693.7,121.5,689.7,124.3L689.7,124.3z"/>
			</g>
		</g>
		
			<linearGradient id="SVGID_3_" gradientUnits="userSpaceOnUse" x1="285" y1="-432.6138" x2="285" y2="-745.5254" gradientTransform="matrix(1 0 0 -1 0 -427.8187)">
			<stop  offset="0" style="stop-color:#83BA3B;stop-opacity:0"/>
			<stop  offset="1" style="stop-color:#83BA3B"/>
		</linearGradient>
		<rect x="0" y="-0.8" class="st4" width="570" height="269.9"/>
		<g>
			<path class="st5" d="M400.2,117c-3-2.1-7.7-3.1-13.7-3.1h-15.8l-5.9,32H344l1.3-7.2h12.5l1.5-8.1l-12.5,0l1.3-7.2h12.9l1.7-9.4
				h-26.1l-5.6,30.3h-9.6l5.6-30.3h-13.7l-5.6,30.3h-9.3l5.6-30.3h-13.7l-5.9,32h-20.9l1.3-7.2h12.5l1.5-8.1l-12.5,0l1.3-7.2h13
				l1.7-9.4h-81.4l-4.6,25.3l-9.2-25.3h-14.2l-7.6,41.3H179l4.6-26l9,26h48.5l5.9-32h7.6l-5.9,32h127.6L380,135l6,20.2h13.5
				l-6.2-16.5l1.4-0.3c3.1-0.7,5.6-2.1,7.3-4.3c1.7-2.2,2.6-5,2.6-8.3C404.6,121.9,403.1,119,400.2,117L400.2,117z M229.3,145.8
				h-20.7l1.3-7.2h13l1.5-8.2h-12.9l1.2-7.2h20.7L229.3,145.8L229.3,145.8z M389,131.9c-1.4,1-3.3,1.4-6,1.4h-2.7l2.1-11.1h2
				c2.2,0,3.9,0.4,5,1.1c0.9,0.6,1.9,1.7,1.9,3.9C391.3,129.8,390,131.2,389,131.9L389,131.9z"/>
		</g>
	</g>
</g>
<g id="Calque_8">
	<g id="Calque_5_2_">
		<g id="extra_14_">
			<polygon class="st0" points="-809.6,-285.9 -864.3,-285.9 -1030.3,-285.9 -1080.1,-285.9 -1222.4,-285.9 -1294.4,-285.9 
				-1496.6,-285.9 -1496.6,794.1 -999.8,794.1 -892.2,794.1 -650.8,794.1 -571.2,794.1 -416.6,794.1 -416.6,-285.9 			"/>
		</g>
		<g>
			<defs>
				<rect id="SVGID_4_" x="-1496.6" y="-285.9" width="1080" height="1080"/>
			</defs>
			<clipPath id="SVGID_5_">
				<use xlink:href="#SVGID_4_"  style="overflow:visible;"/>
			</clipPath>
			<g id="extra_2_" class="st6">
				<polygon class="st7" points="-809.6,-285.9 -864.3,-285.9 -1030.3,-285.9 -1080.1,-285.9 -1222.4,-285.9 -1294.4,-285.9 
					-1496.6,-285.9 -1496.6,794.1 -999.8,794.1 -892.2,794.1 -650.8,794.1 -571.2,794.1 -416.6,794.1 -416.6,-285.9 				"/>
			</g>
			<g class="st8">
				<path d="M1406,12.7c-42-28.8-105.5-43.3-188.8-43.3H999l-81.1,440.3H632.1l18.4-99.9h172.2L843,197.6L671,197.8l18.4-99.5h177.3
					l23.6-129H530.2l-77,417.7H321l77.5-417.7H210.3l-77,417.7H4.6L82.2-30.6H-106l-81.2,440.3h-287.9l18.2-99.9H-284l20.4-111.6
					l-172.7-0.2l18.3-99.6h179.3l23.4-129h-1122.2l-63.9,348.9l-127.2-348.9h-195.3l-105.1,569.4h186.5l63.6-358.5l123.4,358.5
					h668.5l81.3-440.4H-601l-81.3,440.4h1758.9l51-278l82.5,278h186.6l-85.5-227.2l19.6-4.2c43.1-9.2,76.7-29.1,100.1-58.8
					c23.4-30,35.3-68.5,35.3-114.8C1466.2,79.9,1446.5,40.3,1406,12.7L1406,12.7z M-949.1,409.7h-285.5l18.4-99.9h179.1l20.3-112.5
					h-177.4l17.1-98.9H-892L-949.1,409.7L-949.1,409.7z M1252.2,217.9c-18.8,13.1-46,19.5-83.2,19.5h-36.9l28.3-152.8h27.1
					c30.9,0,53.4,5,69,15.1c12.1,7.9,26.6,23.6,26.6,53.2C1283.1,188.7,1266.3,208,1252.2,217.9L1252.2,217.9z"/>
			</g>
		</g>
		
			<linearGradient id="SVGID_6_" gradientUnits="userSpaceOnUse" x1="-956.5999" y1="-164.3245" x2="-956.5999" y2="-1416.0935" gradientTransform="matrix(1 0 0 -1 0 -427.8187)">
			<stop  offset="0" style="stop-color:#83BA3B;stop-opacity:0"/>
			<stop  offset="1" style="stop-color:#83BA3B"/>
		</linearGradient>
		<rect x="-1496.6" y="-285.9" class="st9" width="1080" height="1080"/>
	</g>
	<g id="Calque_5">
		<g>
			<path class="st5" d="M-642,206.2c-8.3-5.7-20.9-8.6-37.4-8.6h-43.2l-16.1,87.3h-56.6l3.6-19.8h34.1l4-22.2l-34.1,0l3.7-19.7h35.1
				l4.7-25.6h-71.4l-15.3,82.8H-857l15.4-82.8H-879l-15.3,82.8h-25.5l15.4-82.8h-37.3l-16.1,87.3h-57l3.6-19.8h34.3l4-22.1l-34.2,0
				l3.6-19.7h35.5l4.6-25.6h-222.4l-12.7,69.1l-25.2-69.1h-38.7l-20.8,112.8h37l12.6-71.1l24.5,71.1h132.5l16.1-87.3h20.7
				l-16.1,87.3h348.6l10.1-55.1l16.3,55.1h37l-16.9-45l3.9-0.8c8.5-1.8,15.2-5.8,19.8-11.7c4.6-5.9,7-13.6,7-22.8
				C-630.1,219.6-634,211.7-642,206.2L-642,206.2z M-1108.8,284.9h-56.6l3.7-19.8h35.5l4-22.3h-35.2l3.4-19.6h56.5L-1108.8,284.9
				L-1108.8,284.9z M-672.5,246.9c-3.7,2.6-9.1,3.9-16.5,3.9h-7.3l5.6-30.3h5.4c6.1,0,10.6,1,13.7,3c2.4,1.6,5.3,4.7,5.3,10.5
				C-666.4,241.1-669.7,245-672.5,246.9L-672.5,246.9z"/>
		</g>
	</g>
</g>
<g id="Calque_3_2_">
</g>
<g id="Calque_7">
</g>
</svg>
