<?xml version="1.0" encoding="utf-8"?>
<!-- Generator: Adobe Illustrator 24.3.0, SVG Export Plug-In . SVG Version: 6.00 Build 0)  -->
<svg version="1.1" xmlns="http://www.w3.org/2000/svg" xmlns:xlink="http://www.w3.org/1999/xlink" x="0px" y="0px"
	 viewBox="0 0 570 269" style="enable-background:new 0 0 570 269;" xml:space="preserve">
<style type="text/css">
	.st0{fill:#179BD7;}
	.st1{opacity:0.1;}
	.st2{display:none;clip-path:url(#SVGID_2_);}
	.st3{clip-path:url(#SVGID_2_);}
	.st4{fill:#1C1C1C;}
	.st5{fill:#4F4E4E;}
	.st6{fill:url(#SVGID_3_);}
	.st7{fill:#FFFFFF;}
	.st8{fill:#D8D8D8;}
	.st9{fill:#EFEFEF;}
	.st10{clip-path:url(#SVGID_5_);}
	.st11{fill:none;}
	.st12{opacity:0.1;clip-path:url(#SVGID_5_);}
	.st13{fill:url(#SVGID_6_);}
</style>
<g id="Calque_1">
	<g id="Calque_1_1_">
		<g id="extra_12_">
			<polygon class="st0" points="362.6,0 333.7,0 246.1,0 219.8,0 144.7,0 106.7,0 0,0 0,269 262.2,269 319,269 446.4,269 488.4,269 
				570,269 570,0 			"/>
		</g>
		<g class="st1">
			<defs>
				<polygon id="SVGID_1_" class="st1" points="362.6,0 333.7,0 246.1,0 219.8,0 144.7,0 106.7,0 0,0 0,269 262.2,269 319,269 
					446.4,269 488.4,269 570,269 570,0 				"/>
			</defs>
			<clipPath id="SVGID_2_">
				<use xlink:href="#SVGID_1_"  style="overflow:visible;"/>
			</clipPath>
			<path class="st2" d="M329.6,301.9v-5.3h2.1v-1.1h-5.4v1.1h2.1v5.3H329.6z M340.2,301.9v-6.4h-1.7l-1.9,4.4l-1.9-4.4H333v6.4h1.2
				v-4.8l1.8,4.2h1.2l1.8-4.2v4.8H340.2z M628.5,255.3v-68.7c0-25.9-16.5-43.3-43.1-43.5c-14-0.2-28.4,4.1-38.5,19.5
				c-7.6-12.1-19.5-19.5-36.2-19.5c-11.7,0-23.1,3.4-32.1,16.3v-13.5h-23.8v109.5h24v-60.7c0-19,10.5-29.1,26.8-29.1
				c15.8,0,23.8,10.3,23.8,28.9v60.9h24v-60.7c0-19,11-29.1,26.8-29.1c16.3,0,24,10.3,24,28.9v60.9H628.5z M984.4,145.8h-38.9v-33.2
				h-24v33.2h-22.2v21.8h22.2v49.9c0,25.4,9.8,40.5,38,40.5c10.3,0,22.2-3.2,29.8-8.5l-6.9-20.4c-7.1,4.1-14.9,6.2-21.1,6.2
				c-11.9,0-15.8-7.3-15.8-18.3v-49.5h38.9V145.8z M1187.6,143.1c-13.7,0-22.7,6.4-28.9,16v-13.3h-23.6v109.5h23.8v-61.4
				c0-18.1,7.8-28.2,23.4-28.2c4.8,0,9.8,0.7,14.9,2.7l7.3-22.4C1199.3,144,1192.4,143.1,1187.6,143.1L1187.6,143.1z M880.4,154.6
				c-11.5-7.6-27.3-11.5-44.7-11.5c-27.7,0-45.6,13.3-45.6,35c0,17.9,13.3,28.9,37.8,32.3l11.2,1.6c13.1,1.8,19.2,5.3,19.2,11.5
				c0,8.5-8.7,13.3-25,13.3c-16.5,0-28.4-5.3-36.4-11.5l-11.2,18.6c13.1,9.6,29.5,14.2,47.4,14.2c31.6,0,49.9-14.9,49.9-35.7
				c0-19.2-14.4-29.3-38.2-32.8l-11.2-1.6c-10.3-1.4-18.6-3.4-18.6-10.8c0-8,7.8-12.8,20.8-12.8c14,0,27.5,5.3,34.1,9.4L880.4,154.6
				z M1518.6,143.1c-13.7,0-22.7,6.4-28.9,16v-13.3h-23.6v109.5h23.8v-61.4c0-18.1,7.8-28.2,23.4-28.2c4.8,0,9.9,0.7,14.9,2.7
				l7.3-22.4C1530.2,144,1523.4,143.1,1518.6,143.1L1518.6,143.1z M1211.6,200.6c0,33.2,23.1,57.5,58.4,57.5
				c16.5,0,27.5-3.7,39.4-13.1l-11.5-19.2c-8.9,6.4-18.3,9.8-28.6,9.8c-19-0.2-33-14-33-35c0-21.1,14-34.8,33-35
				c10.3,0,19.7,3.4,28.6,9.8l11.5-19.2c-11.9-9.4-22.9-13.1-39.4-13.1C1234.8,143.1,1211.6,167.4,1211.6,200.6L1211.6,200.6z
				 M1434.7,200.6v-54.7h-23.8v13.3c-7.6-9.8-19-16-34.6-16c-30.7,0-54.7,24.1-54.7,57.5c0,33.4,24,57.5,54.7,57.5
				c15.6,0,27-6.2,34.6-16v13.3h23.8V200.6z M1346.1,200.6c0-19.2,12.6-35,33.2-35c19.7,0,33,15.1,33,35s-13.3,35-33,35
				C1358.7,235.6,1346.1,219.8,1346.1,200.6L1346.1,200.6z M1058.6,143.1c-32.1,0-54.5,23.4-54.5,57.5c0,34.8,23.4,57.5,56.1,57.5
				c16.5,0,31.6-4.1,44.9-15.3l-11.7-17.6c-9.2,7.3-20.8,11.5-31.8,11.5c-15.3,0-29.3-7.1-32.8-26.8h81.3c0.2-3,0.5-6,0.5-9.2
				C1110.4,166.5,1089.3,143.1,1058.6,143.1L1058.6,143.1z M1058.2,164.4c15.3,0,25.2,9.6,27.7,26.6h-56.8
				C1031.6,175.2,1041.2,164.4,1058.2,164.4L1058.2,164.4z M1655.8,200.6v-98.7h-23.8v57.3c-7.6-9.8-19-16-34.6-16
				c-30.7,0-54.7,24.1-54.7,57.5c0,33.4,24,57.5,54.7,57.5c15.6,0,27-6.2,34.6-16v13.3h23.8V200.6z M1683.6,245.2
				c1,0,1.9,0.2,2.8,0.5c0.9,0.4,1.6,0.9,2.2,1.5c0.6,0.6,1.1,1.4,1.5,2.2c0.4,0.8,0.6,1.7,0.6,2.7c0,1-0.2,1.9-0.6,2.7
				c-0.4,0.8-0.9,1.6-1.5,2.2c-0.6,0.6-1.4,1.1-2.2,1.5c-0.9,0.4-1.8,0.6-2.8,0.6c-1,0-1.9-0.2-2.8-0.6c-0.9-0.4-1.6-0.9-2.3-1.5
				c-0.6-0.6-1.1-1.4-1.5-2.2c-0.4-0.8-0.6-1.7-0.6-2.7c0-1,0.2-1.9,0.6-2.7c0.4-0.8,0.9-1.6,1.5-2.2c0.6-0.6,1.4-1.1,2.3-1.5
				S1682.6,245.2,1683.6,245.2z M1683.6,257.6c0.7,0,1.4-0.1,2.1-0.4c0.6-0.3,1.2-0.7,1.7-1.2c0.5-0.5,0.9-1.1,1.2-1.7
				c0.3-0.7,0.4-1.4,0.4-2.1c0-0.7-0.1-1.5-0.4-2.1c-0.3-0.7-0.7-1.2-1.2-1.7c-0.5-0.5-1.1-0.9-1.7-1.1c-0.6-0.3-1.3-0.4-2.1-0.4
				c-0.8,0-1.5,0.1-2.1,0.4c-0.7,0.3-1.2,0.7-1.7,1.1c-0.5,0.5-0.9,1.1-1.1,1.7c-0.3,0.7-0.4,1.4-0.4,2.1c0,0.7,0.1,1.5,0.4,2.1
				c0.3,0.7,0.7,1.2,1.1,1.7c0.5,0.5,1.1,0.9,1.7,1.2C1682.1,257.4,1682.8,257.6,1683.6,257.6z M1684,248.9c0.8,0,1.5,0.2,1.9,0.6
				c0.4,0.4,0.7,0.9,0.7,1.5c0,0.5-0.2,1-0.5,1.3c-0.4,0.3-0.9,0.6-1.5,0.6l2.1,2.4h-1.7l-2-2.4h-0.6v2.4h-1.4v-6.5H1684z
				 M1682.4,250.1v1.7h1.6c0.4,0,0.7-0.1,0.9-0.2c0.2-0.1,0.3-0.4,0.3-0.7c0-0.3-0.1-0.5-0.3-0.6c-0.2-0.1-0.5-0.2-0.9-0.2H1682.4z
				 M1567.1,200.6c0-19.2,12.6-35,33.2-35c19.7,0,33,15.1,33,35s-13.3,35-33,35C1579.7,235.6,1567.1,219.8,1567.1,200.6
				L1567.1,200.6z M762.7,200.6v-54.7h-23.8v13.3c-7.6-9.8-19-16-34.6-16c-30.7,0-54.7,24.1-54.7,57.5c0,33.4,24,57.5,54.7,57.5
				c15.6,0,27-6.2,34.6-16v13.3h23.8V200.6z M674.1,200.6c0-19.2,12.6-35,33.2-35c19.7,0,33,15.1,33,35s-13.3,35-33,35
				C686.7,235.6,674.1,219.8,674.1,200.6z M64.3,333.7c1.3,1.1,2.6,2.2,4,3.3c-26.1,17.4-57.4,27.5-91.1,27.5
				c-90.9,0-164.6-73.7-164.6-164.6S-113.7,35.3-22.8,35.3c33.7,0,65,10.1,91.1,27.5c-1.3,1.1-2.7,2.2-4,3.3
				c-38.8,33.7-61,82.5-61,133.8C3.3,251.2,25.6,300,64.3,333.7z M180.7,35.3c-33.7,0-65,10.1-91.1,27.5c1.3,1.1,2.7,2.2,4,3.3
				c38.8,33.7,61,82.5,61,133.8c0,51.3-22.2,100.1-61,133.8c-1.3,1.1-2.6,2.2-4,3.3c26.1,17.4,57.4,27.5,91.1,27.5
				c90.9,0,164.6-73.7,164.6-164.6C345.3,109,271.6,35.3,180.7,35.3z M78.9,70.5c-2.1,1.7-4.2,3.4-6.2,5.2
				C38,105.9,16.1,150.3,16.1,199.9c0,49.6,22,94,56.6,124.2c2,1.8,4.1,3.5,6.2,5.2c2.1-1.7,4.2-3.4,6.2-5.2
				c34.7-30.2,56.6-74.6,56.6-124.2c0-49.6-22-94-56.6-124.2C83.1,73.9,81.1,72.2,78.9,70.5"/>
			<g class="st3">
				<path d="M331,60.5h-62.7c-4.3,0-7.9,3.1-8.6,7.4l-25.4,160.9c-0.4,2.9,1.5,5.5,4.4,6c0.3,0,0.5,0.1,0.8,0.1h30
					c4.3,0,8-3.1,8.6-7.4l6.8-43.4c0.7-4.2,4.3-7.4,8.6-7.4h19.9c41.3,0,65.2-20,71.4-59.6c2.8-17.3,0.1-31-8-40.5
					C367.8,66.1,352,60.5,331,60.5z M338.2,119.3c-3.4,22.5-20.6,22.5-37.3,22.5h-9.5l6.6-42c0.4-2.5,2.6-4.4,5.2-4.4h4.3
					c11.3,0,22,0,27.5,6.5C338.4,105.7,339.4,111.4,338.2,119.3z M518.5,118.6h-30c-2.6,0-4.8,1.9-5.2,4.4l-1.3,8.4l-2.1-3
					c-6.5-9.4-21-12.6-35.5-12.6c-33.2,0-61.6,25.1-67.1,60.4c-2.9,17.6,1.2,34.4,11.2,46.2c9.2,10.8,22.3,15.3,37.8,15.3
					c26.8,0,41.6-17.2,41.6-17.2l-1.3,8.3c-0.5,2.9,1.5,5.5,4.3,6c0.3,0,0.5,0.1,0.8,0.1h27.1c4.3,0,8-3.1,8.6-7.4l16.2-102.8
					c0.5-2.8-1.5-5.5-4.3-6C519.1,118.6,518.8,118.6,518.5,118.6z M476.6,177c-2.9,17.2-16.5,28.7-33.9,28.7
					c-8.7,0-15.7-2.8-20.2-8.1c-4.4-5.3-6.1-12.8-4.7-21.1c2.7-17,16.6-28.9,33.7-28.9c8.5,0,15.5,2.8,20,8.2
					C476.1,161.2,477.9,168.7,476.6,177z M678.5,118.6h-30.2c-2.9,0-5.6,1.4-7.2,3.8l-41.6,61.3l-17.7-58.9
					c-1.1-3.7-4.5-6.2-8.4-6.2h-29.7c-2.9,0-5.2,2.3-5.2,5.2c0,0.6,0.1,1.2,0.3,1.7l33.3,97.6l-31.3,44.1c-1.7,2.4-1.1,5.6,1.2,7.3
					c0.9,0.6,1.9,1,3,1h30.2c2.9,0,5.5-1.4,7.2-3.7l100.4-145c1.6-2.4,1.1-5.6-1.3-7.3C680.6,118.9,679.6,118.6,678.5,118.6
					L678.5,118.6z"/>
				<path d="M778.5,60.5h-62.8c-4.3,0-7.9,3.1-8.6,7.4l-25.4,160.9c-0.5,2.8,1.5,5.5,4.3,6c0.3,0,0.5,0.1,0.8,0.1h32.2
					c3,0,5.6-2.2,6-5.2l7.2-45.6c0.7-4.2,4.3-7.4,8.6-7.4h19.9c41.3,0,65.2-20,71.4-59.6c2.8-17.3,0.1-31-8-40.5
					C815.3,66.1,799.5,60.5,778.5,60.5z M785.7,119.3c-3.4,22.5-20.6,22.5-37.3,22.5H739l6.7-42c0.4-2.5,2.6-4.4,5.2-4.4h4.3
					c11.3,0,22,0,27.5,6.5C786,105.7,787,111.4,785.7,119.3z M966,118.6h-30c-2.6,0-4.8,1.9-5.2,4.4l-1.3,8.4l-2.1-3
					c-6.5-9.4-21-12.6-35.5-12.6c-33.2,0-61.6,25.1-67.1,60.4c-2.9,17.6,1.2,34.4,11.2,46.2c9.2,10.8,22.3,15.3,37.8,15.3
					c26.8,0,41.6-17.2,41.6-17.2l-1.3,8.3c-0.5,2.9,1.5,5.5,4.3,6c0.3,0,0.6,0.1,0.8,0.1h27.1c4.3,0,7.9-3.1,8.6-7.4l16.2-102.8
					c0.4-2.9-1.5-5.5-4.4-6C966.6,118.6,966.3,118.6,966,118.6z M924.2,177c-2.9,17.2-16.5,28.7-33.9,28.7c-8.7,0-15.7-2.8-20.2-8.1
					c-4.4-5.3-6.1-12.8-4.7-21.1c2.7-17,16.6-28.9,33.7-28.9c8.5,0,15.5,2.8,20,8.2C923.7,161.2,925.5,168.7,924.2,177z
					 M1001.5,64.9l-25.8,163.8c-0.5,2.8,1.5,5.5,4.3,6c0.3,0,0.5,0.1,0.8,0.1h25.9c4.3,0,8-3.1,8.6-7.4l25.4-160.9
					c0.5-2.9-1.5-5.5-4.3-6c-0.3,0-0.5-0.1-0.8-0.1h-29C1004,60.5,1001.9,62.4,1001.5,64.9z"/>
				<path d="M-26.4,266.1l4.8-30.5l-10.7-0.2h-51l35.5-224.9C-47.6,9-46.4,8-44.9,8h86.1c28.6,0,48.3,5.9,58.6,17.7
					c4.8,5.5,7.9,11.3,9.4,17.6c1.6,6.6,1.6,14.6,0.1,24.3l-0.1,0.7v6.2l4.8,2.7c3.7,1.9,7,4.4,9.8,7.4c4.1,4.7,6.8,10.7,7.9,17.8
					c1.2,7.3,0.8,16-1.1,25.8c-2.2,11.3-5.8,21.1-10.6,29.2c-4.2,7.2-9.9,13.5-16.7,18.3c-6.4,4.5-14,8-22.6,10.2
					c-8.3,2.2-17.8,3.3-28.2,3.3h-6.7c-4.8,0-9.4,1.7-13.1,4.8c-3.6,3.1-6.1,7.4-6.8,12.2l-0.5,2.7l-8.5,53.7l-0.4,2
					c-0.1,0.6-0.3,0.9-0.5,1.1c-0.2,0.2-0.6,0.3-0.9,0.3C15,266.1-26.4,266.1-26.4,266.1z"/>
				<path class="st4" d="M118.4,68.9c-0.3,1.6-0.6,3.3-0.9,5c-11.3,58.3-50.2,78.4-99.8,78.4H-7.5c-6.1,0-11.2,4.4-12.1,10.4
					l-12.9,82l-3.7,23.2c-0.6,3.5,1.8,6.8,5.4,7.4c0.3,0.1,0.7,0.1,1,0.1H15c5.3,0,9.8-3.9,10.6-9.1l0.4-2.3l8.4-53.5l0.5-2.9
					c0.8-5.2,5.3-9.1,10.6-9.1h6.7c43.4,0,77.4-17.6,87.3-68.6c4.1-21.3,2-39.1-9-51.6C127.2,74.5,123.1,71.3,118.4,68.9z"/>
				<path class="st5" d="M106.6,64.2c-3.6-1-7.3-1.9-11-2.4c-7.4-1.1-14.8-1.7-22.3-1.6H5.8C0.5,60.1-4,64-4.8,69.2l-14.3,90.9
					l-0.4,2.7c0.9-6,6.1-10.4,12.1-10.4h25.2c49.6,0,88.4-20.1,99.8-78.4c0.3-1.7,0.6-3.4,0.9-5c-3-1.6-6.1-2.9-9.3-3.9
					C108.3,64.7,107.4,64.5,106.6,64.2z"/>
				<path d="M-4.8,69.2C-4,64,0.5,60.1,5.8,60.1h67.5c8,0,15.4,0.5,22.3,1.6c4.6,0.7,9.1,1.8,13.6,3.2c3.3,1.1,6.5,2.4,9.3,3.9
					c3.4-21.5,0-36.2-11.7-49.5C93.9,4.9,70.8-1.4,41.1-1.4h-86.1C-51-1.4-56.1,3-57.1,9l-35.8,227.2c-0.6,4,2.1,7.8,6.1,8.5
					c0.4,0.1,0.8,0.1,1.1,0.1h53.1l13.3-84.6C-19.2,160.1-4.8,69.2-4.8,69.2z"/>
			</g>
		</g>
		
			<linearGradient id="SVGID_3_" gradientUnits="userSpaceOnUse" x1="285" y1="-432.6138" x2="285" y2="-745.5254" gradientTransform="matrix(1 0 0 -1 0 -427.8187)">
			<stop  offset="8.366176e-03" style="stop-color:#253B80;stop-opacity:0"/>
			<stop  offset="0.9959" style="stop-color:#179BD7"/>
		</linearGradient>
		<rect x="0" y="-0.8" class="st6" width="570" height="269.9"/>
		<g>
			<path class="st7" d="M251.1,116.4h-14.9c-1,0-1.9,0.7-2,1.7l-6,38.1c-0.1,0.7,0.4,1.3,1,1.4c0.1,0,0.1,0,0.2,0h7.1
				c1,0,1.9-0.7,2-1.7l1.6-10.3c0.2-1,1-1.7,2-1.7h4.7c9.8,0,15.5-4.7,16.9-14.1c0.7-4.1,0-7.3-1.9-9.6
				C259.8,117.7,256.1,116.4,251.1,116.4z M252.8,130.3c-0.8,5.3-4.9,5.3-8.8,5.3h-2.2l1.6-10c0.1-0.6,0.6-1,1.2-1h1
				c2.7,0,5.2,0,6.5,1.5C252.9,127.1,253.1,128.4,252.8,130.3z M295.6,130.1h-7.1c-0.6,0-1.1,0.4-1.2,1l-0.3,2l-0.5-0.7
				c-1.5-2.2-5-3-8.4-3c-7.9,0-14.6,6-15.9,14.3c-0.7,4.2,0.3,8.2,2.7,10.9c2.2,2.6,5.3,3.6,9,3.6c6.3,0,9.9-4.1,9.9-4.1l-0.3,2
				c-0.1,0.7,0.4,1.3,1,1.4c0.1,0,0.1,0,0.2,0h6.4c1,0,1.9-0.7,2-1.7l3.8-24.4c0.1-0.7-0.4-1.3-1-1.4
				C295.7,130.1,295.6,130.1,295.6,130.1z M285.6,144c-0.7,4.1-3.9,6.8-8,6.8c-2.1,0-3.7-0.7-4.8-1.9c-1.1-1.2-1.5-3-1.1-5
				c0.6-4,3.9-6.9,8-6.9c2,0,3.7,0.7,4.7,1.9C285.5,140.2,286,142,285.6,144z M333.5,130.1h-7.2c-0.7,0-1.3,0.3-1.7,0.9l-9.9,14.5
				l-4.2-14c-0.3-0.9-1.1-1.5-2-1.5h-7c-0.7,0-1.2,0.6-1.2,1.2c0,0.1,0,0.3,0.1,0.4l7.9,23.1l-7.4,10.5c-0.4,0.6-0.3,1.3,0.3,1.7
				c0.2,0.1,0.5,0.2,0.7,0.2h7.1c0.7,0,1.3-0.3,1.7-0.9l23.8-34.4c0.4-0.6,0.3-1.3-0.3-1.7C334,130.2,333.8,130.1,333.5,130.1
				L333.5,130.1z"/>
			<path class="st7" d="M357.2,116.4h-14.9c-1,0-1.9,0.7-2,1.7l-6,38.1c-0.1,0.7,0.4,1.3,1,1.4c0.1,0,0.1,0,0.2,0h7.6
				c0.7,0,1.3-0.5,1.4-1.2l1.7-10.8c0.2-1,1-1.7,2-1.7h4.7c9.8,0,15.5-4.7,16.9-14.1c0.7-4.1,0-7.3-1.9-9.6
				C365.9,117.7,362.2,116.4,357.2,116.4z M358.9,130.3c-0.8,5.3-4.9,5.3-8.8,5.3h-2.2l1.6-10c0.1-0.6,0.6-1,1.2-1h1
				c2.7,0,5.2,0,6.5,1.5C359,127.1,359.2,128.4,358.9,130.3z M401.7,130.1h-7.1c-0.6,0-1.1,0.4-1.2,1l-0.3,2l-0.5-0.7
				c-1.5-2.2-5-3-8.4-3c-7.9,0-14.6,6-15.9,14.3c-0.7,4.2,0.3,8.2,2.7,10.9c2.2,2.6,5.3,3.6,9,3.6c6.3,0,9.9-4.1,9.9-4.1l-0.3,2
				c-0.1,0.7,0.4,1.3,1,1.4c0.1,0,0.1,0,0.2,0h6.4c1,0,1.9-0.7,2-1.7l3.9-24.4c0.1-0.7-0.4-1.3-1-1.4
				C401.8,130.1,401.7,130.1,401.7,130.1z M391.7,144c-0.7,4.1-3.9,6.8-8,6.8c-2.1,0-3.7-0.7-4.8-1.9c-1.1-1.2-1.4-3-1.1-5
				c0.6-4,3.9-6.9,8-6.9c2,0,3.7,0.7,4.7,1.9C391.6,140.2,392,142,391.7,144z M410.1,117.4l-6.1,38.8c-0.1,0.7,0.4,1.3,1,1.4
				c0.1,0,0.1,0,0.2,0h6.1c1,0,1.9-0.7,2-1.7l6-38.1c0.1-0.7-0.4-1.3-1-1.4c-0.1,0-0.1,0-0.2,0h-6.9
				C410.7,116.4,410.2,116.8,410.1,117.4z"/>
			<path class="st7" d="M166.4,165.1l1.1-7.2l-2.5-0.1h-12.1l8.4-53.3c0.1-0.3,0.3-0.6,0.7-0.6h20.4c6.8,0,11.4,1.4,13.9,4.2
				c1.1,1.3,1.9,2.7,2.2,4.2c0.4,1.6,0.4,3.5,0,5.8l0,0.2v1.5l1.1,0.6c0.9,0.4,1.7,1,2.3,1.8c1,1.1,1.6,2.5,1.9,4.2
				c0.3,1.7,0.2,3.8-0.3,6.1c-0.5,2.7-1.4,5-2.5,6.9c-1,1.7-2.4,3.2-4,4.3c-1.5,1.1-3.3,1.9-5.3,2.4c-2,0.5-4.2,0.8-6.7,0.8h-1.6
				c-1.1,0-2.2,0.4-3.1,1.1c-0.9,0.7-1.4,1.8-1.6,2.9l-0.1,0.7l-2,12.7l-0.1,0.5c0,0.1-0.1,0.2-0.1,0.3c-0.1,0-0.1,0.1-0.2,0.1
				C176.2,165.1,166.4,165.1,166.4,165.1z"/>
			<path class="st8" d="M200.7,118.4c-0.1,0.4-0.1,0.8-0.2,1.2c-2.7,13.8-11.9,18.6-23.6,18.6h-6c-1.4,0-2.6,1-2.9,2.5l-3.1,19.4
				l-0.9,5.5c-0.1,0.8,0.4,1.6,1.3,1.8c0.1,0,0.2,0,0.2,0h10.6c1.3,0,2.3-0.9,2.5-2.2l0.1-0.5l2-12.7l0.1-0.7
				c0.2-1.2,1.3-2.2,2.5-2.2h1.6c10.3,0,18.3-4.2,20.7-16.3c1-5,0.5-9.3-2.1-12.2C202.8,119.7,201.8,118.9,200.7,118.4z"/>
			<path class="st9" d="M197.9,117.3c-0.9-0.2-1.7-0.4-2.6-0.6c-1.7-0.3-3.5-0.4-5.3-0.4h-16c-1.3,0-2.3,0.9-2.5,2.2l-3.4,21.5
				l-0.1,0.6c0.2-1.4,1.4-2.5,2.9-2.5h6c11.8,0,21-4.8,23.6-18.6c0.1-0.4,0.1-0.8,0.2-1.2c-0.7-0.4-1.4-0.7-2.2-0.9
				C198.3,117.4,198.1,117.3,197.9,117.3z"/>
			<path class="st7" d="M171.5,118.4c0.2-1.2,1.3-2.2,2.5-2.2h16c1.9,0,3.7,0.1,5.3,0.4c1.1,0.2,2.2,0.4,3.2,0.8
				c0.8,0.3,1.5,0.6,2.2,0.9c0.8-5.1,0-8.6-2.8-11.7c-3-3.5-8.5-4.9-15.6-4.9H162c-1.4,0-2.7,1-2.9,2.5l-8.5,53.9
				c-0.2,1,0.5,1.9,1.5,2c0.1,0,0.2,0,0.3,0H165l3.2-20.1C168.1,140,171.5,118.4,171.5,118.4z"/>
		</g>
	</g>
</g>
<g id="Calque_8">
	<g id="Calque_5_2_">
		<g id="extra_14_">
			<polygon class="st0" points="-809.6,-285.9 -864.3,-285.9 -1030.3,-285.9 -1080.1,-285.9 -1222.4,-285.9 -1294.4,-285.9 
				-1496.6,-285.9 -1496.6,794.1 -999.8,794.1 -892.2,794.1 -650.8,794.1 -571.2,794.1 -416.6,794.1 -416.6,-285.9 			"/>
		</g>
		<g>
			<defs>
				<rect id="SVGID_4_" x="-1496.6" y="-285.9" width="1080" height="1080"/>
			</defs>
			<clipPath id="SVGID_5_">
				<use xlink:href="#SVGID_4_"  style="overflow:visible;"/>
			</clipPath>
			<g id="extra_2_" class="st10">
				<polygon class="st11" points="-809.6,-285.9 -864.3,-285.9 -1030.3,-285.9 -1080.1,-285.9 -1222.4,-285.9 -1294.4,-285.9 
					-1496.6,-285.9 -1496.6,794.1 -999.8,794.1 -892.2,794.1 -650.8,794.1 -571.2,794.1 -416.6,794.1 -416.6,-285.9 				"/>
			</g>
			<g class="st12">
				<path d="M-728.3,77.6H-873c-9.9,0-18.3,7.2-19.9,17l-58.5,371.2c-1,6.6,3.5,12.8,10.1,13.8c0.6,0.1,1.3,0.1,1.9,0.1h69.1
					c9.9,0,18.3-7.2,19.9-17l15.8-100.1c1.5-9.8,10-17,19.9-17h45.8c95.3,0,150.4-46.1,164.7-137.6c6.5-40,0.3-71.4-18.5-93.4
					C-643.3,90.4-679.8,77.6-728.3,77.6z M-711.6,213.1c-7.9,51.9-47.6,51.9-86,51.9h-21.8l15.3-97c0.9-5.9,6-10.2,11.9-10.2h10
					c26.1,0,50.8,0,63.5,14.9C-711,181.7-708.7,194.9-711.6,213.1z M-295.6,211.5h-69.3c-5.9,0-11,4.3-11.9,10.2l-3.1,19.4l-4.8-7
					c-15-21.8-48.5-29.1-81.9-29.1c-76.6,0-142,58-154.8,139.4c-6.6,40.6,2.8,79.4,25.8,106.5c21.1,24.9,51.3,35.3,87.3,35.3
					c61.7,0,95.9-39.7,95.9-39.7l-3.1,19.3c-1.1,6.6,3.4,12.8,10,13.8c0.6,0.1,1.3,0.2,1.9,0.2h62.4c9.9,0,18.3-7.2,19.9-17
					l37.5-237.2c1.1-6.6-3.4-12.7-10-13.8C-294.3,211.5-294.9,211.5-295.6,211.5z M-392.2,346.4c-6.7,39.6-38.1,66.2-78.2,66.2
					c-20.1,0-36.2-6.5-46.5-18.7c-10.2-12.1-14.1-29.4-10.9-48.7c6.2-39.3,38.2-66.7,77.7-66.7c19.7,0,35.7,6.5,46.2,18.9
					C-393.4,309.8-389.2,327.2-392.2,346.4z M73.6,211.5H3.9c-6.7,0-12.9,3.3-16.7,8.8l-96.1,141.5l-40.7-136
					c-2.6-8.5-10.4-14.3-19.3-14.3h-68.4c-6.7,0-12.1,5.4-12.1,12c0,1.3,0.2,2.7,0.6,3.9l76.7,225.2l-72.1,101.8
					c-3.9,5.4-2.6,13,2.9,16.8c2,1.5,4.5,2.2,7,2.2h69.6c6.6,0,12.8-3.2,16.5-8.6L83.5,230.4c3.8-5.5,2.4-13-3-16.8
					C78.4,212.2,76,211.5,73.6,211.5L73.6,211.5z"/>
				<path d="M304.2,77.6H159.4c-9.9,0-18.3,7.2-19.9,17L81,465.7c-1,6.6,3.4,12.7,10,13.8c0.6,0.1,1.3,0.1,1.9,0.1h74.3
					c6.9,0,12.8-5.1,13.9-11.9l16.6-105.2c1.5-9.8,10-17,19.9-17h45.8c95.4,0,150.4-46.1,164.8-137.6c6.5-40,0.3-71.4-18.5-93.4
					C389.1,90.4,352.6,77.6,304.2,77.6z M320.9,213.1c-7.9,51.9-47.6,51.9-86,51.9h-21.8l15.3-97c0.9-5.9,6-10.2,11.9-10.2h10
					c26.1,0,50.8,0,63.5,14.9C321.5,181.7,323.8,194.9,320.9,213.1z M736.8,211.5h-69.3c-5.9,0-11,4.3-11.9,10.2l-3.1,19.4l-4.9-7
					c-15-21.8-48.4-29.1-81.8-29.1c-76.6,0-142,58-154.7,139.4c-6.6,40.6,2.8,79.4,25.8,106.5c21.2,24.9,51.3,35.3,87.3,35.3
					c61.7,0,95.9-39.7,95.9-39.7l-3.1,19.3c-1.1,6.6,3.4,12.8,10,13.8c0.6,0.1,1.3,0.2,1.9,0.2h62.4c9.9,0,18.3-7.2,19.9-17
					l37.5-237.2c1-6.6-3.5-12.8-10.1-13.8C738.1,211.5,737.5,211.5,736.8,211.5z M640.2,346.4c-6.6,39.6-38.1,66.2-78.2,66.2
					c-20.1,0-36.2-6.5-46.5-18.7c-10.2-12.1-14.1-29.4-10.9-48.7c6.3-39.3,38.2-66.7,77.7-66.7c19.7,0,35.7,6.5,46.2,18.9
					C639.1,309.8,643.3,327.2,640.2,346.4z M818.6,87.8l-59.4,378c-1,6.6,3.4,12.7,10,13.8c0.6,0.1,1.3,0.1,1.9,0.1h59.7
					c9.9,0,18.3-7.2,19.9-17l58.6-371.1c1-6.6-3.5-12.8-10-13.8c-0.6-0.1-1.2-0.1-1.9-0.1h-66.9C824.5,77.6,819.5,81.9,818.6,87.8z"
					/>
				<path d="M-1552.5,551.8l11.1-70.3l-24.7-0.6h-117.7l81.8-518.8c0.5-3.3,3.3-5.7,6.6-5.7h198.5c65.9,0,111.4,13.7,135.1,40.8
					c11.1,12.7,18.2,26,21.7,40.6c3.6,15.3,3.7,33.6,0.1,56l-0.3,1.6v14.3l11.1,6.3c8.5,4.3,16.1,10.1,22.5,17.2
					c9.5,10.9,15.7,24.7,18.3,41c2.7,16.8,1.8,36.8-2.6,59.5c-5.1,26.1-13.3,48.8-24.4,67.4c-9.8,16.6-22.9,31.1-38.6,42.3
					c-14.7,10.5-32.2,18.4-52,23.5c-19.2,5-41,7.5-65,7.5h-15.5c-11,0-21.8,4-30.2,11.1c-8.4,7.2-14,17.2-15.7,28.1l-1.2,6.3
					l-19.6,123.9l-0.9,4.6c-0.2,1.4-0.6,2.2-1.2,2.6c-0.6,0.5-1.3,0.7-2,0.7C-1457.1,551.8-1552.5,551.8-1552.5,551.8z"/>
				<path class="st4" d="M-1218.5,97c-0.6,3.8-1.3,7.7-2,11.6c-26.2,134.4-115.8,180.9-230.1,180.9h-58.2c-14,0-25.8,10.2-28,24
					l-29.8,189.1l-8.4,53.6c-1.3,8.1,4.3,15.8,12.4,17c0.8,0.1,1.5,0.2,2.3,0.2h103.3c12.2,0,22.6-8.9,24.6-21l1-5.2l19.5-123.4
					l1.2-6.8c1.9-12.1,12.3-21,24.6-21h15.5c100.1,0,178.4-40.6,201.3-158.2c9.6-49.1,4.6-90.1-20.7-119
					C-1198.2,109.9-1207.8,102.5-1218.5,97z"/>
				<path class="st5" d="M-1245.9,86.1c-8.4-2.4-16.9-4.3-25.5-5.7c-17-2.6-34.2-3.9-51.3-3.7h-155.6c-12.2,0-22.7,8.9-24.5,21
					l-33.1,209.7l-1,6.1c2.1-13.8,14-24,28-24h58.2c114.4,0,204-46.5,230.1-180.9c0.8-4,1.4-7.9,2-11.6c-6.9-3.6-14.1-6.7-21.5-9.1
					C-1242,87.3-1243.9,86.7-1245.9,86.1z"/>
				<path d="M-1502.8,97.7c1.9-12.1,12.3-21,24.5-21h155.6c18.4,0,35.6,1.2,51.3,3.7c10.6,1.7,21.1,4.2,31.3,7.5
					c7.7,2.6,14.9,5.6,21.5,9.1c7.8-49.7-0.1-83.5-26.9-114.1c-29.6-33.7-83.1-48.1-151.4-48.1h-198.5c-14,0-25.9,10.2-28,24
					l-82.7,524.1c-1.5,9.3,4.9,18,14.2,19.5c0.9,0.1,1.8,0.2,2.6,0.2h122.6l30.8-195.2C-1535.9,307.3-1502.8,97.7-1502.8,97.7z"/>
			</g>
		</g>
		
			<linearGradient id="SVGID_6_" gradientUnits="userSpaceOnUse" x1="-956.5999" y1="-164.3245" x2="-956.5999" y2="-1416.0935" gradientTransform="matrix(1 0 0 -1 0 -427.8187)">
			<stop  offset="8.366176e-03" style="stop-color:#253B80;stop-opacity:0"/>
			<stop  offset="0.9959" style="stop-color:#179BD7"/>
		</linearGradient>
		<rect x="-1496.6" y="-285.9" class="st13" width="1080" height="1080"/>
	</g>
	<g>
		<path class="st7" d="M-1038.4,210.3h-35.9c-2.5,0-4.5,1.8-4.9,4.2l-14.5,92c-0.3,1.6,0.9,3.2,2.5,3.4c0.2,0,0.3,0,0.5,0h17.1
			c2.5,0,4.5-1.8,4.9-4.2l3.9-24.8c0.4-2.4,2.5-4.2,4.9-4.2h11.4c23.6,0,37.3-11.4,40.8-34.1c1.6-9.9,0.1-17.7-4.6-23.2
			C-1017.3,213.5-1026.4,210.3-1038.4,210.3z M-1034.2,243.9c-2,12.9-11.8,12.9-21.3,12.9h-5.4l3.8-24c0.2-1.5,1.5-2.5,3-2.5h2.5
			c6.5,0,12.6,0,15.8,3.7C-1034.1,236.1-1033.5,239.4-1034.2,243.9z M-931.1,243.5h-17.2c-1.5,0-2.7,1.1-3,2.5l-0.8,4.8l-1.2-1.7
			c-3.7-5.4-12-7.2-20.3-7.2c-19,0-35.2,14.4-38.4,34.6c-1.6,10.1,0.7,19.7,6.4,26.4c5.2,6.2,12.7,8.7,21.6,8.7
			c15.3,0,23.8-9.8,23.8-9.8l-0.8,4.8c-0.3,1.6,0.9,3.2,2.5,3.4c0.2,0,0.3,0,0.5,0h15.5c2.5,0,4.5-1.8,4.9-4.2l9.3-58.8
			c0.3-1.6-0.8-3.2-2.5-3.4C-930.8,243.5-930.9,243.5-931.1,243.5z M-955,277c-1.7,9.8-9.5,16.4-19.4,16.4c-5,0-9-1.6-11.5-4.6
			c-2.5-3-3.5-7.3-2.7-12.1c1.5-9.7,9.5-16.5,19.3-16.5c4.9,0,8.8,1.6,11.5,4.7C-955.3,267.9-954.3,272.2-955,277z M-839.6,243.5
			h-17.3c-1.7,0-3.2,0.8-4.1,2.2l-23.8,35.1l-10.1-33.7c-0.6-2.1-2.6-3.6-4.8-3.6h-17c-1.7,0-3,1.3-3,3c0,0.3,0.1,0.7,0.2,1l19,55.8
			l-17.9,25.2c-1,1.3-0.6,3.2,0.7,4.2c0.5,0.4,1.1,0.6,1.7,0.6h17.2c1.6,0,3.2-0.8,4.1-2.1l57.4-82.9c0.9-1.4,0.6-3.2-0.8-4.2
			C-838.4,243.7-839,243.5-839.6,243.5L-839.6,243.5z"/>
		<path class="st7" d="M-782.4,210.3h-35.9c-2.5,0-4.5,1.8-4.9,4.2l-14.5,92c-0.3,1.6,0.9,3.2,2.5,3.4c0.2,0,0.3,0,0.5,0h18.4
			c1.7,0,3.2-1.3,3.4-2.9l4.1-26.1c0.4-2.4,2.5-4.2,4.9-4.2h11.4c23.6,0,37.3-11.4,40.9-34.1c1.6-9.9,0.1-17.7-4.6-23.2
			C-761.3,213.5-770.4,210.3-782.4,210.3z M-778.2,243.9c-2,12.9-11.8,12.9-21.3,12.9h-5.4l3.8-24c0.2-1.5,1.5-2.5,2.9-2.5h2.5
			c6.5,0,12.6,0,15.8,3.7C-778.1,236.1-777.5,239.4-778.2,243.9z M-675.1,243.5h-17.2c-1.5,0-2.7,1.1-2.9,2.5l-0.8,4.8l-1.2-1.7
			c-3.7-5.4-12-7.2-20.3-7.2c-19,0-35.2,14.4-38.4,34.6c-1.6,10.1,0.7,19.7,6.4,26.4c5.2,6.2,12.7,8.7,21.6,8.7
			c15.3,0,23.8-9.8,23.8-9.8l-0.8,4.8c-0.3,1.6,0.9,3.2,2.5,3.4c0.2,0,0.3,0,0.5,0h15.5c2.5,0,4.5-1.8,4.9-4.2l9.3-58.8
			c0.3-1.6-0.9-3.2-2.5-3.4C-674.8,243.5-675,243.5-675.1,243.5z M-699.1,277c-1.6,9.8-9.5,16.4-19.4,16.4c-5,0-9-1.6-11.5-4.6
			c-2.5-3-3.5-7.3-2.7-12.1c1.6-9.7,9.5-16.5,19.3-16.5c4.9,0,8.8,1.6,11.5,4.7C-699.4,267.9-698.3,272.2-699.1,277z M-654.9,212.9
			l-14.7,93.7c-0.3,1.6,0.9,3.2,2.5,3.4c0.2,0,0.3,0,0.5,0h14.8c2.5,0,4.5-1.8,4.9-4.2l14.5-92c0.3-1.6-0.9-3.2-2.5-3.4
			c-0.2,0-0.3,0-0.5,0h-16.6C-653.4,210.3-654.6,211.4-654.9,212.9z"/>
		<path class="st7" d="M-1242.7,327.9l2.7-17.4l-6.1-0.1h-29.2l20.3-128.6c0.1-0.8,0.8-1.4,1.6-1.4h49.2c16.3,0,27.6,3.4,33.5,10.1
			c2.8,3.1,4.5,6.4,5.4,10.1c0.9,3.8,0.9,8.3,0,13.9l-0.1,0.4v3.5l2.8,1.6c2.1,1.1,4,2.5,5.6,4.3c2.4,2.7,3.9,6.1,4.5,10.2
			c0.7,4.2,0.4,9.1-0.6,14.8c-1.3,6.5-3.3,12.1-6,16.7c-2.4,4.1-5.7,7.7-9.6,10.5c-3.7,2.6-8,4.6-12.9,5.8
			c-4.8,1.2-10.2,1.9-16.1,1.9h-3.8c-2.7,0-5.4,1-7.5,2.8c-2.1,1.8-3.5,4.3-3.9,7l-0.3,1.6l-4.8,30.7l-0.2,1.1
			c-0.1,0.4-0.2,0.5-0.3,0.7c-0.1,0.1-0.3,0.2-0.5,0.2C-1219.1,327.9-1242.7,327.9-1242.7,327.9z"/>
		<path class="st8" d="M-1159.9,215.1c-0.1,0.9-0.3,1.9-0.5,2.9c-6.5,33.3-28.7,44.8-57.1,44.8h-14.4c-3.5,0-6.4,2.5-6.9,5.9
			l-7.4,46.9l-2.1,13.3c-0.3,2,1.1,3.9,3.1,4.2c0.2,0,0.4,0,0.6,0h25.6c3,0,5.6-2.2,6.1-5.2l0.3-1.3l4.8-30.6l0.3-1.7
			c0.5-3,3.1-5.2,6.1-5.2h3.8c24.8,0,44.2-10.1,49.9-39.2c2.4-12.2,1.1-22.3-5.1-29.5C-1154.9,218.3-1157.3,216.5-1159.9,215.1z"/>
		<path class="st9" d="M-1166.7,212.4c-2.1-0.6-4.2-1.1-6.3-1.4c-4.2-0.6-8.5-1-12.7-0.9h-38.6c-3,0-5.6,2.2-6.1,5.2l-8.2,52
			l-0.2,1.5c0.5-3.4,3.5-5.9,6.9-5.9h14.4c28.4,0,50.6-11.5,57.1-44.8c0.2-1,0.4-1.9,0.5-2.9c-1.7-0.9-3.5-1.7-5.3-2.3
			C-1165.7,212.7-1166.2,212.6-1166.7,212.4z"/>
		<path class="st7" d="M-1230.4,215.3c0.5-3,3-5.2,6.1-5.2h38.6c4.6,0,8.8,0.3,12.7,0.9c2.6,0.4,5.2,1,7.8,1.9
			c1.9,0.6,3.7,1.4,5.3,2.3c1.9-12.3,0-20.7-6.7-28.3c-7.3-8.4-20.6-11.9-37.5-11.9h-49.2c-3.5,0-6.4,2.5-7,5.9l-20.5,130
			c-0.4,2.3,1.2,4.5,3.5,4.8c0.2,0,0.4,0.1,0.7,0.1h30.4l7.6-48.4C-1238.6,267.3-1230.4,215.3-1230.4,215.3z"/>
	</g>
</g>
<g id="Calque_5">
</g>
<g id="Calque_3_2_">
</g>
<g id="Calque_7">
</g>
</svg>
