<?xml version="1.0" encoding="utf-8"?>
<!-- Generator: Adobe Illustrator 24.3.0, SVG Export Plug-In . SVG Version: 6.00 Build 0)  -->
<svg version="1.1" xmlns="http://www.w3.org/2000/svg" xmlns:xlink="http://www.w3.org/1999/xlink" x="0px" y="0px"
	 viewBox="0 0 570 269" style="enable-background:new 0 0 570 269;" xml:space="preserve">
<style type="text/css">
	.st0{fill:#128AC7;}
	.st1{opacity:0.1;}
	.st2{clip-path:url(#SVGID_2_);}
	.st3{fill:url(#SVGID_3_);}
	.st4{fill:#FFFFFF;}
	.st5{clip-path:url(#SVGID_5_);}
	.st6{fill:none;}
	.st7{opacity:0.1;clip-path:url(#SVGID_5_);}
	.st8{fill:url(#SVGID_6_);}
</style>
<g id="Calque_1">
	<g id="Calque_1_1_">
		<g id="btg">
			<g id="extra_12_">
				<polygon class="st0" points="362.6,0 333.7,0 246.1,0 219.8,0 144.7,0 106.7,0 0,0 0,269 262.2,269 319,269 446.4,269 
					488.4,269 570,269 570,0 				"/>
			</g>
			<g class="st1">
				<defs>
					<polygon id="SVGID_1_" class="st1" points="362.6,0 333.7,0 246.1,0 219.8,0 144.7,0 106.7,0 0,0 0,269 262.2,269 319,269 
						446.4,269 488.4,269 570,269 570,0 					"/>
				</defs>
				<clipPath id="SVGID_2_">
					<use xlink:href="#SVGID_1_"  style="overflow:visible;"/>
				</clipPath>
				<g id="_x37_9bdWi.tif_1_" class="st2">
					<path d="M120.5,117.4c0.2-10.2,2.3-18,7-23.7c2.3-2.3,5.4-4.1,8.8-5.6c3.8-1.6,7.2-2.3,10.8-2.3h42.2
						c18.5,0.2,28,10.2,28.4,30.5v62.3c-0.2,7-2.9,13.3-8.6,18.5c-5.4,5.4-11.7,8.3-19.2,8.6h-39.7v44.9h-29.8V117.4z M187.9,123.2
						c-0.2-4.7-2.3-7-6.8-7.2h-23c-5.4,0.5-8.3,3.4-8.6,8.8v41.3c0.2,5.6,3.2,8.6,9.3,8.8h21c2.3,0,3.8-0.7,5.4-2.5
						c1.6-1.1,2.3-2.7,2.3-4.7L187.9,123.2L187.9,123.2L187.9,123.2z"/>
					<path d="M308.9,122.6c0.2-4.5-2.5-6.8-7.9-6.5h-59.3V85.8h67c19.4,0.5,29.3,9.7,29.8,28.4v63.2c-0.2,8.1-2.5,14.7-7.2,19.9
						c-5,5.4-11.5,8.3-19.2,8.3h-40.4c-19.6-0.2-29.8-9-30-27.1v-24.4c0.2-18.7,9.7-28.2,28.4-28.4h39.3L308.9,122.6L308.9,122.6
						L308.9,122.6z M270.5,169c0,1.8,0.7,3.2,2.3,4.1c1.4,1.1,3.2,2,5.4,2h22.6c5.2,0,7.9-2,7.9-5.9v-8.6c0-4.5-2.7-7-8.1-7h-22.3
						c-2.9,0-5,0.5-6.1,1.4c-0.9,1.1-1.6,3.4-1.6,6.5V169L270.5,169z"/>
					<path d="M421,220c2.3-0.2,4.3-0.9,5.9-2.5c1.6-1.4,2.3-2.9,2.3-5v-2.7v-4.3h-37.7c-5,0-8.8-0.7-11.7-2
						c-3.2-1.1-6.1-3.4-9.3-6.3c-2.9-3.2-5.2-6.5-6.3-9.9c-1.4-3.2-2-7.2-2-12.2V86h29.6v79.6c0,6.5,2.5,9.7,7.9,9.7h20.8
						c2.5,0,4.7-0.7,6.5-2.5c1.8-1.4,2.5-3.2,2.5-5.2v-3.4V85.6h29.3v131.8c-0.2,9.9-2.7,17.6-7.4,23.5c-5,5.9-11.5,9-20.1,9h-68.8
						v-30.2H421L421,220L421,220z"/>
					<path d="M481.7,175.1h52.6c4.7-0.2,7.2-2.3,7.4-5.6v-2.7c0-0.7-0.2-1.6-0.7-2.5c-1.1-2.3-2.5-3.4-4.3-3.4h-3.2h-22.8
						c-7.7-0.2-14.4-2.7-19.9-7.9c-5.4-4.7-8.6-10.6-8.6-17.6v-22.8c0.5-17.8,9.9-26.6,28.7-27.1h60.9v30.2h-51.7
						c-6.1,0-9,1.8-9,5.4v3.2c0,3.8,3.2,5.6,9.3,5.6h25.9c7,0.2,12.9,2.7,17.8,8.1c5,5.2,7.4,11.5,7.7,18.5v22.1
						c-0.2,6.3-2.9,12.4-8.6,18.5c-2.7,2.9-5.4,5.2-8.3,6.3c-2.7,1.1-6.8,1.6-11.5,1.6h-61.6L481.7,175.1L481.7,175.1L481.7,175.1z"
						/>
					<path d="M660.4,122.6c0.2-4.5-2.5-6.8-7.9-6.5h-59.3V85.8h67c19.4,0.5,29.3,9.7,29.8,28.4v63.2c-0.2,8.1-2.5,14.7-7.2,19.9
						c-5,5.4-11.5,8.3-19.2,8.3h-40.4c-19.6-0.2-29.8-9-30-27.1v-24.4c0.2-18.7,9.7-28.2,28.4-28.4h39.3L660.4,122.6L660.4,122.6
						L660.4,122.6z M622,169c0,1.8,0.7,3.2,2.3,4.1c1.4,1.1,3.2,2,5.4,2h22.6c5.2,0,7.7-2,7.9-5.9v-8.6c0-4.5-2.7-7-8.1-7h-22.3
						c-2.9,0-5,0.5-6.1,1.4c-0.9,1.1-1.6,3.4-1.6,6.5L622,169L622,169z"/>
					<path d="M713.6,68.4c0.2-8.3,3.2-14.7,9-19.6c5.6-5,13.1-7.4,22.6-7.7h18.7v29.3h-11.5c-6.3,0.2-9.5,3.2-9.5,8.8v6.5h20.8V116
						H743v89.3h-29.6L713.6,68.4L713.6,68.4z"/>
					<path d="M811.1,164.5v2c0,2.3,0.7,4.3,2,5.6c0.9,1.8,2.3,2.7,3.8,2.7h3.8h56.6v30.2h-64.3c-5.9,0-10.4-0.7-13.8-1.6
						c-3.6-1.1-6.8-3.2-9.5-5.6c-3.2-3.2-5.4-6.5-6.5-9.9c-1.1-3.6-1.8-8.1-1.8-14l-0.2-60.7c0.5-18.3,9.9-27.5,28.7-28h39.7
						c18.3,0.5,27.8,9.9,28,28.9v23.9L811.1,164.5z M847.9,121.9v-0.7c0-1.6-0.7-2.9-2-3.8c-1.4-0.9-3.2-1.4-5.2-1.4h-20.5
						c-2.5,0-4.7,0.7-6.5,2.3c-2,1.4-3.2,3.2-3.2,5.4v12.2L847.9,121.9z"/>
					<path d="M940.2,205.4c-4.5,0-8.6-0.5-12.2-1.1c-3.8-0.7-7.7-2.3-11.5-5.4c-4.1-3.6-7-7.4-8.6-11.7c-1.6-4.3-2.3-9-2.3-14.7V116
						c-0.2-4.5,0.5-8.6,1.4-12.2c0.9-3.6,3.2-7,6.3-10.2c3.6-3.6,7.2-5.9,11.1-7c3.8-0.9,7.9-1.4,12.6-1.4h45.4v7h-44
						c-7.9,0-14,1.6-18.3,4.7c-4.5,3.6-7,9.5-7,18v56.4c0,3.8,0.7,7.9,1.8,11.5c1.1,3.8,3.4,7,6.3,9.7c3.2,2.3,6.5,3.8,9.5,4.5
						c3.4,0.7,6.8,0.9,10.4,0.9h42.2v7L940.2,205.4L940.2,205.4L940.2,205.4z"/>
					<path d="M1105.3,172.6c0,4.5-0.5,8.6-0.9,12c-0.9,3.8-2.9,7.4-5.9,11.1c-6.1,6.5-13.8,9.7-23,9.5h-35.2c-9,0-16.5-2.7-22.3-8.3
						c-5.9-5.4-8.8-12.9-8.8-22.3v-18.3c0.5-20.5,10.6-31.1,30.7-31.6h58.7v-8.1c0-6.5-2-12.4-5.6-17.4c-2.3-3.2-5.4-5.4-8.6-6.5
						c-3.4-0.7-7-1.4-11.1-1.4h-64.1v-7h60.7c5.4,0,10.6,0.5,15.1,1.1c2.3,0.5,4.5,1.4,6.5,2.7c2.3,1.1,3.8,3.2,5.9,5.4
						c5.4,7,8.1,15.1,8.1,24.1L1105.3,172.6L1105.3,172.6L1105.3,172.6z M1098.1,132h-59.3c-7,0.2-12.6,2.3-16.7,6.5
						c-4.1,4.3-6.1,10.2-6.1,17.8v18c0,3.6,0.5,6.8,1.1,9.7c0.7,2.9,2.5,5.6,5.4,8.1c5.2,4.3,10.8,6.3,16.9,6.3h35.9
						c14.9-0.2,22.6-8.1,22.6-23.9V132H1098.1z"/>
					<path d="M1171.4,92.1c-16.2,0.5-24.6,9.3-24.1,27.1v86.4h-7v-86.4c-0.5-22.6,10.4-34.1,32.5-34.1h7.9v7H1171.4z"/>
					<path d="M-43.3,81.3c2.3-0.9,4.7-1.8,7-2.3c4.3-20.3,22.3-35.6,44-35.6s39.5,15.3,44,35.6c6.8,1.1,12,3.8,16.2,7.9
						c0.2-3.8,0-7.7-0.5-11.3C64.7,44.9,39,20.8,7.7,20.8c-32.3,0-58.7,25.5-60,57.8c-0.2,2.7-0.2,5.6-0.2,8.6
						C-50.1,84.7-47,82.8-43.3,81.3z"/>
					<path d="M42.4,85.8h-71.7c-3.6,0-7,0.7-10.8,2.3c-3.6,1.6-6.5,3.4-8.8,5.6c-4.5,5.4-6.8,13.1-7,23.7v56.2
						c0.2,10.4,2.3,18,7,23.7c2.3,2.3,5.4,4.1,8.8,5.6c3.8,1.6,7.2,2.3,10.8,2.3h72c18.5-0.2,28.2-10.4,28.4-30.5V116
						C70.6,95.9,61.1,86,42.4,85.8z"/>
					<path d="M1297.8,172c-0.7,22.8-12.9,34.1-36.3,33.4h-26.2c-5.4,0-10.4-0.5-14.7-1.4c-4.5-1.1-8.8-3.8-13.1-8.3
						c-3.2-3.8-5.2-7.7-5.9-11.5c-0.9-3.8-1.6-8.6-1.4-13.1v-51.7c0.5-23.2,12-34.7,35-34.5h55.3V45.6h7L1297.8,172L1297.8,172z
						 M1290.8,92.1h-56c-3.8,0-7.7,0.5-10.8,1.4c-3.4,0.7-6.8,2.7-9.9,6.1c-2.9,3.2-4.7,6.1-5.4,9c-0.9,3.2-1.6,6.8-1.4,11.1v55.1
						c0,9.3,2.5,15.3,8.1,18.7c2.5,1.6,5.4,2.7,8.8,3.6c3.4,0.7,7,1.4,10.8,1.4h24.4c9,0,16.5-2.3,22.3-6.3
						c5.6-3.8,8.6-10.8,8.8-20.8L1290.8,92.1L1290.8,92.1L1290.8,92.1z"/>
				</g>
			</g>
			
				<linearGradient id="SVGID_3_" gradientUnits="userSpaceOnUse" x1="285" y1="-497.2603" x2="285" y2="-810.1719" gradientTransform="matrix(1 0 0 -1 0 -492.4652)">
				<stop  offset="2.707507e-03" style="stop-color:#128AC7;stop-opacity:0"/>
				<stop  offset="0.9916" style="stop-color:#128AC7"/>
			</linearGradient>
			<rect x="0" y="-0.8" class="st3" width="570" height="269.9"/>
			<g id="_x37_9bdWi.tif">
				<path class="st4" d="M160.2,130.9c0.1-2.7,0.6-4.7,1.8-6.2c0.6-0.6,1.4-1.1,2.3-1.5c1-0.4,1.9-0.6,2.8-0.6h11
					c4.8,0.1,7.3,2.7,7.4,8v16.3c-0.1,1.8-0.8,3.5-2.2,4.8c-1.4,1.4-3.1,2.2-5,2.2H168v11.7h-7.8V130.9z M177.8,132.4
					c-0.1-1.2-0.6-1.8-1.8-1.9h-6c-1.4,0.1-2.2,0.9-2.2,2.3v10.8c0.1,1.5,0.8,2.2,2.4,2.3h5.5c0.6,0,1-0.2,1.4-0.6
					c0.4-0.3,0.6-0.7,0.6-1.2L177.8,132.4L177.8,132.4L177.8,132.4z"/>
				<path class="st4" d="M209.4,132.2c0.1-1.2-0.6-1.8-2.1-1.7h-15.5v-7.9h17.5c5.1,0.1,7.7,2.5,7.8,7.4v16.5
					c-0.1,2.1-0.6,3.8-1.9,5.2c-1.3,1.4-3,2.2-5,2.2h-10.5c-5.1-0.1-7.8-2.4-7.8-7.1v-6.4c0.1-4.9,2.5-7.4,7.4-7.4h10.3L209.4,132.2
					L209.4,132.2L209.4,132.2z M199.4,144.4c0,0.5,0.2,0.8,0.6,1.1c0.4,0.3,0.8,0.5,1.4,0.5h5.9c1.4,0,2.1-0.5,2.1-1.5v-2.2
					c0-1.2-0.7-1.8-2.1-1.8h-5.8c-0.8,0-1.3,0.1-1.6,0.4c-0.2,0.3-0.4,0.9-0.4,1.7V144.4L199.4,144.4z"/>
				<path class="st4" d="M238.7,157.7c0.6-0.1,1.1-0.2,1.5-0.6c0.4-0.4,0.6-0.8,0.6-1.3V155v-1.1H231c-1.3,0-2.3-0.2-3.1-0.5
					c-0.8-0.3-1.6-0.9-2.4-1.6c-0.8-0.8-1.4-1.7-1.6-2.6c-0.4-0.8-0.5-1.9-0.5-3.2v-23.3h7.7v20.8c0,1.7,0.6,2.5,2.1,2.5h5.4
					c0.6,0,1.2-0.2,1.7-0.6c0.5-0.4,0.6-0.8,0.6-1.4v-0.9v-20.6h7.7V157c-0.1,2.6-0.7,4.6-1.9,6.1c-1.3,1.5-3,2.4-5.2,2.4h-18v-7.9
					h15.3L238.7,157.7L238.7,157.7z"/>
				<path class="st4" d="M254.5,146h13.7c1.2-0.1,1.9-0.6,1.9-1.5v-0.7c0-0.2-0.1-0.4-0.2-0.6c-0.3-0.6-0.6-0.9-1.1-0.9h-0.8h-6
					c-2-0.1-3.8-0.7-5.2-2.1c-1.4-1.2-2.2-2.8-2.2-4.6v-6c0.1-4.7,2.6-7,7.5-7.1h15.9v7.9h-13.5c-1.6,0-2.4,0.5-2.4,1.4v0.8
					c0,1,0.8,1.5,2.4,1.5h6.8c1.8,0.1,3.4,0.7,4.7,2.1c1.3,1.4,1.9,3,2,4.8v5.8c-0.1,1.6-0.8,3.2-2.2,4.8c-0.7,0.8-1.4,1.4-2.2,1.6
					c-0.7,0.3-1.8,0.4-3,0.4h-16.1L254.5,146L254.5,146L254.5,146z"/>
				<path class="st4" d="M301.2,132.2c0.1-1.2-0.6-1.8-2.1-1.7h-15.5v-7.9h17.5c5.1,0.1,7.7,2.5,7.8,7.4v16.5
					c-0.1,2.1-0.6,3.8-1.9,5.2c-1.3,1.4-3,2.2-5,2.2h-10.5c-5.1-0.1-7.8-2.4-7.8-7.1v-6.4c0.1-4.9,2.5-7.4,7.4-7.4h10.3L301.2,132.2
					L301.2,132.2L301.2,132.2z M291.2,144.4c0,0.5,0.2,0.8,0.6,1.1c0.4,0.3,0.8,0.5,1.4,0.5h5.9c1.4,0,2-0.5,2.1-1.5v-2.2
					c0-1.2-0.7-1.8-2.1-1.8h-5.8c-0.8,0-1.3,0.1-1.6,0.4c-0.2,0.3-0.4,0.9-0.4,1.7L291.2,144.4L291.2,144.4z"/>
				<path class="st4" d="M315.1,118.1c0.1-2.2,0.8-3.8,2.4-5.1c1.5-1.3,3.4-1.9,5.9-2h4.9v7.7h-3c-1.6,0.1-2.5,0.8-2.5,2.3v1.7h5.4
					v7.9h-5.4v23.3h-7.7L315.1,118.1L315.1,118.1z"/>
				<path class="st4" d="M340.6,143.2v0.5c0,0.6,0.2,1.1,0.5,1.5c0.2,0.5,0.6,0.7,1,0.7h1h14.8v7.9h-16.8c-1.5,0-2.7-0.2-3.6-0.4
					c-0.9-0.3-1.8-0.8-2.5-1.5c-0.8-0.8-1.4-1.7-1.7-2.6c-0.3-0.9-0.5-2.1-0.5-3.7l-0.1-15.8c0.1-4.8,2.6-7.2,7.5-7.3h10.4
					c4.8,0.1,7.2,2.6,7.3,7.5v6.2L340.6,143.2z M350.2,132.1v-0.2c0-0.4-0.2-0.8-0.5-1c-0.4-0.2-0.8-0.4-1.4-0.4h-5.4
					c-0.6,0-1.2,0.2-1.7,0.6c-0.5,0.4-0.8,0.8-0.8,1.4v3.2L350.2,132.1z"/>
				<path class="st4" d="M374.3,153.9c-1.2,0-2.2-0.1-3.2-0.3c-1-0.2-2-0.6-3-1.4c-1.1-0.9-1.8-1.9-2.2-3.1
					c-0.4-1.1-0.6-2.4-0.6-3.8v-14.7c-0.1-1.2,0.1-2.2,0.4-3.2c0.2-0.9,0.8-1.8,1.6-2.7c0.9-0.9,1.9-1.5,2.9-1.8
					c1-0.2,2.1-0.4,3.3-0.4h11.8v1.8h-11.5c-2.1,0-3.7,0.4-4.8,1.2c-1.2,0.9-1.8,2.5-1.8,4.7V145c0,1,0.2,2.1,0.5,3
					c0.3,1,0.9,1.8,1.6,2.5c0.8,0.6,1.7,1,2.5,1.2c0.9,0.2,1.8,0.2,2.7,0.2h11v1.8L374.3,153.9L374.3,153.9L374.3,153.9z"/>
				<path class="st4" d="M417.4,145.3c0,1.2-0.1,2.2-0.2,3.1c-0.2,1-0.8,1.9-1.5,2.9c-1.6,1.7-3.6,2.5-6,2.5h-9.2
					c-2.4,0-4.3-0.7-5.8-2.2c-1.5-1.4-2.3-3.4-2.3-5.8V141c0.1-5.4,2.8-8.1,8-8.2h15.3v-2.1c0-1.7-0.5-3.2-1.5-4.5
					c-0.6-0.8-1.4-1.4-2.2-1.7c-0.9-0.2-1.8-0.4-2.9-0.4h-16.7v-1.8h15.8c1.4,0,2.8,0.1,3.9,0.3c0.6,0.1,1.2,0.4,1.7,0.7
					c0.6,0.3,1,0.8,1.5,1.4c1.4,1.8,2.1,3.9,2.1,6.3L417.4,145.3L417.4,145.3L417.4,145.3z M415.5,134.7H400
					c-1.8,0.1-3.3,0.6-4.4,1.7c-1.1,1.1-1.6,2.7-1.6,4.7v4.7c0,0.9,0.1,1.8,0.3,2.5c0.2,0.8,0.6,1.5,1.4,2.1
					c1.4,1.1,2.8,1.6,4.4,1.6h9.4c3.9-0.1,5.9-2.1,5.9-6.2L415.5,134.7L415.5,134.7z"/>
				<path class="st4" d="M434.7,124.3c-4.2,0.1-6.4,2.4-6.3,7.1v22.6h-1.8v-22.6c-0.1-5.9,2.7-8.9,8.5-8.9h2.1v1.8H434.7z"/>
				<path class="st4" d="M117.4,121.4c0.6-0.2,1.2-0.5,1.8-0.6c1.1-5.3,5.8-9.3,11.5-9.3s10.3,4,11.5,9.3c1.8,0.3,3.1,1,4.2,2.1
					c0.1-1,0-2-0.1-2.9c-0.7-8-7.4-14.3-15.6-14.3c-8.4,0-15.3,6.7-15.7,15.1c-0.1,0.7-0.1,1.5-0.1,2.2
					C115.7,122.3,116.5,121.9,117.4,121.4z"/>
				<path class="st4" d="M139.8,122.6h-18.7c-0.9,0-1.8,0.2-2.8,0.6c-0.9,0.4-1.7,0.9-2.3,1.5c-1.2,1.4-1.8,3.4-1.8,6.2v14.7
					c0.1,2.7,0.6,4.7,1.8,6.2c0.6,0.6,1.4,1.1,2.3,1.5c1,0.4,1.9,0.6,2.8,0.6h18.8c4.8-0.1,7.4-2.7,7.4-8v-15.3
					C147.2,125.3,144.7,122.7,139.8,122.6z"/>
				<path class="st4" d="M467.7,145.1c-0.2,6-3.4,8.9-9.5,8.7h-6.8c-1.4,0-2.7-0.1-3.8-0.4c-1.2-0.3-2.3-1-3.4-2.2
					c-0.8-1-1.4-2-1.5-3c-0.2-1-0.4-2.2-0.4-3.4v-13.5c0.1-6.1,3.1-9.1,9.1-9h14.4v-10.3h1.8L467.7,145.1L467.7,145.1z M465.8,124.3
					h-14.6c-1,0-2,0.1-2.8,0.4c-0.9,0.2-1.8,0.7-2.6,1.6c-0.8,0.8-1.2,1.6-1.4,2.4c-0.2,0.8-0.4,1.8-0.4,2.9v14.4
					c0,2.4,0.6,4,2.1,4.9c0.6,0.4,1.4,0.7,2.3,0.9c0.9,0.2,1.8,0.4,2.8,0.4h6.4c2.4,0,4.3-0.6,5.8-1.6c1.5-1,2.2-2.8,2.3-5.4
					L465.8,124.3L465.8,124.3L465.8,124.3z"/>
			</g>
		</g>
	</g>
	<g id="Calque_2">
	</g>
	<g id="Calque_5_2_">
		<g id="extra_14_">
			<polygon class="st0" points="-514.6,-318.2 -569.4,-318.2 -735.4,-318.2 -785.2,-318.2 -927.5,-318.2 -999.5,-318.2 
				-1201.7,-318.2 -1201.7,761.8 -704.9,761.8 -597.2,761.8 -355.8,761.8 -276.3,761.8 -121.7,761.8 -121.7,-318.2 			"/>
		</g>
		<g>
			<defs>
				<rect id="SVGID_4_" x="-1201.7" y="-318.2" width="1080" height="1080"/>
			</defs>
			<clipPath id="SVGID_5_">
				<use xlink:href="#SVGID_4_"  style="overflow:visible;"/>
			</clipPath>
			<g id="extra_2_" class="st5">
				<polygon class="st6" points="-514.6,-318.2 -569.4,-318.2 -735.4,-318.2 -785.2,-318.2 -927.5,-318.2 -999.5,-318.2 
					-1201.7,-318.2 -1201.7,761.8 -704.9,761.8 -597.2,761.8 -355.8,761.8 -276.3,761.8 -121.7,761.8 -121.7,-318.2 				"/>
			</g>
			<g class="st7">
				<g>
					<g>
						<path d="M-923.3,166.6c0.6-27.5,6.1-48.8,18.9-64.1c6.1-6.1,14.6-11,23.8-15.3c10.4-4.3,19.5-6.1,29.3-6.1h114.1
							c50,0.6,75.7,27.5,76.9,82.4v168.4c-0.6,18.9-7.9,36-23.2,50c-14.6,14.6-31.7,22.6-51.9,23.2h-107.4v121.4h-80.5V166.6z
							 M-740.8,182.4c-0.6-12.8-6.1-18.9-18.3-19.5h-62.2c-14.6,1.2-22.6,9.2-23.2,23.8v111.7c0.6,15.3,8.5,23.2,25,23.8h56.7
							c6.1,0,10.4-1.8,14.6-6.7c4.3-3.1,6.1-7.3,6.1-12.8L-740.8,182.4L-740.8,182.4L-740.8,182.4z"/>
						<path d="M-413.8,180.6c0.6-12.2-6.7-18.3-21.4-17.7h-160.5V81.1h181.2c52.5,1.2,79.3,26.2,80.5,76.9v170.8
							c-0.6,22-6.7,39.7-19.5,53.7c-13.4,14.6-31.1,22.6-51.9,22.6h-109.2c-53.1-0.6-80.5-24.4-81.1-73.2V266
							c0.6-50.6,26.2-76.3,76.9-76.9h106.2L-413.8,180.6L-413.8,180.6L-413.8,180.6z M-517.5,306.3c0,4.9,1.8,8.5,6.1,11
							c3.7,3.1,8.5,5.5,14.6,5.5h61c14,0,21.4-5.5,21.4-15.9v-23.2c0-12.2-7.3-18.9-22-18.9h-60.4c-7.9,0-13.4,1.2-16.5,3.7
							c-2.4,3.1-4.3,9.2-4.3,17.7V306.3L-517.5,306.3z"/>
						<path d="M-110.6,444.2c6.1-0.6,11.6-2.4,15.9-6.7c4.3-3.7,6.1-7.9,6.1-13.4v-7.3v-11.6h-101.9c-13.4,0-23.8-1.8-31.7-5.5
							c-8.5-3.1-16.5-9.2-25-17.1c-7.9-8.5-14-17.7-17.1-26.8c-3.7-8.5-5.5-19.5-5.5-32.9v-241h79.9v215.4
							c0,17.7,6.7,26.2,21.4,26.2h56.1c6.7,0,12.8-1.8,17.7-6.7c4.9-3.7,6.7-8.5,6.7-14v-9.2V80.5h79.3v356.3
							c-0.6,26.8-7.3,47.6-20.1,63.5c-13.4,15.9-31.1,24.4-54.3,24.4h-186.1V443h158.6L-110.6,444.2L-110.6,444.2z"/>
						<path d="M53.6,322.8h142.2c12.8-0.6,19.5-6.1,20.1-15.3v-7.3c0-1.8-0.6-4.3-1.8-6.7c-3.1-6.1-6.7-9.2-11.6-9.2h-8.5h-61.6
							c-20.7-0.6-39-7.3-53.7-21.4c-14.6-12.8-23.2-28.7-23.2-47.6v-61.6c1.2-48.2,26.8-72,77.5-73.2h164.7v81.8H157.9
							c-16.5,0-24.4,4.9-24.4,14.6v8.5c0,10.4,8.5,15.3,25,15.3h70.2c18.9,0.6,34.8,7.3,48.2,22c13.4,14,20.1,31.1,20.7,50v59.8
							c-0.6,17.1-7.9,33.6-23.2,50c-7.3,7.9-14.6,14-22.6,17.1c-7.3,3.1-18.3,4.3-31.1,4.3H54.2L53.6,322.8L53.6,322.8L53.6,322.8z"
							/>
						<path d="M536.8,180.6c0.6-12.2-6.7-18.3-21.4-17.7H355V81.1h181.2c52.5,1.2,79.3,26.2,80.5,76.9v170.8
							c-0.6,22-6.7,39.7-19.5,53.7c-13.4,14.6-31.1,22.6-51.9,22.6H436.1c-53.1-0.6-80.5-24.4-81.1-73.2V266
							c0.6-50.6,26.2-76.3,76.9-76.9H538L536.8,180.6L536.8,180.6L536.8,180.6z M433.1,306.3c0,4.9,1.8,8.5,6.1,11
							c3.7,3.1,8.5,5.5,14.6,5.5h61c14,0,20.7-5.5,21.4-15.9v-23.2c0-12.2-7.3-18.9-22-18.9h-60.4c-7.9,0-13.4,1.2-16.5,3.7
							c-2.4,3.1-4.3,9.2-4.3,17.7L433.1,306.3L433.1,306.3z"/>
						<path d="M680.8,34.2c0.6-22.6,8.5-39.7,24.4-53.1c15.3-13.4,35.4-20.1,61-20.7h50.6v79.3h-31.1c-17.1,0.6-25.6,8.5-25.6,23.8
							v17.7h56.1v81.8h-56.1v241.6h-79.9L680.8,34.2L680.8,34.2z"/>
						<path d="M944.4,294.1v5.5c0,6.1,1.8,11.6,5.5,15.3c2.4,4.9,6.1,7.3,10.4,7.3h10.4h153.1v81.8H949.9c-15.9,0-28.1-1.8-37.2-4.3
							c-9.8-3.1-18.3-8.5-25.6-15.3c-8.5-8.5-14.6-17.7-17.7-26.8c-3.1-9.8-4.9-22-4.9-37.8l-0.6-164.1
							c1.2-49.4,26.8-74.4,77.5-75.7h107.4c49.4,1.2,75,26.8,75.7,78.1v64.7L944.4,294.1z M1043.8,178.8v-1.8
							c0-4.3-1.8-7.9-5.5-10.4c-3.7-2.4-8.5-3.7-14-3.7h-55.5c-6.7,0-12.8,1.8-17.7,6.1c-5.5,3.7-8.5,8.5-8.5,14.6v32.9
							L1043.8,178.8z"/>
						<path d="M1293.4,404.5c-12.2,0-23.2-1.2-32.9-3.1c-10.4-1.8-20.7-6.1-31.1-14.6c-11-9.8-18.9-20.1-23.2-31.7
							c-4.3-11.6-6.1-24.4-6.1-39.7V162.9c-0.6-12.2,1.2-23.2,3.7-32.9s8.5-18.9,17.1-27.5c9.8-9.8,19.5-15.9,29.9-18.9
							c10.4-2.4,21.4-3.7,34.2-3.7h122.6v18.9h-119c-21.4,0-37.8,4.3-49.4,12.8c-12.2,9.8-18.9,25.6-18.9,48.8V313
							c0,10.4,1.8,21.4,4.9,31.1c3.1,10.4,9.2,18.9,17.1,26.2c8.5,6.1,17.7,10.4,25.6,12.2c9.2,1.8,18.3,2.4,28.1,2.4h114.1v18.9
							L1293.4,404.5L1293.4,404.5L1293.4,404.5z"/>
						<path d="M1740,316.1c0,12.2-1.2,23.2-2.4,32.3c-2.4,10.4-7.9,20.1-15.9,29.9c-16.5,17.7-37.2,26.2-62.2,25.6h-95.2
							c-24.4,0-44.5-7.3-60.4-22.6c-15.9-14.6-23.8-34.8-23.8-60.4v-49.4c1.2-55.5,28.7-84.2,83-85.4h158.6v-22
							c0-17.7-5.5-33.6-15.3-47c-6.1-8.5-14.6-14.6-23.2-17.7c-9.2-1.8-18.9-3.7-29.9-3.7h-173.3V76.9h164.1
							c14.6,0,28.7,1.2,40.9,3.1c6.1,1.2,12.2,3.7,17.7,7.3c6.1,3.1,10.4,8.5,15.9,14.6c14.6,18.9,22,40.9,22,65.3L1740,316.1
							L1740,316.1L1740,316.1z M1720.5,206.2H1560c-18.9,0.6-34.2,6.1-45.2,17.7c-11,11.6-16.5,27.5-16.5,48.2v48.8
							c0,9.8,1.2,18.3,3.1,26.2c1.8,7.9,6.7,15.3,14.6,22c14,11.6,29.3,17.1,45.8,17.1h97c40.3-0.6,61-22,61-64.7V206.2H1720.5z"/>
						<path d="M1918.8,98.2c-43.9,1.2-66.5,25-65.3,73.2v233.7h-18.9V171.4c-1.2-61,28.1-92.1,87.9-92.1h21.4v18.9H1918.8z"/>
						<path d="M2260.5,314.2c-1.8,61.6-34.8,92.1-98.2,90.3h-70.8c-14.6,0-28.1-1.2-39.7-3.7c-12.2-3.1-23.8-10.4-35.4-22.6
							c-8.5-10.4-14-20.7-15.9-31.1c-2.4-10.4-4.3-23.2-3.7-35.4V172.1c1.2-62.8,32.3-94,94.6-93.4h149.5V-27.5h18.9L2260.5,314.2
							L2260.5,314.2z M2241.5,98.2h-151.3c-10.4,0-20.7,1.2-29.3,3.7c-9.2,1.8-18.3,7.3-26.8,16.5c-7.9,8.5-12.8,16.5-14.6,24.4
							c-2.4,8.5-4.3,18.3-3.7,29.9v148.9c0,25,6.7,41.5,22,50.6c6.7,4.3,14.6,7.3,23.8,9.8c9.2,1.8,18.9,3.7,29.3,3.7h65.9
							c24.4,0,44.5-6.1,60.4-17.1c15.3-10.4,23.2-29.3,23.8-56.1L2241.5,98.2L2241.5,98.2L2241.5,98.2z"/>
						<path d="M-1366.2,68.9c6.1-2.4,12.8-4.9,18.9-6.1c11.6-54.9,60.4-96.4,119-96.4c58.6,0,106.8,41.5,119,96.4
							c18.3,3.1,32.3,10.4,43.9,21.4c0.6-10.4,0-20.7-1.2-30.5c-7.3-83-76.9-148.3-161.7-148.3c-87.3,0-158.6,68.9-162.3,156.2
							c-0.6,7.3-0.6,15.3-0.6,23.2C-1384.5,78.1-1376,73.2-1366.2,68.9z"/>
						<path d="M-1134.4,81.1h-194c-9.8,0-18.9,1.8-29.3,6.1c-9.8,4.3-17.7,9.2-23.8,15.3c-12.2,14.6-18.3,35.4-18.9,64.1v151.9
							c0.6,28.1,6.1,48.8,18.9,64.1c6.1,6.1,14.6,11,23.8,15.3c10.4,4.3,19.5,6.1,29.3,6.1h194.6c50-0.6,76.3-28.1,76.9-82.4V162.9
							C-1058.1,108.6-1083.7,81.8-1134.4,81.1z"/>
						<polygon class="st6" points="-514.6,-318.2 -569.4,-318.2 -735.4,-318.2 -785.2,-318.2 -927.5,-318.2 -999.5,-318.2 
							-1201.7,-318.2 -1201.7,761.8 -704.9,761.8 -597.2,761.8 -355.8,761.8 -276.3,761.8 -121.7,761.8 -121.7,-318.2 						"/>
					</g>
				</g>
			</g>
		</g>
		
			<linearGradient id="SVGID_6_" gradientUnits="userSpaceOnUse" x1="-661.6505" y1="-196.6478" x2="-661.6505" y2="-1448.4167" gradientTransform="matrix(1 0 0 -1 0 -492.4652)">
			<stop  offset="2.707507e-03" style="stop-color:#128AC7;stop-opacity:0"/>
			<stop  offset="0.9916" style="stop-color:#128AC7"/>
		</linearGradient>
		<rect x="-1201.7" y="-318.2" class="st8" width="1080" height="1080"/>
	</g>
	<g id="Calque_6">
		<path class="st4" d="M-956.9,207.3c0.1-6,1.3-10.7,4.2-14.1c1.3-1.3,3.2-2.4,5.2-3.4c2.3-0.9,4.3-1.3,6.4-1.3h25.1
			c11,0.1,16.6,6,16.9,18.1v37c-0.1,4.2-1.7,7.9-5.1,11c-3.2,3.2-7,5-11.4,5.1h-23.6v26.7h-17.7V207.3z M-916.8,210.8
			c-0.1-2.8-1.3-4.2-4-4.3h-13.7c-3.2,0.3-5,2-5.1,5.2v24.6c0.1,3.4,1.9,5.1,5.5,5.2h12.5c1.3,0,2.3-0.4,3.2-1.5
			c0.9-0.7,1.3-1.6,1.3-2.8L-916.8,210.8L-916.8,210.8L-916.8,210.8z"/>
		<path class="st4" d="M-844.9,210.4c0.1-2.7-1.5-4-4.7-3.9h-35.3v-18h39.9c11.5,0.3,17.5,5.8,17.7,16.9V243
			c-0.1,4.8-1.5,8.7-4.3,11.8c-3,3.2-6.8,5-11.4,5h-24c-11.7-0.1-17.7-5.4-17.9-16.1v-14.5c0.1-11.1,5.8-16.8,16.9-16.9h23.4
			L-844.9,210.4L-844.9,210.4L-844.9,210.4z M-867.7,238c0,1.1,0.4,1.9,1.3,2.4c0.8,0.7,1.9,1.2,3.2,1.2h13.4c3.1,0,4.7-1.2,4.7-3.5
			V233c0-2.7-1.6-4.2-4.8-4.2h-13.3c-1.7,0-3,0.3-3.6,0.8c-0.5,0.7-0.9,2-0.9,3.9V238L-867.7,238z"/>
		<path class="st4" d="M-778.1,268.3c1.3-0.1,2.6-0.5,3.5-1.5c0.9-0.8,1.3-1.7,1.3-3v-1.6v-2.6h-22.4c-3,0-5.2-0.4-7-1.2
			c-1.9-0.7-3.6-2-5.5-3.8c-1.7-1.9-3.1-3.9-3.8-5.9c-0.8-1.9-1.2-4.3-1.2-7.2v-53h17.6V236c0,3.9,1.5,5.8,4.7,5.8h12.3
			c1.5,0,2.8-0.4,3.9-1.5c1.1-0.8,1.5-1.9,1.5-3.1v-2v-46.8h17.5v78.4c-0.1,5.9-1.6,10.5-4.4,14c-3,3.5-6.8,5.4-11.9,5.4H-813v-18
			h34.9V268.3L-778.1,268.3z"/>
		<path class="st4" d="M-742,241.6h31.3c2.8-0.1,4.3-1.3,4.4-3.4v-1.6c0-0.4-0.1-0.9-0.4-1.5c-0.7-1.3-1.5-2-2.6-2h-1.9h-13.6
			c-4.6-0.1-8.6-1.6-11.8-4.7c-3.2-2.8-5.1-6.3-5.1-10.5v-13.6c0.3-10.6,5.9-15.8,17-16.1h36.2v18h-30.7c-3.6,0-5.4,1.1-5.4,3.2v1.9
			c0,2.3,1.9,3.4,5.5,3.4h15.4c4.2,0.1,7.7,1.6,10.6,4.8c3,3.1,4.4,6.8,4.6,11v13.2c-0.1,3.8-1.7,7.4-5.1,11c-1.6,1.7-3.2,3.1-5,3.8
			c-1.6,0.7-4,0.9-6.8,0.9h-36.6L-742,241.6L-742,241.6L-742,241.6z"/>
		<path class="st4" d="M-635.7,210.4c0.1-2.7-1.5-4-4.7-3.9h-35.3v-18h39.9c11.5,0.3,17.5,5.8,17.7,16.9V243
			c-0.1,4.8-1.5,8.7-4.3,11.8c-3,3.2-6.8,5-11.4,5h-24c-11.7-0.1-17.7-5.4-17.9-16.1v-14.5c0.1-11.1,5.8-16.8,16.9-16.9h23.4
			L-635.7,210.4L-635.7,210.4L-635.7,210.4z M-658.5,238c0,1.1,0.4,1.9,1.3,2.4c0.8,0.7,1.9,1.2,3.2,1.2h13.4c3.1,0,4.6-1.2,4.7-3.5
			V233c0-2.7-1.6-4.2-4.8-4.2H-654c-1.7,0-3,0.3-3.6,0.8c-0.5,0.7-0.9,2-0.9,3.9V238L-658.5,238z"/>
		<path class="st4" d="M-604,178.1c0.1-5,1.9-8.7,5.4-11.7c3.4-3,7.8-4.4,13.4-4.6h11.1v17.5h-6.8c-3.8,0.1-5.6,1.9-5.6,5.2v3.9
			h12.3v18h-12.3v53.2h-17.6L-604,178.1L-604,178.1z"/>
		<path class="st4" d="M-546.1,235.3v1.2c0,1.3,0.4,2.6,1.2,3.4c0.5,1.1,1.3,1.6,2.3,1.6h2.3h33.7v18h-38.3c-3.5,0-6.2-0.4-8.2-0.9
			c-2.1-0.7-4-1.9-5.6-3.4c-1.9-1.9-3.2-3.9-3.9-5.9c-0.7-2.1-1.1-4.8-1.1-8.3l-0.1-36.1c0.3-10.9,5.9-16.4,17-16.6h23.6
			c10.9,0.3,16.5,5.9,16.6,17.2v14.2L-546.1,235.3z M-524.2,209.9v-0.4c0-0.9-0.4-1.7-1.2-2.3c-0.8-0.5-1.9-0.8-3.1-0.8h-12.2
			c-1.5,0-2.8,0.4-3.9,1.3c-1.2,0.8-1.9,1.9-1.9,3.2v7.2L-524.2,209.9z"/>
		<path class="st4" d="M-469.3,259.6c-2.7,0-5.1-0.3-7.2-0.7c-2.3-0.4-4.6-1.3-6.8-3.2c-2.4-2.1-4.2-4.4-5.1-7
			c-0.9-2.6-1.3-5.4-1.3-8.7v-33.6c-0.1-2.7,0.3-5.1,0.8-7.2c0.5-2.1,1.9-4.2,3.8-6c2.1-2.1,4.3-3.5,6.6-4.2
			c2.3-0.5,4.7-0.8,7.5-0.8h27v4.2h-26.2c-4.7,0-8.3,0.9-10.9,2.8c-2.7,2.1-4.2,5.6-4.2,10.7v33.6c0,2.3,0.4,4.7,1.1,6.8
			c0.7,2.3,2,4.2,3.8,5.8c1.9,1.3,3.9,2.3,5.6,2.7c2,0.4,4,0.5,6.2,0.5h25.1v4.2L-469.3,259.6L-469.3,259.6L-469.3,259.6z"/>
		<path class="st4" d="M-371,240.2c0,2.7-0.3,5.1-0.5,7.1c-0.5,2.3-1.7,4.4-3.5,6.6c-3.6,3.9-8.2,5.8-13.7,5.6h-20.9
			c-5.4,0-9.8-1.6-13.3-5c-3.5-3.2-5.2-7.7-5.2-13.3v-10.9c0.3-12.2,6.3-18.5,18.3-18.8h34.9v-4.8c0-3.9-1.2-7.4-3.4-10.3
			c-1.3-1.9-3.2-3.2-5.1-3.9c-2-0.4-4.2-0.8-6.6-0.8h-38.1v-4.2h36.1c3.2,0,6.3,0.3,9,0.7c1.3,0.3,2.7,0.8,3.9,1.6
			c1.3,0.7,2.3,1.9,3.5,3.2c3.2,4.2,4.8,9,4.8,14.4L-371,240.2L-371,240.2L-371,240.2z M-375.3,216h-35.3c-4.2,0.1-7.5,1.3-9.9,3.9
			c-2.4,2.6-3.6,6-3.6,10.6v10.7c0,2.1,0.3,4,0.7,5.8c0.4,1.7,1.5,3.4,3.2,4.8c3.1,2.6,6.4,3.8,10.1,3.8h21.3
			c8.9-0.1,13.4-4.8,13.4-14.2V216H-375.3z"/>
		<path class="st4" d="M-331.7,192.2c-9.7,0.3-14.6,5.5-14.4,16.1v51.4h-4.2v-51.4c-0.3-13.4,6.2-20.3,19.3-20.3h4.7v4.2H-331.7z"/>
		<path class="st4" d="M-256.5,239.7c-0.4,13.6-7.7,20.3-21.6,19.9h-15.6c-3.2,0-6.2-0.3-8.7-0.8c-2.7-0.7-5.2-2.3-7.8-5
			c-1.9-2.3-3.1-4.6-3.5-6.8c-0.5-2.3-0.9-5.1-0.8-7.8v-30.7c0.3-13.8,7.1-20.7,20.8-20.5h32.9v-23.4h4.2L-256.5,239.7L-256.5,239.7
			z M-260.7,192.2H-294c-2.3,0-4.6,0.3-6.4,0.8c-2,0.4-4,1.6-5.9,3.6c-1.7,1.9-2.8,3.6-3.2,5.4c-0.5,1.9-0.9,4-0.8,6.6v32.8
			c0,5.5,1.5,9.1,4.8,11.1c1.5,0.9,3.2,1.6,5.2,2.1c2,0.4,4.2,0.8,6.4,0.8h14.5c5.4,0,9.8-1.3,13.3-3.8c3.4-2.3,5.1-6.4,5.2-12.3
			L-260.7,192.2L-260.7,192.2L-260.7,192.2z"/>
		<g>
			<path class="st4" d="M-1054.4,185.8c1.3-0.5,2.8-1.1,4.2-1.3c2.6-12.1,13.3-21.2,26.2-21.2s23.5,9.1,26.2,21.2
				c4,0.7,7.1,2.3,9.7,4.7c0.1-2.3,0-4.6-0.3-6.7c-1.6-18.3-16.9-32.6-35.6-32.6c-19.2,0-34.9,15.2-35.7,34.4
				c-0.1,1.6-0.1,3.4-0.1,5.1C-1058.4,187.8-1056.6,186.7-1054.4,185.8z"/>
			<path class="st4" d="M-1003.4,188.5h-42.7c-2.1,0-4.2,0.4-6.4,1.3c-2.1,0.9-3.9,2-5.2,3.4c-2.7,3.2-4,7.8-4.2,14.1v33.4
				c0.1,6.2,1.3,10.7,4.2,14.1c1.3,1.3,3.2,2.4,5.2,3.4c2.3,0.9,4.3,1.3,6.4,1.3h42.8c11-0.1,16.8-6.2,16.9-18.1v-34.9
				C-986.6,194.5-992.3,188.6-1003.4,188.5z"/>
		</g>
	</g>
</g>
<g id="Calque_8">
</g>
<g id="Calque_5">
</g>
<g id="Calque_3_2_">
</g>
<g id="Calque_7">
</g>
</svg>
