<?xml version="1.0" encoding="utf-8"?>
<!-- Generator: Adobe Illustrator 24.3.0, SVG Export Plug-In . SVG Version: 6.00 Build 0)  -->
<svg version="1.1" xmlns="http://www.w3.org/2000/svg" xmlns:xlink="http://www.w3.org/1999/xlink" x="0px" y="0px"
	 viewBox="0 0 570 269" style="enable-background:new 0 0 570 269;" xml:space="preserve">
<style type="text/css">
	.st0{fill:url(#SVGID_1_);}
	.st1{opacity:0.1;}
	.st2{display:none;clip-path:url(#SVGID_3_);}
	.st3{clip-path:url(#SVGID_3_);}
	.st4{fill-rule:evenodd;clip-rule:evenodd;}
	.st5{fill:url(#SVGID_4_);}
	.st6{fill-rule:evenodd;clip-rule:evenodd;fill:#FFFFFF;}
	.st7{fill:url(#SVGID_5_);}
	.st8{clip-path:url(#SVGID_7_);}
	.st9{fill:none;}
	.st10{opacity:0.1;clip-path:url(#SVGID_7_);}
	.st11{fill:url(#SVGID_8_);}
</style>
<g id="Calque_1">
	<g id="Calque_1_1_">
		<g id="extra_12_">
			<linearGradient id="SVGID_1_" gradientUnits="userSpaceOnUse" x1="0" y1="134.5184" x2="570" y2="134.5184">
				<stop  offset="0" style="stop-color:#6B195F"/>
				<stop  offset="1" style="stop-color:#4C255B"/>
			</linearGradient>
			<polygon class="st0" points="362.6,0 333.7,0 246.1,0 219.8,0 144.7,0 106.7,0 0,0 0,269 262.2,269 319,269 446.4,269 488.4,269 
				570,269 570,0 			"/>
		</g>
		<g class="st1">
			<defs>
				<polygon id="SVGID_2_" class="st1" points="362.6,0 333.7,0 246.1,0 219.8,0 144.7,0 106.7,0 0,0 0,269 262.2,269 319,269 
					446.4,269 488.4,269 570,269 570,0 				"/>
			</defs>
			<clipPath id="SVGID_3_">
				<use xlink:href="#SVGID_2_"  style="overflow:visible;"/>
			</clipPath>
			<path class="st2" d="M329.6,301.9v-5.3h2.1v-1.1h-5.4v1.1h2.1v5.3H329.6z M340.2,301.9v-6.4h-1.7l-1.9,4.4l-1.9-4.4H333v6.4h1.2
				v-4.8l1.8,4.2h1.2l1.8-4.2v4.8H340.2z M628.5,255.3v-68.7c0-25.9-16.5-43.3-43.1-43.5c-14-0.2-28.4,4.1-38.5,19.5
				c-7.6-12.1-19.5-19.5-36.2-19.5c-11.7,0-23.1,3.4-32.1,16.3v-13.5h-23.8v109.5h24v-60.7c0-19,10.5-29.1,26.8-29.1
				c15.8,0,23.8,10.3,23.8,28.9v60.9h24v-60.7c0-19,11-29.1,26.8-29.1c16.3,0,24,10.3,24,28.9v60.9H628.5z M984.4,145.8h-38.9v-33.2
				h-24v33.2h-22.2v21.8h22.2v49.9c0,25.4,9.8,40.5,38,40.5c10.3,0,22.2-3.2,29.8-8.5l-6.9-20.4c-7.1,4.1-14.9,6.2-21.1,6.2
				c-11.9,0-15.8-7.3-15.8-18.3v-49.5h38.9V145.8z M1187.6,143.1c-13.7,0-22.7,6.4-28.9,16v-13.3h-23.6v109.5h23.8v-61.4
				c0-18.1,7.8-28.2,23.4-28.2c4.8,0,9.8,0.7,14.9,2.7l7.3-22.4C1199.3,144,1192.4,143.1,1187.6,143.1L1187.6,143.1z M880.4,154.6
				c-11.5-7.6-27.3-11.5-44.7-11.5c-27.7,0-45.6,13.3-45.6,35c0,17.9,13.3,28.9,37.8,32.3l11.2,1.6c13.1,1.8,19.2,5.3,19.2,11.5
				c0,8.5-8.7,13.3-25,13.3c-16.5,0-28.4-5.3-36.4-11.5l-11.2,18.6c13.1,9.6,29.5,14.2,47.4,14.2c31.6,0,49.9-14.9,49.9-35.7
				c0-19.2-14.4-29.3-38.2-32.8l-11.2-1.6c-10.3-1.4-18.6-3.4-18.6-10.8c0-8,7.8-12.8,20.8-12.8c14,0,27.5,5.3,34.1,9.4L880.4,154.6
				z M1518.6,143.1c-13.7,0-22.7,6.4-28.9,16v-13.3h-23.6v109.5h23.8v-61.4c0-18.1,7.8-28.2,23.4-28.2c4.8,0,9.9,0.7,14.9,2.7
				l7.3-22.4C1530.2,144,1523.4,143.1,1518.6,143.1L1518.6,143.1z M1211.6,200.6c0,33.2,23.1,57.5,58.4,57.5
				c16.5,0,27.5-3.7,39.4-13.1l-11.5-19.2c-8.9,6.4-18.3,9.8-28.6,9.8c-19-0.2-33-14-33-35c0-21.1,14-34.8,33-35
				c10.3,0,19.7,3.4,28.6,9.8l11.5-19.2c-11.9-9.4-22.9-13.1-39.4-13.1C1234.8,143.1,1211.6,167.4,1211.6,200.6L1211.6,200.6z
				 M1434.7,200.6v-54.7h-23.8v13.3c-7.6-9.8-19-16-34.6-16c-30.7,0-54.7,24.1-54.7,57.5c0,33.4,24,57.5,54.7,57.5
				c15.6,0,27-6.2,34.6-16v13.3h23.8V200.6z M1346.1,200.6c0-19.2,12.6-35,33.2-35c19.7,0,33,15.1,33,35s-13.3,35-33,35
				C1358.7,235.6,1346.1,219.8,1346.1,200.6L1346.1,200.6z M1058.6,143.1c-32.1,0-54.5,23.4-54.5,57.5c0,34.8,23.4,57.5,56.1,57.5
				c16.5,0,31.6-4.1,44.9-15.3l-11.7-17.6c-9.2,7.3-20.8,11.5-31.8,11.5c-15.3,0-29.3-7.1-32.8-26.8h81.3c0.2-3,0.5-6,0.5-9.2
				C1110.4,166.5,1089.3,143.1,1058.6,143.1L1058.6,143.1z M1058.2,164.4c15.3,0,25.2,9.6,27.7,26.6h-56.8
				C1031.6,175.2,1041.2,164.4,1058.2,164.4L1058.2,164.4z M1655.8,200.6v-98.7h-23.8v57.3c-7.6-9.8-19-16-34.6-16
				c-30.7,0-54.7,24.1-54.7,57.5c0,33.4,24,57.5,54.7,57.5c15.6,0,27-6.2,34.6-16v13.3h23.8V200.6z M1683.6,245.2
				c1,0,1.9,0.2,2.8,0.5c0.9,0.4,1.6,0.9,2.2,1.5c0.6,0.6,1.1,1.4,1.5,2.2c0.4,0.8,0.6,1.7,0.6,2.7c0,1-0.2,1.9-0.6,2.7
				c-0.4,0.8-0.9,1.6-1.5,2.2c-0.6,0.6-1.4,1.1-2.2,1.5c-0.9,0.4-1.8,0.6-2.8,0.6c-1,0-1.9-0.2-2.8-0.6c-0.9-0.4-1.6-0.9-2.3-1.5
				c-0.6-0.6-1.1-1.4-1.5-2.2c-0.4-0.8-0.6-1.7-0.6-2.7c0-1,0.2-1.9,0.6-2.7c0.4-0.8,0.9-1.6,1.5-2.2c0.6-0.6,1.4-1.1,2.3-1.5
				S1682.6,245.2,1683.6,245.2z M1683.6,257.6c0.7,0,1.4-0.1,2.1-0.4c0.6-0.3,1.2-0.7,1.7-1.2c0.5-0.5,0.9-1.1,1.2-1.7
				c0.3-0.7,0.4-1.4,0.4-2.1c0-0.7-0.1-1.5-0.4-2.1c-0.3-0.7-0.7-1.2-1.2-1.7c-0.5-0.5-1.1-0.9-1.7-1.1c-0.6-0.3-1.3-0.4-2.1-0.4
				c-0.8,0-1.5,0.1-2.1,0.4c-0.7,0.3-1.2,0.7-1.7,1.1c-0.5,0.5-0.9,1.1-1.1,1.7c-0.3,0.7-0.4,1.4-0.4,2.1c0,0.7,0.1,1.5,0.4,2.1
				c0.3,0.7,0.7,1.2,1.1,1.7c0.5,0.5,1.1,0.9,1.7,1.2C1682.1,257.4,1682.8,257.6,1683.6,257.6z M1684,248.9c0.8,0,1.5,0.2,1.9,0.6
				c0.4,0.4,0.7,0.9,0.7,1.5c0,0.5-0.2,1-0.5,1.3c-0.4,0.3-0.9,0.6-1.5,0.6l2.1,2.4h-1.7l-2-2.4h-0.6v2.4h-1.4v-6.5H1684z
				 M1682.4,250.1v1.7h1.6c0.4,0,0.7-0.1,0.9-0.2c0.2-0.1,0.3-0.4,0.3-0.7c0-0.3-0.1-0.5-0.3-0.6c-0.2-0.1-0.5-0.2-0.9-0.2H1682.4z
				 M1567.1,200.6c0-19.2,12.6-35,33.2-35c19.7,0,33,15.1,33,35s-13.3,35-33,35C1579.7,235.6,1567.1,219.8,1567.1,200.6
				L1567.1,200.6z M762.7,200.6v-54.7h-23.8v13.3c-7.6-9.8-19-16-34.6-16c-30.7,0-54.7,24.1-54.7,57.5c0,33.4,24,57.5,54.7,57.5
				c15.6,0,27-6.2,34.6-16v13.3h23.8V200.6z M674.1,200.6c0-19.2,12.6-35,33.2-35c19.7,0,33,15.1,33,35s-13.3,35-33,35
				C686.7,235.6,674.1,219.8,674.1,200.6z M64.3,333.7c1.3,1.1,2.6,2.2,4,3.3c-26.1,17.4-57.4,27.5-91.1,27.5
				c-90.9,0-164.6-73.7-164.6-164.6S-113.7,35.3-22.8,35.3c33.7,0,65,10.1,91.1,27.5c-1.3,1.1-2.7,2.2-4,3.3
				c-38.8,33.7-61,82.5-61,133.8C3.3,251.2,25.6,300,64.3,333.7z M180.7,35.3c-33.7,0-65,10.1-91.1,27.5c1.3,1.1,2.7,2.2,4,3.3
				c38.8,33.7,61,82.5,61,133.8c0,51.3-22.2,100.1-61,133.8c-1.3,1.1-2.6,2.2-4,3.3c26.1,17.4,57.4,27.5,91.1,27.5
				c90.9,0,164.6-73.7,164.6-164.6C345.3,109,271.6,35.3,180.7,35.3z M78.9,70.5c-2.1,1.7-4.2,3.4-6.2,5.2
				C38,105.9,16.1,150.3,16.1,199.9c0,49.6,22,94,56.6,124.2c2,1.8,4.1,3.5,6.2,5.2c2.1-1.7,4.2-3.4,6.2-5.2
				c34.7-30.2,56.6-74.6,56.6-124.2c0-49.6-22-94-56.6-124.2C83.1,73.9,81.1,72.2,78.9,70.5"/>
			<g class="st3">
				<g id="Page-1_2_">
					<g id="skrill-logo-web-1-rgb_2_">
						<path id="Fill-1_2_" class="st4" d="M418.8,73.8c15.5,0,28.1-12.6,28.1-28.1c0-15.5-12.6-28.1-28.1-28.1
							c-15.5,0-28.1,12.6-28.1,28.1C390.7,61.2,403.3,73.8,418.8,73.8L418.8,73.8z M203.5,88.9c-1.3,3.2-10.4,29-32.5,55.7V30.4
							L112.2,42v207.1h58.8v-64c17,25.6,25.5,64,25.5,64H267c-7-29-37.5-82.4-37.5-82.4c27.4-34.7,39.4-71.7,41.3-77.8H203.5
							L203.5,88.9z M358.2,86.8c-52.7,1.7-79.4,25.3-79.4,72.3v90h57.5v-73.4c0-28.1,3.7-40.2,37.1-41.3V87.6
							C367.7,86.4,358.2,86.8,358.2,86.8L358.2,86.8z M13.6,111.7c-7.2-0.5-23.9-1.6-23.9-16.6c0-18.1,24-18.1,33-18.1
							c15.8,0,36.4,4.7,51,9.1c0,0,8.2,2.9,15.1,5.8l0.6,0.2V42.5l-0.9-0.3c-17.3-6-37.4-11.9-74.7-11.9c-64.3,0-87,37.4-87,69.5
							c0,18.5,7.9,62,81.5,67c6.2,0.4,22.8,1.3,22.8,16.9c0,12.8-13.6,20.4-36.4,20.4c-25,0-49.2-6.4-63.9-12.4v51.1
							c22,5.8,46.9,8.7,76,8.7c62.8,0,91-35.4,91-70.5C97.9,141.1,66.4,115.3,13.6,111.7L13.6,111.7z M390.3,249.1h57v-160h-57
							V249.1z M554.7,40.6v208.6h57V30.4L554.7,40.6L554.7,40.6z M471.5,40.6l57-10.2v218.8h-57V40.6L471.5,40.6z"/>
					</g>
				</g>
			</g>
		</g>
		
			<linearGradient id="SVGID_4_" gradientUnits="userSpaceOnUse" x1="285" y1="-432.6138" x2="285" y2="-745.5254" gradientTransform="matrix(1 0 0 -1 0 -427.8187)">
			<stop  offset="0" style="stop-color:#6A195F;stop-opacity:0"/>
			<stop  offset="1" style="stop-color:#4C255B"/>
		</linearGradient>
		<rect x="0" y="-0.8" class="st5" width="570" height="269.9"/>
		<g>
			<g id="Page-1_3_">
				<g id="skrill-logo-web-1-rgb_3_">
					<path id="Fill-1_3_" class="st6" d="M317.1,121.5c3.3,0,6-2.7,6-6c0-3.3-2.7-6-6-6c-3.3,0-6,2.7-6,6
						C311,118.8,313.7,121.5,317.1,121.5L317.1,121.5z M270.9,124.7c-0.3,0.7-2.2,6.2-7,11.9v-24.5l-12.6,2.5v44.4h12.6v-13.7
						c3.7,5.5,5.5,13.7,5.5,13.7h15.1c-1.5-6.2-8-17.7-8-17.7c5.9-7.4,8.4-15.4,8.9-16.7H270.9L270.9,124.7z M304.1,124.3
						c-11.3,0.4-17,5.4-17,15.5v19.3h12.3v-15.7c0-6,0.8-8.6,7.9-8.9v-10C306.1,124.2,304.1,124.3,304.1,124.3L304.1,124.3z
						 M230.2,129.6c-1.5-0.1-5.1-0.3-5.1-3.6c0-3.9,5.1-3.9,7.1-3.9c3.4,0,7.8,1,10.9,1.9c0,0,1.8,0.6,3.2,1.3l0.1,0v-10.6l-0.2-0.1
						c-3.7-1.3-8-2.5-16-2.5c-13.8,0-18.7,8-18.7,14.9c0,4,1.7,13.3,17.5,14.4c1.3,0.1,4.9,0.3,4.9,3.6c0,2.7-2.9,4.4-7.8,4.4
						c-5.4,0-10.6-1.4-13.7-2.7v11c4.7,1.2,10.1,1.9,16.3,1.9c13.5,0,19.5-7.6,19.5-15.1C248.2,135.9,241.5,130.4,230.2,129.6
						L230.2,129.6z M310.9,159.1h12.2v-34.3h-12.2V159.1z M346.2,114.4v44.7h12.2v-46.9L346.2,114.4L346.2,114.4z M328.3,114.4
						l12.2-2.2v46.9h-12.2V114.4L328.3,114.4z"/>
				</g>
			</g>
		</g>
	</g>
</g>
<g id="Calque_8">
	<g id="Calque_5_2_">
		<g id="extra_14_">
			<linearGradient id="SVGID_5_" gradientUnits="userSpaceOnUse" x1="-1496.6" y1="254.0906" x2="-416.5999" y2="254.0906">
				<stop  offset="0" style="stop-color:#6B195F"/>
				<stop  offset="1" style="stop-color:#4C255B"/>
			</linearGradient>
			<polygon class="st7" points="-809.6,-285.9 -864.3,-285.9 -1030.3,-285.9 -1080.1,-285.9 -1222.4,-285.9 -1294.4,-285.9 
				-1496.6,-285.9 -1496.6,794.1 -999.8,794.1 -892.2,794.1 -650.8,794.1 -571.2,794.1 -416.6,794.1 -416.6,-285.9 			"/>
		</g>
		<g>
			<defs>
				<rect id="SVGID_6_" x="-1496.6" y="-285.9" width="1080" height="1080"/>
			</defs>
			<clipPath id="SVGID_7_">
				<use xlink:href="#SVGID_6_"  style="overflow:visible;"/>
			</clipPath>
			<g id="extra_2_" class="st8">
				<polygon class="st9" points="-809.6,-285.9 -864.3,-285.9 -1030.3,-285.9 -1080.1,-285.9 -1222.4,-285.9 -1294.4,-285.9 
					-1496.6,-285.9 -1496.6,794.1 -999.8,794.1 -892.2,794.1 -650.8,794.1 -571.2,794.1 -416.6,794.1 -416.6,-285.9 				"/>
			</g>
			<g class="st10">
				<g id="Page-1_1_">
					<g id="skrill-logo-web-1-rgb_1_">
						<path id="Fill-1_1_" class="st4" d="M-616,115.7c35.4,0,64-28.7,64-64c0-35.4-28.7-64-64-64c-35.3,0-64,28.7-64,64
							C-679.9,87-651.3,115.7-616,115.7L-616,115.7z M-1106.5,150.2c-2.9,7.3-23.7,66-74,126.9V16.7l-134,26.5v472h134V369.3
							c38.8,58.2,58,145.9,58,145.9h160.6c-15.9-66-85.4-187.8-85.4-187.8c62.3-79,89.7-163.3,94.1-177.2H-1106.5L-1106.5,150.2z
							 M-754.1,145.3c-120.1,3.9-181,57.7-181,164.8v205.1h131V347.9c0-64.1,8.4-91.6,84.5-94.2V147.2
							C-732.4,144.4-754.1,145.3-754.1,145.3L-754.1,145.3z M-1539.3,202.2c-16.4-1.1-54.4-3.5-54.4-37.8
							c0-41.3,54.7-41.3,75.3-41.3c36.1,0,82.8,10.7,116.2,20.7c0,0,18.6,6.6,34.5,13.3l1.5,0.4V44.4l-2-0.6
							c-39.4-13.8-85.2-27-170.1-27c-146.4,0-198.3,85.3-198.3,158.4c0,42.1,18.1,141.3,185.8,152.7c14.2,0.9,51.9,3,51.9,38.4
							c0,29.2-30.9,46.4-82.8,46.4c-56.9,0-112.2-14.5-145.7-28.3v116.5c50.2,13.2,106.8,19.7,173.2,19.7
							c143.2,0,207.3-80.7,207.3-160.7C-1347.2,269.2-1418.9,210.3-1539.3,202.2L-1539.3,202.2z M-680.9,515.2H-551V150.6h-129.9
							V515.2z M-306.3,40v475.2h129.9V16.7L-306.3,40L-306.3,40z M-495.9,40l129.8-23.2v498.5h-129.8V40L-495.9,40z"/>
					</g>
				</g>
			</g>
		</g>
		
			<linearGradient id="SVGID_8_" gradientUnits="userSpaceOnUse" x1="-956.5999" y1="-164.3245" x2="-956.5999" y2="-1416.0935" gradientTransform="matrix(1 0 0 -1 0 -427.8187)">
			<stop  offset="0" style="stop-color:#6A195F;stop-opacity:0"/>
			<stop  offset="1" style="stop-color:#4C255B"/>
		</linearGradient>
		<rect x="-1496.6" y="-285.9" class="st11" width="1080" height="1080"/>
	</g>
	<g id="Calque_5">
		<g id="Page-1">
			<g id="skrill-logo-web-1-rgb">
				<path id="Fill-1" class="st6" d="M-853.3,212.1c10.7,0,19.4-8.7,19.4-19.4c0-10.7-8.7-19.4-19.4-19.4
					c-10.7,0-19.4,8.7-19.4,19.4C-872.7,203.4-864,212.1-853.3,212.1L-853.3,212.1z M-1002,222.6c-0.9,2.2-7.2,20-22.4,38.5v-79
					l-40.6,8v143.1h40.6V289c11.8,17.7,17.6,44.2,17.6,44.2h48.7c-4.8-20-25.9-56.9-25.9-56.9c18.9-24,27.2-49.5,28.5-53.7H-1002
					L-1002,222.6z M-895.2,221.1c-36.4,1.2-54.9,17.5-54.9,50v62.2h39.7v-50.7c0-19.4,2.5-27.8,25.6-28.6v-32.3
					C-888.6,220.8-895.2,221.1-895.2,221.1L-895.2,221.1z M-1133.3,238.4c-5-0.3-16.5-1.1-16.5-11.4c0-12.5,16.6-12.5,22.8-12.5
					c10.9,0,25.1,3.2,35.2,6.3c0,0,5.6,2,10.5,4l0.4,0.1v-34.3l-0.6-0.2c-11.9-4.2-25.8-8.2-51.6-8.2c-44.4,0-60.1,25.9-60.1,48
					c0,12.8,5.5,42.8,56.3,46.3c4.3,0.3,15.8,0.9,15.8,11.6c0,8.9-9.4,14.1-25.1,14.1c-17.3,0-34-4.4-44.2-8.6v35.3
					c15.2,4,32.4,6,52.5,6c43.4,0,62.9-24.5,62.9-48.7C-1075,258.7-1096.8,240.8-1133.3,238.4L-1133.3,238.4z M-873,333.3h39.4
					V222.7H-873V333.3z M-759.4,189.2v144.1h39.4V182.1L-759.4,189.2L-759.4,189.2z M-816.9,189.2l39.4-7v151.2h-39.4V189.2
					L-816.9,189.2z"/>
			</g>
		</g>
	</g>
</g>
<g id="Calque_3_2_">
</g>
<g id="Calque_7">
</g>
</svg>
