<?xml version="1.0" encoding="utf-8"?>
<!-- Generator: Adobe Illustrator 24.3.0, SVG Export Plug-In . SVG Version: 6.00 Build 0)  -->
<svg version="1.1" xmlns="http://www.w3.org/2000/svg" xmlns:xlink="http://www.w3.org/1999/xlink" x="0px" y="0px"
	 viewBox="0 0 570 269" style="enable-background:new 0 0 570 269;" xml:space="preserve">
<style type="text/css">
	.st0{fill:#075900;}
	.st1{opacity:0.1;}
	.st2{display:none;clip-path:url(#SVGID_2_);}
	.st3{clip-path:url(#SVGID_2_);}
	.st4{fill-rule:evenodd;clip-rule:evenodd;}
	.st5{fill:url(#SVGID_3_);}
	.st6{fill-rule:evenodd;clip-rule:evenodd;fill:#FFFFFF;}
	.st7{fill:#FFFFFF;}
	.st8{clip-path:url(#SVGID_7_);}
	.st9{fill:none;}
	.st10{opacity:0.1;clip-path:url(#SVGID_7_);}
	.st11{fill:url(#SVGID_8_);}
</style>
<g id="Calque_1">
	<g id="Calque_1_1_">
		<g id="extra_12_">
			<polygon class="st0" points="362.6,0 333.7,0 246.1,0 219.8,0 144.7,0 106.7,0 0,0 0,269 262.2,269 319,269 446.4,269 488.4,269 
				570,269 570,0 			"/>
		</g>
		<g class="st1">
			<defs>
				<polygon id="SVGID_1_" class="st1" points="362.6,0 333.7,0 246.1,0 219.8,0 144.7,0 106.7,0 0,0 0,269 262.2,269 319,269 
					446.4,269 488.4,269 570,269 570,0 				"/>
			</defs>
			<clipPath id="SVGID_2_">
				<use xlink:href="#SVGID_1_"  style="overflow:visible;"/>
			</clipPath>
			<path class="st2" d="M329.6,301.9v-5.3h2.1v-1.1h-5.4v1.1h2.1v5.3H329.6z M340.2,301.9v-6.4h-1.7l-1.9,4.4l-1.9-4.4H333v6.4h1.2
				v-4.8l1.8,4.2h1.2l1.8-4.2v4.8H340.2z M628.5,255.3v-68.7c0-25.9-16.5-43.3-43.1-43.5c-14-0.2-28.4,4.1-38.5,19.5
				c-7.6-12.1-19.5-19.5-36.2-19.5c-11.7,0-23.1,3.4-32.1,16.3v-13.5h-23.8v109.5h24v-60.7c0-19,10.5-29.1,26.8-29.1
				c15.8,0,23.8,10.3,23.8,28.9v60.9h24v-60.7c0-19,11-29.1,26.8-29.1c16.3,0,24,10.3,24,28.9v60.9H628.5z M984.4,145.8h-38.9v-33.2
				h-24v33.2h-22.2v21.8h22.2v49.9c0,25.4,9.8,40.5,38,40.5c10.3,0,22.2-3.2,29.8-8.5l-6.9-20.4c-7.1,4.1-14.9,6.2-21.1,6.2
				c-11.9,0-15.8-7.3-15.8-18.3v-49.5h38.9V145.8z M1187.6,143.1c-13.7,0-22.7,6.4-28.9,16v-13.3h-23.6v109.5h23.8v-61.4
				c0-18.1,7.8-28.2,23.4-28.2c4.8,0,9.8,0.7,14.9,2.7l7.3-22.4C1199.3,144,1192.4,143.1,1187.6,143.1L1187.6,143.1z M880.4,154.6
				c-11.5-7.6-27.3-11.5-44.7-11.5c-27.7,0-45.6,13.3-45.6,35c0,17.9,13.3,28.9,37.8,32.3l11.2,1.6c13.1,1.8,19.2,5.3,19.2,11.5
				c0,8.5-8.7,13.3-25,13.3c-16.5,0-28.4-5.3-36.4-11.5l-11.2,18.6c13.1,9.6,29.5,14.2,47.4,14.2c31.6,0,49.9-14.9,49.9-35.7
				c0-19.2-14.4-29.3-38.2-32.8l-11.2-1.6c-10.3-1.4-18.6-3.4-18.6-10.8c0-8,7.8-12.8,20.8-12.8c14,0,27.5,5.3,34.1,9.4L880.4,154.6
				z M1518.6,143.1c-13.7,0-22.7,6.4-28.9,16v-13.3h-23.6v109.5h23.8v-61.4c0-18.1,7.8-28.2,23.4-28.2c4.8,0,9.9,0.7,14.9,2.7
				l7.3-22.4C1530.2,144,1523.4,143.1,1518.6,143.1L1518.6,143.1z M1211.6,200.6c0,33.2,23.1,57.5,58.4,57.5
				c16.5,0,27.5-3.7,39.4-13.1l-11.5-19.2c-8.9,6.4-18.3,9.8-28.6,9.8c-19-0.2-33-14-33-35c0-21.1,14-34.8,33-35
				c10.3,0,19.7,3.4,28.6,9.8l11.5-19.2c-11.9-9.4-22.9-13.1-39.4-13.1C1234.8,143.1,1211.6,167.4,1211.6,200.6L1211.6,200.6z
				 M1434.7,200.6v-54.7h-23.8v13.3c-7.6-9.8-19-16-34.6-16c-30.7,0-54.7,24.1-54.7,57.5c0,33.4,24,57.5,54.7,57.5
				c15.6,0,27-6.2,34.6-16v13.3h23.8V200.6z M1346.1,200.6c0-19.2,12.6-35,33.2-35c19.7,0,33,15.1,33,35s-13.3,35-33,35
				C1358.7,235.6,1346.1,219.8,1346.1,200.6L1346.1,200.6z M1058.6,143.1c-32.1,0-54.5,23.4-54.5,57.5c0,34.8,23.4,57.5,56.1,57.5
				c16.5,0,31.6-4.1,44.9-15.3l-11.7-17.6c-9.2,7.3-20.8,11.5-31.8,11.5c-15.3,0-29.3-7.1-32.8-26.8h81.3c0.2-3,0.5-6,0.5-9.2
				C1110.4,166.5,1089.3,143.1,1058.6,143.1L1058.6,143.1z M1058.2,164.4c15.3,0,25.2,9.6,27.7,26.6h-56.8
				C1031.6,175.2,1041.2,164.4,1058.2,164.4L1058.2,164.4z M1655.8,200.6v-98.7h-23.8v57.3c-7.6-9.8-19-16-34.6-16
				c-30.7,0-54.7,24.1-54.7,57.5c0,33.4,24,57.5,54.7,57.5c15.6,0,27-6.2,34.6-16v13.3h23.8V200.6z M1683.6,245.2
				c1,0,1.9,0.2,2.8,0.5c0.9,0.4,1.6,0.9,2.2,1.5c0.6,0.6,1.1,1.4,1.5,2.2c0.4,0.8,0.6,1.7,0.6,2.7c0,1-0.2,1.9-0.6,2.7
				c-0.4,0.8-0.9,1.6-1.5,2.2c-0.6,0.6-1.4,1.1-2.2,1.5c-0.9,0.4-1.8,0.6-2.8,0.6c-1,0-1.9-0.2-2.8-0.6c-0.9-0.4-1.6-0.9-2.3-1.5
				c-0.6-0.6-1.1-1.4-1.5-2.2c-0.4-0.8-0.6-1.7-0.6-2.7c0-1,0.2-1.9,0.6-2.7c0.4-0.8,0.9-1.6,1.5-2.2c0.6-0.6,1.4-1.1,2.3-1.5
				S1682.6,245.2,1683.6,245.2z M1683.6,257.6c0.7,0,1.4-0.1,2.1-0.4c0.6-0.3,1.2-0.7,1.7-1.2c0.5-0.5,0.9-1.1,1.2-1.7
				c0.3-0.7,0.4-1.4,0.4-2.1c0-0.7-0.1-1.5-0.4-2.1c-0.3-0.7-0.7-1.2-1.2-1.7c-0.5-0.5-1.1-0.9-1.7-1.1c-0.6-0.3-1.3-0.4-2.1-0.4
				c-0.8,0-1.5,0.1-2.1,0.4c-0.7,0.3-1.2,0.7-1.7,1.1c-0.5,0.5-0.9,1.1-1.1,1.7c-0.3,0.7-0.4,1.4-0.4,2.1c0,0.7,0.1,1.5,0.4,2.1
				c0.3,0.7,0.7,1.2,1.1,1.7c0.5,0.5,1.1,0.9,1.7,1.2C1682.1,257.4,1682.8,257.6,1683.6,257.6z M1684,248.9c0.8,0,1.5,0.2,1.9,0.6
				c0.4,0.4,0.7,0.9,0.7,1.5c0,0.5-0.2,1-0.5,1.3c-0.4,0.3-0.9,0.6-1.5,0.6l2.1,2.4h-1.7l-2-2.4h-0.6v2.4h-1.4v-6.5H1684z
				 M1682.4,250.1v1.7h1.6c0.4,0,0.7-0.1,0.9-0.2c0.2-0.1,0.3-0.4,0.3-0.7c0-0.3-0.1-0.5-0.3-0.6c-0.2-0.1-0.5-0.2-0.9-0.2H1682.4z
				 M1567.1,200.6c0-19.2,12.6-35,33.2-35c19.7,0,33,15.1,33,35s-13.3,35-33,35C1579.7,235.6,1567.1,219.8,1567.1,200.6
				L1567.1,200.6z M762.7,200.6v-54.7h-23.8v13.3c-7.6-9.8-19-16-34.6-16c-30.7,0-54.7,24.1-54.7,57.5c0,33.4,24,57.5,54.7,57.5
				c15.6,0,27-6.2,34.6-16v13.3h23.8V200.6z M674.1,200.6c0-19.2,12.6-35,33.2-35c19.7,0,33,15.1,33,35s-13.3,35-33,35
				C686.7,235.6,674.1,219.8,674.1,200.6z M64.3,333.7c1.3,1.1,2.6,2.2,4,3.3c-26.1,17.4-57.4,27.5-91.1,27.5
				c-90.9,0-164.6-73.7-164.6-164.6S-113.7,35.3-22.8,35.3c33.7,0,65,10.1,91.1,27.5c-1.3,1.1-2.7,2.2-4,3.3
				c-38.8,33.7-61,82.5-61,133.8C3.3,251.2,25.6,300,64.3,333.7z M180.7,35.3c-33.7,0-65,10.1-91.1,27.5c1.3,1.1,2.7,2.2,4,3.3
				c38.8,33.7,61,82.5,61,133.8c0,51.3-22.2,100.1-61,133.8c-1.3,1.1-2.6,2.2-4,3.3c26.1,17.4,57.4,27.5,91.1,27.5
				c90.9,0,164.6-73.7,164.6-164.6C345.3,109,271.6,35.3,180.7,35.3z M78.9,70.5c-2.1,1.7-4.2,3.4-6.2,5.2
				C38,105.9,16.1,150.3,16.1,199.9c0,49.6,22,94,56.6,124.2c2,1.8,4.1,3.5,6.2,5.2c2.1-1.7,4.2-3.4,6.2-5.2
				c34.7-30.2,56.6-74.6,56.6-124.2c0-49.6-22-94-56.6-124.2C83.1,73.9,81.1,72.2,78.9,70.5"/>
			<g class="st3">
				<path class="st4" d="M-35.3,31.2L110.9-72.5l147,103.7H-35.3L-35.3,31.2z M94.7,264.8l93.4-23.9l-17.5,29.3
					c32.2,29.6,66.3,38.6,105.1,23.9c-38.3,55.3-94.2,59.5-140.1,34.5l-17.9,29.8L94.7,264.8L94.7,264.8L94.7,264.8L94.7,264.8z
					 M292.9,117.9L439.1,14.1l147,103.7H292.9L292.9,117.9z M301.8,287.5v-34h10.1l9.6-7.5v-90.4h-19.6v-21.6h274.6v21.6h-19.6v90.4
					l9.6,7.5h10.3v34H301.8L301.8,287.5z M367.2,253.4h11.1l9.6-7.5v-90.3h-30.2v90.4L367.2,253.4L367.2,253.4L367.2,253.4z
					 M433.6,253.4h11.1l9.6-7.5v-90.3h-30.2v90.4L433.6,253.4L433.6,253.4L433.6,253.4z M500,253.4h11.1l9.6-7.5v-90.3h-30.2v90.4
					L500,253.4L500,253.4L500,253.4z M399.5-25.6L305.1-6.3l19-28.4c-30.7-31.2-64.3-41.9-103.8-29c41-53.3,97.1-54.8,141.7-27.6
					l19.3-29L399.5-25.6L399.5-25.6L399.5-25.6L399.5-25.6z M-26.4,200.8v-34h10.1l9.6-7.5V68.9h-19.6V47.2h274.6v21.6h-19.6v90.3
					l9.6,7.5h10.3v34L-26.4,200.8L-26.4,200.8z M39,166.7h11.1l9.6-7.5V68.9H29.4v90.3L39,166.7L39,166.7L39,166.7z M105.4,166.7
					h11.1l9.6-7.5V68.9H95.8v90.3L105.4,166.7L105.4,166.7L105.4,166.7z M171.8,166.7h11.1l9.6-7.5V68.9h-30.2v90.3L171.8,166.7
					L171.8,166.7L171.8,166.7z"/>
				<text transform="matrix(1 0 0 1 74.5104 475.0643)"><tspan x="0" y="0" style="font-family:'Montserrat-Bold'; font-size:119.5024px;">BANK </tspan><tspan x="-134.3" y="106.2" style="font-family:'Montserrat-Bold'; font-size:119.5024px;">TRANSFER</tspan></text>
			</g>
		</g>
		<linearGradient id="SVGID_3_" gradientUnits="userSpaceOnUse" x1="285" y1="-0.7785" x2="285" y2="269.1214">
			<stop  offset="0" style="stop-color:#075900;stop-opacity:0"/>
			<stop  offset="1" style="stop-color:#075900"/>
		</linearGradient>
		<rect x="0" y="-0.8" class="st5" width="570" height="269.9"/>
		<g>
			<g>
				<defs>
					<path id="SVGID_4_" d="M204.4,200.1h161.3c8.4,0,15.2-6.8,15.2-15.2V84.1c0-8.4-6.8-15.2-15.2-15.2H204.4
						c-8.4,0-15.2,6.8-15.2,15.2v100.8C189.1,193.3,195.9,200.1,204.4,200.1z"/>
				</defs>
				<clipPath id="SVGID_5_">
					<use xlink:href="#SVGID_4_"  style="overflow:visible;"/>
				</clipPath>
			</g>
		</g>
		<path class="st6" d="M153.1,120.8l29.4-20.9l29.6,20.9H153.1L153.1,120.8z M179.3,167.9l18.8-4.8l-3.5,5.9
			c6.5,6,13.4,7.8,21.2,4.8c-7.7,11.1-19,12-28.2,7l-3.6,6L179.3,167.9L179.3,167.9L179.3,167.9L179.3,167.9z M219.2,138.3
			l29.4-20.9l29.6,20.9H219.2L219.2,138.3z M221,172.4v-6.8h2l1.9-1.5v-18.2h-4v-4.4h55.3v4.4h-3.9v18.2l1.9,1.5h2.1v6.8H221
			L221,172.4z M234.2,165.6h2.2l1.9-1.5v-18.2h-6.1v18.2L234.2,165.6L234.2,165.6L234.2,165.6z M247.5,165.6h2.2l1.9-1.5v-18.2h-6.1
			v18.2L247.5,165.6L247.5,165.6L247.5,165.6z M260.9,165.6h2.2l1.9-1.5v-18.2H259v18.2L260.9,165.6L260.9,165.6L260.9,165.6z
			 M240.7,109.4l-19,3.9l3.8-5.7c-6.2-6.3-13-8.4-20.9-5.8c8.2-10.7,19.5-11,28.5-5.6l3.9-5.8L240.7,109.4L240.7,109.4L240.7,109.4
			L240.7,109.4z M154.9,155v-6.8h2l1.9-1.5v-18.2h-4V124h55.3v4.4h-3.9v18.2l1.9,1.5h2.1v6.8L154.9,155L154.9,155z M168.1,148.1h2.2
			l1.9-1.5v-18.2h-6.1v18.2L168.1,148.1L168.1,148.1L168.1,148.1z M181.4,148.1h2.2l1.9-1.5v-18.2h-6.1v18.2L181.4,148.1
			L181.4,148.1L181.4,148.1z M194.8,148.1h2.2l1.9-1.5v-18.2h-6.1v18.2L194.8,148.1L194.8,148.1L194.8,148.1z"/>
		<g>
			<path class="st7" d="M313.4,127.6c0.5,0.7,0.8,1.6,0.8,2.6c0,1.5-0.6,2.6-1.7,3.4c-1.1,0.8-2.8,1.2-5,1.2h-8.7V118h8.2
				c2.1,0,3.6,0.4,4.7,1.2c1.1,0.8,1.6,1.9,1.6,3.2c0,0.8-0.2,1.5-0.6,2.2c-0.4,0.6-0.9,1.1-1.6,1.5
				C312.1,126.4,312.9,126.9,313.4,127.6z M302.7,120.9v4h3.9c1,0,1.7-0.2,2.2-0.5s0.7-0.8,0.7-1.5c0-0.7-0.2-1.2-0.7-1.5
				c-0.5-0.3-1.2-0.5-2.2-0.5H302.7z M309.5,131.4c0.5-0.3,0.8-0.9,0.8-1.6c0-1.4-1-2.1-3.1-2.1h-4.5v4.2h4.5
				C308.2,131.9,309,131.7,309.5,131.4z"/>
			<path class="st7" d="M328.3,131.2h-7.8l-1.5,3.6h-4l7.5-16.8h3.9l7.5,16.8h-4.1L328.3,131.2z M327.1,128.3l-2.7-6.4l-2.7,6.4
				H327.1z"/>
			<path class="st7" d="M351.1,118v16.8h-3.2l-8.4-10.2v10.2h-3.9V118h3.2l8.4,10.2V118H351.1z"/>
			<path class="st7" d="M361.2,128.2l-2.3,2.4v4.3h-3.9V118h3.9v7.9l7.5-7.9h4.3l-7,7.5l7.4,9.3h-4.5L361.2,128.2z"/>
			<path class="st7" d="M302.3,142.6h-5.4v-3.2h14.7v3.2h-5.4v13.7h-3.9V142.6z"/>
			<path class="st7" d="M324.4,156.2l-3.2-4.7H321h-3.4v4.7h-3.9v-16.8h7.3c1.5,0,2.8,0.2,3.9,0.7c1.1,0.5,1.9,1.2,2.5,2.1
				c0.6,0.9,0.9,2,0.9,3.2c0,1.3-0.3,2.3-0.9,3.2c-0.6,0.9-1.5,1.6-2.6,2.1l3.8,5.4H324.4z M323.4,143.3c-0.6-0.5-1.5-0.8-2.7-0.8
				h-3.2v5.9h3.2c1.2,0,2.1-0.3,2.7-0.8c0.6-0.5,0.9-1.2,0.9-2.2C324.3,144.6,324,143.8,323.4,143.3z"/>
			<path class="st7" d="M342.4,152.6h-7.8l-1.5,3.6h-4l7.5-16.8h3.9l7.5,16.8h-4.1L342.4,152.6z M341.2,149.7l-2.7-6.4l-2.7,6.4
				H341.2z"/>
			<path class="st7" d="M365.2,139.4v16.8H362l-8.4-10.2v10.2h-3.9v-16.8h3.2l8.4,10.2v-10.2H365.2z"/>
			<path class="st7" d="M370.9,156c-1.2-0.4-2.2-0.8-3-1.4l1.3-2.9c0.7,0.5,1.6,1,2.6,1.3s2,0.5,3,0.5c1.1,0,1.9-0.2,2.5-0.5
				c0.5-0.3,0.8-0.8,0.8-1.3c0-0.4-0.2-0.7-0.5-1c-0.3-0.3-0.7-0.5-1.2-0.6c-0.5-0.2-1.2-0.3-2-0.5c-1.3-0.3-2.3-0.6-3.2-0.9
				c-0.8-0.3-1.5-0.8-2.1-1.5c-0.6-0.7-0.9-1.6-0.9-2.7c0-1,0.3-1.9,0.8-2.7c0.5-0.8,1.3-1.4,2.4-1.9s2.4-0.7,3.9-0.7
				c1.1,0,2.1,0.1,3.2,0.4c1,0.3,1.9,0.6,2.7,1.1l-1.2,3c-1.6-0.9-3.1-1.3-4.7-1.3c-1.1,0-1.9,0.2-2.4,0.5c-0.5,0.4-0.8,0.8-0.8,1.4
				c0,0.6,0.3,1,0.9,1.3c0.6,0.3,1.5,0.6,2.8,0.8c1.3,0.3,2.3,0.6,3.2,0.9c0.8,0.3,1.5,0.8,2.1,1.4c0.6,0.7,0.9,1.5,0.9,2.7
				c0,1-0.3,1.8-0.8,2.6c-0.5,0.8-1.3,1.4-2.4,1.9c-1.1,0.5-2.4,0.7-3.9,0.7C373.4,156.5,372.1,156.3,370.9,156z"/>
			<path class="st7" d="M388.5,142.5v4.5h7.8v3.1h-7.8v6.1h-3.9v-16.8h12.7v3.1H388.5z"/>
			<path class="st7" d="M413,153.1v3.1h-13v-16.8h12.7v3.1h-8.9v3.7h7.8v3h-7.8v3.9H413z"/>
			<path class="st7" d="M426.8,156.2l-3.2-4.7h-0.2H420v4.7h-3.9v-16.8h7.3c1.5,0,2.8,0.2,3.9,0.7c1.1,0.5,1.9,1.2,2.5,2.1
				c0.6,0.9,0.9,2,0.9,3.2c0,1.3-0.3,2.3-0.9,3.2c-0.6,0.9-1.5,1.6-2.6,2.1l3.8,5.4H426.8z M425.9,143.3c-0.6-0.5-1.5-0.8-2.7-0.8
				H420v5.9h3.2c1.2,0,2.1-0.3,2.7-0.8c0.6-0.5,0.9-1.2,0.9-2.2C426.8,144.6,426.5,143.8,425.9,143.3z"/>
		</g>
	</g>
</g>
<g id="Calque_8">
	<g id="Calque_5_2_">
		<g id="extra_14_">
			<polygon class="st0" points="-809.6,-285.9 -864.3,-285.9 -1030.3,-285.9 -1080.1,-285.9 -1222.4,-285.9 -1294.4,-285.9 
				-1496.6,-285.9 -1496.6,794.1 -999.8,794.1 -892.2,794.1 -650.8,794.1 -571.2,794.1 -416.6,794.1 -416.6,-285.9 			"/>
		</g>
		<g>
			<defs>
				<rect id="SVGID_6_" x="-1496.6" y="-285.9" width="1080" height="1080"/>
			</defs>
			<clipPath id="SVGID_7_">
				<use xlink:href="#SVGID_6_"  style="overflow:visible;"/>
			</clipPath>
			<g id="extra_2_" class="st8">
				<polygon class="st9" points="-809.6,-285.9 -864.3,-285.9 -1030.3,-285.9 -1080.1,-285.9 -1222.4,-285.9 -1294.4,-285.9 
					-1496.6,-285.9 -1496.6,794.1 -999.8,794.1 -892.2,794.1 -650.8,794.1 -571.2,794.1 -416.6,794.1 -416.6,-285.9 				"/>
			</g>
			<g class="st10">
				<path class="st4" d="M-1496.2-95.1l250.3-177.6l251.6,177.6H-1496.2L-1496.2-95.1z M-1273.7,304.9l159.8-41l-30,50.1
					c55.2,50.7,113.5,66.2,180,40.9c-65.5,94.6-161.3,101.8-239.9,59.1l-30.7,51.1L-1273.7,304.9L-1273.7,304.9L-1273.7,304.9
					L-1273.7,304.9z M-934.2,53.4l250.3-177.6l251.6,177.6H-934.2L-934.2,53.4z M-919,343.7v-58.2h17.2l16.5-12.9V117.9h-33.6V80.8
					h470.1v37.1h-33.5v154.7l16.5,12.9h17.6v58.2H-919L-919,343.7z M-807,285.4h19l16.5-12.9V117.9h-51.8v154.7L-807,285.4
					L-807,285.4L-807,285.4z M-693.3,285.4h19l16.5-12.9V117.9h-51.8v154.7L-693.3,285.4L-693.3,285.4L-693.3,285.4z M-579.7,285.4
					h19l16.5-12.9V117.9H-596v154.7L-579.7,285.4L-579.7,285.4L-579.7,285.4z M-751.7-192.3l-161.7,33.1l32.5-48.6
					c-52.6-53.4-110.1-71.7-177.8-49.7c70.1-91.3,166.2-93.8,242.5-47.2l33.1-49.6L-751.7-192.3L-751.7-192.3L-751.7-192.3
					L-751.7-192.3z M-1480.9,195.3v-58.2h17.2l16.5-12.9V-30.5h-33.6v-37.1h470.1v37.1h-33.5v154.6l16.5,12.9h17.6v58.2
					L-1480.9,195.3L-1480.9,195.3z M-1369,137h19l16.5-12.9V-30.5h-51.8v154.6L-1369,137L-1369,137L-1369,137z M-1255.3,137h19
					l16.5-12.9V-30.5h-51.8v154.6L-1255.3,137L-1255.3,137L-1255.3,137z M-1141.6,137h19l16.5-12.9V-30.5h-51.8v154.6L-1141.6,137
					L-1141.6,137L-1141.6,137z"/>
				<text transform="matrix(1 0 0 1 -1308.1654 664.9031)"><tspan x="0" y="0" style="font-family:'Montserrat-Bold'; font-size:204.6012px;">BANK </tspan><tspan x="-230" y="181.9" style="font-family:'Montserrat-Bold'; font-size:204.6012px;">TRANSFER</tspan></text>
			</g>
		</g>
		
			<linearGradient id="SVGID_8_" gradientUnits="userSpaceOnUse" x1="-956.5999" y1="-164.3245" x2="-956.5999" y2="-1416.0935" gradientTransform="matrix(1 0 0 -1 0 -427.8187)">
			<stop  offset="0" style="stop-color:#075900;stop-opacity:0"/>
			<stop  offset="1" style="stop-color:#075900"/>
		</linearGradient>
		<rect x="-1496.6" y="-285.9" class="st11" width="1080" height="1080"/>
	</g>
	<g id="Calque_5">
		<path class="st6" d="M-1198.2,111.4l110.1-78.1l110.7,78.1H-1198.2L-1198.2,111.4z M-1100.3,287.3l70.3-18l-13.2,22.1
			c24.3,22.3,49.9,29.1,79.2,18c-28.8,41.6-71,44.8-105.5,26l-13.5,22.5L-1100.3,287.3L-1100.3,287.3L-1100.3,287.3L-1100.3,287.3z
			 M-951,176.6l110.1-78.1l110.7,78.1H-951L-951,176.6z M-944.3,304.3v-25.6h7.6l7.2-5.7V205h-14.8v-16.3h206.8V205h-14.7v68.1
			l7.2,5.7h7.7v25.6H-944.3L-944.3,304.3z M-895.1,278.7h8.3l7.2-5.7v-68h-22.8v68.1L-895.1,278.7L-895.1,278.7L-895.1,278.7z
			 M-845.1,278.7h8.3l7.2-5.7v-68h-22.8v68.1L-845.1,278.7L-845.1,278.7L-845.1,278.7z M-795.1,278.7h8.3l7.2-5.7v-68h-22.8v68.1
			L-795.1,278.7L-795.1,278.7L-795.1,278.7z M-870.7,68.6l-71.1,14.5l14.3-21.4c-23.2-23.5-48.4-31.5-78.2-21.9
			C-975-0.2-932.7-1.4-899.1,19.1l14.5-21.8L-870.7,68.6L-870.7,68.6L-870.7,68.6L-870.7,68.6z M-1191.5,239.1v-25.6h7.6l7.2-5.7
			v-68.1h-14.8v-16.3h206.8v16.3h-14.7v68l7.2,5.7h7.7V239L-1191.5,239.1L-1191.5,239.1z M-1142.3,213.4h8.3l7.2-5.7v-68h-22.8v68
			L-1142.3,213.4L-1142.3,213.4L-1142.3,213.4z M-1092.3,213.4h8.3l7.2-5.7v-68h-22.8v68L-1092.3,213.4L-1092.3,213.4L-1092.3,213.4
			z M-1042.3,213.4h8.3l7.2-5.7v-68h-22.8v68L-1042.3,213.4L-1042.3,213.4L-1042.3,213.4z"/>
		<g>
			<path class="st7" d="M-1053.3,418.6c2,2.7,3.1,6,3.1,9.9c0,5.5-2.1,9.8-6.4,12.7c-4.3,3-10.5,4.5-18.8,4.5h-32.6v-63h30.8
				c7.7,0,13.6,1.5,17.7,4.4c4.1,2.9,6.2,6.9,6.2,12c0,3.1-0.7,5.8-2.2,8.2c-1.5,2.4-3.5,4.3-6.2,5.7
				C-1058.2,414-1055.4,415.9-1053.3,418.6z M-1093.6,393.6v14.8h14.5c3.6,0,6.3-0.6,8.2-1.9c1.9-1.3,2.8-3.1,2.8-5.6
				c0-2.5-0.9-4.3-2.8-5.5c-1.9-1.2-4.6-1.8-8.2-1.8H-1093.6z M-1067.9,432.8c1.9-1.3,2.9-3.2,2.9-5.8c0-5.2-3.9-7.8-11.6-7.8h-17
				v15.6h17C-1072.7,434.7-1069.8,434-1067.9,432.8z"/>
			<path class="st7" d="M-997.7,432.1h-29.3l-5.6,13.5h-14.9l28.1-63h14.4l28.2,63h-15.3L-997.7,432.1z M-1002.3,421.1l-10-24.1
				l-10,24.1H-1002.3z"/>
			<path class="st7" d="M-912.5,382.6v63h-12l-31.4-38.2v38.2h-14.4v-63h12.1l31.3,38.2v-38.2H-912.5z"/>
			<path class="st7" d="M-874.6,420.9l-8.5,8.8v15.9h-14.5v-63h14.5v29.4l27.9-29.4h16.2l-26.1,28.1l27.6,34.9h-17L-874.6,420.9z"/>
			<path class="st7" d="M-1196.2,474.5h-20.2v-11.9h54.9v11.9h-20.2v51.1h-14.6V474.5z"/>
			<path class="st7" d="M-1113.5,525.6l-12.1-17.5h-0.7h-12.7v17.5h-14.6v-63h27.3c5.6,0,10.4,0.9,14.5,2.8c4.1,1.9,7.3,4.5,9.5,7.9
				c2.2,3.4,3.3,7.5,3.3,12.2c0,4.7-1.1,8.7-3.4,12.1c-2.2,3.4-5.4,6-9.6,7.8l14.1,20.2H-1113.5z M-1117.1,477.4
				c-2.3-1.9-5.6-2.8-10-2.8h-11.9v22h11.9c4.4,0,7.7-1,10-2.9c2.3-1.9,3.4-4.6,3.4-8.1C-1113.7,482-1114.9,479.2-1117.1,477.4z"/>
			<path class="st7" d="M-1046,512.1h-29.2l-5.6,13.5h-14.9l28.1-63h14.4l28.2,63h-15.3L-1046,512.1z M-1050.5,501.1l-10-24.1
				l-10,24.1H-1050.5z"/>
			<path class="st7" d="M-960.7,462.6v63h-12l-31.4-38.2v38.2h-14.4v-63h12.1l31.3,38.2v-38.2H-960.7z"/>
			<path class="st7" d="M-939.5,524.7c-4.7-1.3-8.4-3.1-11.2-5.3l5-11c2.7,2,5.9,3.6,9.6,4.8c3.7,1.2,7.4,1.8,11.2,1.8
				c4.1,0,7.2-0.6,9.2-1.8c2-1.2,3-2.9,3-4.9c0-1.5-0.6-2.7-1.8-3.7c-1.2-1-2.7-1.8-4.5-2.4c-1.8-0.6-4.3-1.3-7.4-2
				c-4.8-1.1-8.7-2.3-11.8-3.4s-5.7-3-7.9-5.5c-2.2-2.5-3.3-5.9-3.3-10.1c0-3.7,1-7,3-9.9c2-3,5-5.3,9-7.1c4-1.7,8.9-2.6,14.6-2.6
				c4,0,7.9,0.5,11.8,1.4c3.8,1,7.2,2.3,10.1,4.1l-4.5,11.1c-5.8-3.3-11.6-5-17.5-5c-4.1,0-7.1,0.7-9,2c-2,1.3-2.9,3.1-2.9,5.2
				s1.1,3.8,3.4,4.8c2.2,1.1,5.7,2.1,10.3,3.1c4.8,1.1,8.7,2.3,11.8,3.4c3.1,1.1,5.7,2.9,7.9,5.4c2.2,2.5,3.3,5.8,3.3,10
				c0,3.6-1,6.9-3,9.9c-2,3-5,5.3-9,7.1c-4,1.7-8.9,2.6-14.7,2.6C-930.1,526.7-934.9,526-939.5,524.7z"/>
			<path class="st7" d="M-873.8,474.3V491h29.2v11.7h-29.2v23h-14.6v-63h47.6v11.7H-873.8z"/>
			<path class="st7" d="M-782.1,513.9v11.7h-48.8v-63h47.6v11.7h-33.1V488h29.2v11.3h-29.2v14.6H-782.1z"/>
			<path class="st7" d="M-730.3,525.6l-12.1-17.5h-0.7h-12.7v17.5h-14.6v-63h27.3c5.6,0,10.4,0.9,14.5,2.8c4.1,1.9,7.3,4.5,9.5,7.9
				c2.2,3.4,3.3,7.5,3.3,12.2c0,4.7-1.1,8.7-3.4,12.1c-2.2,3.4-5.4,6-9.6,7.8l14.1,20.2H-730.3z M-734,477.4
				c-2.3-1.9-5.6-2.8-10-2.8h-11.9v22h11.9c4.4,0,7.7-1,10-2.9c2.3-1.9,3.4-4.6,3.4-8.1C-730.6,482-731.7,479.2-734,477.4z"/>
		</g>
	</g>
</g>
<g id="Calque_7">
</g>
</svg>
