<svg xmlns="http://www.w3.org/2000/svg" viewBox="0 0 951.31 204.56"><defs><style>.cls-1{fill:#4b6737;}.cls-2{fill:#32572b;}.cls-3{fill:#c29b70;}.cls-4{fill:#764b28;}.cls-5{fill:#ef1c23;}.cls-6{fill:#f14038;}.cls-7{fill:#ef4138;}.cls-8,.cls-9{font-size:120.03px;fill:#fff;font-family:QanelasSoftDEMO-ExtraBold, Qanelas Soft DEMO;font-weight:800;}.cls-8{letter-spacing:0.02em;}.cls-9{letter-spacing:0.02em;}</style></defs><g id="Layer_2" data-name="Layer 2"><g id="Cherry_Bonus" data-name="Cherry Bonus"><g id="Cherry"><g id="Leafs"><path class="cls-1" d="M441.54,49.54s0,17.1-3.24,24.48c8.1-13,7-20.52,7-20.52s13.86,7.74,13.86,28.26c0,16-9.36,30.06-42.12,46.08,2.34-5,8.28-13.91,6.12-23.76C418.5,89.5,411.48,71,417.06,61.6S438.3,49.54,441.54,49.54Z"/><path class="cls-2" d="M461.24,36.22s10.85-9.47,17.33-11.5c-12.71,2-16.91,6.91-16.91,6.91S458.9,18.55,471.92,7.19c10.17-8.87,24.26-10.7,52.56,1.21C520,9.71,511.07,10.85,506,17.68c-6.66,11-14.54,25.76-23.57,27.4S463,38.28,461.24,36.22Z"/><path class="cls-3" d="M454.68,49.54s30,42.06,13.44,89.34,5,2.88,5,2.88,17.81-43.68-9.22-86.64c-2.65-5.58,8.63,2.93,8.63,2.93s34.72,17.31,47.5,55.88,5.94-1,5.94-1-13.5-48.42-65.88-64.8C452,44.09,454.68,49.54,454.68,49.54Z"/></g><g id="_1" data-name="1"><path class="cls-4" d="M430.56,28.48s10.26,19.08,50.94,41.94c-9-14.76-19.41-22.63-19.41-22.63s-18.3-12.65-22.62-30C437.67,23,430.56,28.48,430.56,28.48Z"/></g><g id="Cherry-2" data-name="Cherry"><circle class="cls-5" cx="528.49" cy="148.01" r="35.63"/><ellipse class="cls-6" cx="543.97" cy="148.01" rx="15.48" ry="20.53"/><ellipse class="cls-6" cx="499.14" cy="147.64" rx="3.78" ry="8.28"/></g><g id="Cherry-3" data-name="Cherry"><circle class="cls-5" cx="454.47" cy="169.46" r="35.1"/><ellipse class="cls-7" cx="463.38" cy="179.43" rx="19.89" ry="15.73" transform="translate(8.84 380.21) rotate(-45)"/><ellipse class="cls-7" cx="431.54" cy="153.53" rx="7.95" ry="3.71" transform="translate(54.76 413.98) rotate(-54.24)"/></g></g><g id="Text"><text class="cls-8" transform="translate(0 144.17)">Cherry</text><text class="cls-9" transform="translate(599.04 144.17)">Bonus</text></g></g></g></svg>